<?xml version="1.0" encoding="utf-8"?>
<!DOCTYPE svg PUBLIC "-//W3C//DTD SVG 1.0//EN" "http://www.w3.org/TR/2001/REC-SVG-20010904/DTD/svg10.dtd">
<svg version="1.0" xmlns="http://www.w3.org/2000/svg" width="500px" height="500px" viewBox="0 0 500 500" preserveAspectRatio="xMidYMid meet">
 <g fill="#fdfbfa">
  <path d="M0 250 l0 -250 250 0 250 0 0 250 0 250 -250 0 -250 0 0 -250z m225 139 c0 -0.5 -0.7 -1 -1.5 -1 -0.8 0 -1.5 0.5 -1.5 1 0 0.6 0.7 1 1.5 1 0.8 0 1.5 -0.4 1.5 -1z m26 0 c0 -0.5 -0.7 -1 -1.5 -1 -0.8 0 -1.5 0.5 -1.5 1 0 0.6 0.7 1 1.5 1 0.8 0 1.5 -0.4 1.5 -1z m27 0 c0 -0.5 -0.9 -1 -2 -1 -1.1 0 -2 0.5 -2 1 0 0.6 0.9 1 2 1 1.1 0 2 -0.4 2 -1z m-47 -51.5 c0 -1 1.1 -1.5 3.5 -1.5 2.4 0 3.5 0.5 3.5 1.5 0 1.3 2.3 1.5 15 1.5 12.7 0 15 -0.2 15 -1.5 0 -1.2 1.3 -1.5 6 -1.5 4.5 0 6 -0.3 6 -1.4 0 -0.8 0.8 -1.7 1.8 -1.9 1.5 -0.4 1.5 -0.5 0 -0.6 -0.9 0 -2 0.4 -2.3 0.9 -1 1.6 -11.1 1.2 -12.5 -0.5 -0.9 -1.1 -1.7 -1.2 -3 -0.5 -1 0.6 -5.5 1 -10 1 -6.4 0 -8.2 -0.3 -8.7 -1.6 -0.4 -1.1 -0.8 -1.2 -1.3 -0.4 -1 1.7 -23 2.7 -23 1.1 0 -0.6 -0.7 -1.1 -1.5 -1.1 -0.8 0 -1.5 0.5 -1.5 1.1 0 0.8 -1.7 1 -5.5 0.5 -3.5 -0.4 -5.5 -0.2 -5.5 0.4 0 0.5 -0.9 1 -2 1 -1.3 0 -2 0.7 -2 2 0 1.7 0.8 2 8.3 2.3 19.9 0.8 19.7 0.8 19.7 -0.8z m-7 -31.7 c0 -3 -0.1 -3.1 -1.4 -1.2 -1 1.3 -1.1 2.3 -0.4 3.1 1.5 1.9 1.8 1.6 1.8 -1.9z m13.4 -24.2 c0.6 -3.1 1.1 -3.6 3.5 -3.6 1.6 0 6 1.3 9.7 2.9 8.8 3.7 15.2 4.4 23.4 2.7 3.6 -0.7 5.7 -1.4 4.8 -1.5 -1.4 -0.1 -1.8 -1 -1.8 -3.9 0 -2.6 -0.6 -4.1 -2 -5 -1.3 -0.8 -2 -2.3 -2 -4.3 0 -2.7 -0.2 -2.9 -1.5 -1.5 -0.8 0.8 -1.5 1.9 -1.5 2.5 0 0.6 -1.8 1.5 -4 2.1 -2.2 0.6 -4 1.5 -4 2 0 0.6 -0.9 1 -2 1 -1.1 0 -2 0.5 -2 1 0 0.6 -1.2 1 -2.7 1 -5 0 -10.3 -1.2 -10.3 -2.4 0 -1.5 -6.5 -5.6 -8.9 -5.6 -1.1 0 -2.2 -0.6 -2.5 -1.2 -0.3 -0.9 -1.1 -0.6 -2.4 1 -1.1 1.2 -2.8 2.3 -3.9 2.3 -1.6 0.1 -1.6 0.2 0 0.6 0.9 0.2 1.7 1.3 1.7 2.4 0 1 0.7 1.9 1.5 1.9 1 0 1.5 1.1 1.5 3.5 0 3.3 -0.2 3.5 -3.5 3.5 -2.4 0 -3.5 -0.5 -3.5 -1.5 0 -0.8 -0.4 -1.5 -1 -1.5 -0.5 0 -1 0.5 -1 1 0 1.6 -6 1.2 -7.6 -0.5 -0.9 -0.8 -2.4 -1.5 -3.5 -1.5 -1 0 -1.9 -0.7 -1.9 -1.5 0 -0.8 -0.7 -1.5 -1.6 -1.5 -1.1 0 -1.4 0.5 -1 1.6 0.3 0.9 0.6 2 0.6 2.5 0 0.5 0.7 0.9 1.5 0.9 1.9 0 2.1 7 0.3 7 -0.7 0 -0.5 0.5 0.5 1.1 0.9 0.5 1.7 1.9 1.7 3 0 1.9 0.1 1.9 2.5 0.2 1.3 -1 2.5 -2.4 2.5 -3.1 0 -0.7 0.7 -1.5 1.5 -1.8 0.8 -0.4 1.5 -1.2 1.5 -2 0 -0.9 1.2 -1.4 3.5 -1.4 3.3 0 3.5 0.2 3.5 3.4 0 1.9 -0.5 3.6 -1.1 3.8 -0.6 0.2 -1.3 2.6 -1.6 5.3 l-0.5 5 6.5 -8.2 c4 -5.1 6.7 -9.5 7.1 -11.7z m-62.4 12.2 c0 -1.6 -0.4 -2.8 -0.9 -2.8 -0.5 0 -1.6 -0.3 -2.5 -0.6 -2.2 -0.9 -2.2 4.3 0.1 6.8 2 2.2 3.3 0.9 3.3 -3.4z m126.1 -3.6 c-0.6 -1.2 -1.2 -3.1 -1.2 -4.4 -0.1 -1.6 -0.4 -1.2 -0.8 1.2 -0.5 2.5 -0.3 3.8 0.8 4.7 1.9 1.7 2.5 0.9 1.2 -1.5z m-110.1 -3.2 c1.1 -1.1 2.7 -2 3.5 -2 1.9 0 2 -4.8 0.1 -7.2 -1.8 -2.4 -3.6 -2.3 -3.6 0.2 0 1.6 -0.7 2 -3.5 2 -1.9 0 -3.5 0.5 -3.5 1 0 0.6 0.9 1 2 1 1.6 0 2 0.7 2 3.5 0 4.1 0.3 4.2 3 1.5z m112.3 -18.2 c0.2 -1.8 0.1 -4.2 -0.4 -5.3 -0.7 -1.7 -0.8 -1.6 -0.8 0.8 -0.1 2.2 -0.6 2.7 -2.6 2.7 -1.8 0 -2.5 0.5 -2.5 1.8 0 2.4 0.9 3.2 3.6 3.2 1.7 0 2.3 -0.7 2.7 -3.2z m-114.4 -3.5 c-0.1 -4.7 -0.1 -4.7 -0.9 -1.4 -0.7 3.1 -0.4 6.1 0.6 6.1 0.2 0 0.4 -2.1 0.3 -4.7z m-11.8 -3.3 c0.5 0 0.9 -1 0.9 -2.2 0 -1.2 1 -3.2 2.2 -4.5 1.5 -1.6 1.7 -2.3 0.7 -2.3 -0.8 0 -1.9 0.4 -2.4 0.8 -1.7 1.2 -3.5 6.1 -3.4 9 0.1 1.7 0.3 2 0.6 1 0.2 -1 0.9 -1.8 1.4 -1.8z m89.3 -5.5 c0.3 -0.8 1.4 -1.5 2.5 -1.5 1.1 0 2.1 -0.9 2.5 -2.2 1 -4.1 0.7 -4.8 -2.4 -4.8 -1.6 0 -4.2 -0.5 -5.7 -1.2 -3.9 -1.7 -9.3 -7.8 -9.3 -10.5 0 -1.4 -0.6 -2.3 -1.5 -2.3 -1.2 0 -1.5 -1.3 -1.5 -5.5 0 -5.4 0 -5.5 -3 -5.5 -2.7 0 -3 0.3 -3 3 0 2.8 -0.3 3 -3.5 3 -3.3 0 -3.5 -0.2 -3.5 -3.5 0 -3.4 -0.1 -3.5 -4 -3.5 -2.2 0 -4 0.4 -4 0.9 0 0.5 -2.4 1.2 -5.2 1.7 -2.9 0.4 -4.7 0.9 -4 1.1 0.6 0.3 1.2 1.1 1.2 1.9 0 0.8 0.7 1.7 1.5 2 0.8 0.4 1.5 1.5 1.5 2.5 0 1 0.6 1.9 1.4 1.9 0.8 0 1.7 1.1 2 2.5 0.4 1.4 1.4 2.9 2.4 3.2 0.9 0.4 2.6 1.5 3.6 2.5 1.1 1 2.5 1.8 3.2 1.8 1.3 0 2.4 2.2 2.4 5.1 0 1 0.5 1.9 1 1.9 0.6 0 1 0.8 1 1.8 0 2.6 7.8 5 16.6 5.1 5.5 0.1 7.3 -0.2 7.8 -1.4z m-66.5 -1.7 c-0.1 -1.6 -0.3 -1.8 -0.6 -0.6 -0.2 0.9 -1.2 1.9 -2.1 2.1 -1.2 0.3 -1 0.5 0.6 0.6 1.7 0.1 2.2 -0.4 2.1 -2.1z m99.4 -9.9 c-0.4 -0.4 -0.6 1.2 -0.5 3.6 0.3 3.6 0.1 4.5 -1.2 4.5 -2.2 0 -2 1.8 0.2 2.2 1.4 0.3 1.8 -0.5 2 -4.6 0.2 -2.7 -0.1 -5.3 -0.5 -5.7z m-19.3 -10.3 c0 -0.8 -1.2 -1.7 -2.6 -2 -3.1 -0.8 -3.7 -0.5 -2.8 1.8 0.8 2 5.4 2.2 5.4 0.2z m-1.7 -16.3 c-0.7 -0.2 -1.3 -1.1 -1.3 -1.9 0 -0.8 -0.7 -1.4 -1.5 -1.4 -0.8 0 -1.5 0.2 -1.5 0.4 0 0.2 -0.3 1.1 -0.6 2 -0.5 1.3 0.1 1.6 2.7 1.5 1.9 0 2.8 -0.3 2.2 -0.6z m-50.3 -5.3 c0 -0.5 -1.3 -1 -3 -1 -1.6 0 -3 0.5 -3 1 0 0.6 1.4 1 3 1 1.7 0 3 -0.4 3 -1z m-22.9 -3.4 l7.5 0.6 -0.4 -4.1 c-0.4 -3.6 -0.7 -4.1 -2.8 -4.1 -1.7 0 -2.4 0.6 -2.4 2 0 1.6 -0.7 2 -3.5 2 -1.9 0 -3.5 -0.4 -3.5 -1 0 -0.5 -1.6 -1 -3.5 -1 -1.9 0 -3.5 -0.4 -3.5 -1 0 -0.5 -1.2 -1 -2.7 -1 l-2.8 0.1 2.4 1.9 c1.3 1.1 2.9 2 3.7 2 0.8 0 1.4 0.8 1.4 1.8 0 2.4 1.2 3.6 2 2.2 0.5 -0.7 3.2 -0.9 8.1 -0.4z m19.9 -7.1 c0 -0.8 -0.7 -1.5 -1.5 -1.5 -0.8 0 -1.5 0.7 -1.5 1.5 0 0.8 0.7 1.5 1.5 1.5 0.8 0 1.5 -0.7 1.5 -1.5z m-18 -4.4 c0 -0.5 0.3 -2.2 0.6 -3.9 0.6 -3 0.6 -3 -3.2 -2.5 -2.7 0.3 -5.4 -0.2 -8.6 -1.6 l-4.8 -2 0 3 c0 3.9 2 5.9 5.9 5.9 1.7 0 3.1 0.5 3.1 1 0 0.6 1.6 1 3.5 1 1.9 0 3.5 -0.4 3.5 -0.9z m10.7 -7.2 c-2.2 -1.1 -4.1 -1.8 -4.5 -1.5 -0.3 0.3 0 0.6 0.6 0.6 0.7 0 1.2 0.7 1.2 1.5 0 1 1 1.5 3.3 1.5 l3.2 -0.1 -3.8 -2z"/>
 </g>
 <g fill="#e9e0d5">
  <path d="M248.4 385.6 c-0.8 -1.7 -0.8 -3.1 0.1 -5.2 l1.2 -2.9 1.8 3.8 c1 2 2.5 3.7 3.2 3.7 0.7 0 1.3 0.7 1.3 1.5 0 1 -1 1.5 -3.2 1.5 -2.5 0 -3.6 -0.6 -4.4 -2.4z"/>
  <path d="M223 342 c-5.2 -0.3 -12.5 -0.6 -16.2 -0.5 -3.8 0 -6.9 -0.4 -7.1 -0.9 -0.2 -0.6 -1.1 -0.6 -2.3 -0.1 -2.6 1.1 -6.4 1.4 -6.4 0.5 0 -1.1 -6.7 -2.3 -13.2 -2.4 -3.1 -0.1 -6 -0.4 -6.4 -0.8 -0.4 -0.5 0.1 -0.8 1.1 -0.8 1 0 2.6 -0.7 3.6 -1.6 2.7 -2.4 9.4 -3 12.3 -1 3.4 2.2 4.3 2 4 -0.6 -0.1 -1.3 -0.3 -3.3 -0.3 -4.5 -0.1 -1.6 -0.7 -2.3 -2.1 -2.3 -1.4 0 -2 -0.7 -2 -2.1 0 -1.1 0.5 -1.7 1 -1.4 0.6 0.3 1 0.1 1 -0.4 0 -0.6 -0.5 -1.1 -1.1 -1.1 -0.8 0 -0.8 -0.5 0.1 -1.5 0.7 -0.8 2.5 -1.5 4 -1.5 2.5 0 2.9 0.4 3.5 4.3 1.1 6.9 1.3 7.2 4.5 7.2 1.6 0 3 -0.5 3 -1.1 0 -0.7 1.3 -1 3.3 -0.9 1.7 0.2 3.7 -0.1 4.3 -0.6 0.8 -0.6 1.4 -0.4 1.8 0.8 0.6 1.4 0.9 1.5 1.6 0.3 1.1 -1.7 8.2 -1.9 8.8 -0.2 0.5 1.7 3.2 1.5 3.2 -0.3 0 -1 1 -1.5 3 -1.5 1.7 0 2.9 0.5 2.8 1.1 -0.2 0.6 0.3 1.4 1.1 1.7 1 0.3 1.2 0 0.8 -1.2 -0.4 -0.9 -0.1 -1.6 0.5 -1.6 0.7 0 0.3 -0.7 -0.8 -1.5 -1.8 -1.3 -1.7 -1.4 1.9 -1.5 2 0 3.7 0.5 3.7 1 0 0.6 0.9 1 2 1 1.7 0 2 0.7 2 4 l0 4 -6 0 c-3.3 0 -6 -0.4 -6 -0.8 0 -0.8 -11.3 0 -22.5 1.7 -4.7 0.7 -5.2 0.9 -2.3 1 2 0 4.8 0.5 6.2 1.1 1.7 0.6 2.6 0.6 2.6 0 0 -1.6 14.9 -1.2 16.6 0.4 1.4 1.5 2 5.7 0.7 5.4 -0.5 -0.1 -5.1 -0.4 -10.3 -0.8z m-27.6 -10.9 c0.3 -0.5 -0.1 -1.4 -0.9 -2.1 -1.3 -1 -1.5 -0.9 -1.5 0.9 0 2.1 1.4 2.8 2.4 1.2z m44.6 -3.6 c-0.7 -0.8 -1.6 -1.5 -2.1 -1.5 -0.5 0 -0.9 0.7 -0.9 1.5 0 0.9 0.9 1.5 2.1 1.5 1.8 0 1.9 -0.2 0.9 -1.5z m-44 -1.9 c0 -0.3 -0.5 -1.7 -1.1 -3.3 l-1.1 -2.8 -0.9 2.3 c-0.5 1.3 -0.7 2.8 -0.3 3.3 0.5 0.9 3.4 1.3 3.4 0.5z"/>
  <path d="M237 339.5 c0 -3.2 0.2 -3.4 3.8 -3.7 3.4 -0.3 3.7 -0.5 4 -3.8 0.4 -4.1 2.1 -5.5 3.8 -3.2 1 1.3 1.5 1.4 2.7 0.4 1.1 -0.9 2.2 -1 4.2 -0.2 2.9 1.1 6.5 0.5 6.5 -1.1 0 -0.5 1.8 -0.9 3.9 -0.7 2.2 0.1 3.8 0.5 3.5 0.9 -1.1 1.9 5.2 3.3 7.4 1.6 0.7 -0.5 4.7 -0.8 9.4 -0.5 6.4 0.4 8.4 0.9 9.4 2.3 1.6 2.1 0.2 3.7 -2.3 2.8 -0.8 -0.3 -1.3 0.2 -1.3 1.5 0 1.1 -0.6 2.3 -1.2 2.5 -0.7 0.3 0.3 0.5 2.2 0.6 2.8 0 3.1 -0.2 1.5 -0.9 -1.6 -0.7 -1.7 -0.9 -0.3 -0.9 2.1 -0.1 2.9 1.1 1.9 2.8 -0.6 0.9 -5.4 1.4 -17 1.8 l-16.1 0.5 0 -3.1 c0 -3 0.2 -3.1 4 -3.1 4.8 0 5.4 -1.9 0.8 -2.2 -6 -0.3 -13.3 0.4 -14.2 1.3 -0.6 0.5 -0.1 0.9 1.2 0.9 1.8 0 2.2 0.6 2.2 3 0 3 -0.1 3 -5.7 3.2 -3.2 0 -7.7 0.2 -10 0.4 -4.3 0.3 -4.3 0.3 -4.3 -3.1z m39.8 -0.2 c-1 -0.2 -2.8 -0.2 -4 0 -1.3 0.2 -0.5 0.4 1.7 0.4 2.2 0.1 3.2 -0.1 2.3 -0.4z"/>
  <path d="M324 329 c0 -0.5 -1.1 -1 -2.4 -1 -1.9 0 -2.2 -0.4 -1.9 -2.4 0.4 -1.9 0 -2.5 -2.1 -3 -2.8 -0.7 -3.6 -3.6 -1 -3.6 1.1 0 1.4 -0.6 0.9 -2 -0.4 -1.1 -0.2 -2 0.4 -2 0.6 0 1.1 0.4 1.1 1 0 0.5 1.1 2 2.5 3.4 2.8 2.8 3.1 2.4 1.1 -1.6 -0.8 -1.6 -1.1 -2.8 -0.7 -2.8 0.9 0 6.1 11.8 6.1 13.8 0 0.6 -0.9 1.2 -2 1.2 -1.1 0 -2 -0.4 -2 -1z"/>
  <path d="M193 299.9 c0 -3.9 0.1 -4.1 2.5 -3.5 3 0.8 7 -2.7 8.1 -6.9 0.6 -2.3 1 -2.5 3.8 -1.9 4.3 0.9 5.6 2.2 5.6 5.7 0 3.3 -2.3 5.6 -5.6 5.7 -1.1 0 -2.9 0.6 -3.9 1.4 -1 0.7 -2.6 1.1 -3.5 0.9 -0.9 -0.2 -2.2 0.3 -2.9 1.1 -2.4 2.9 -4.1 1.9 -4.1 -2.5z m15.5 -6.9 c-0.4 -0.6 -1.3 -0.9 -2 -0.6 -0.8 0.3 -1.6 0 -1.9 -0.7 -0.3 -0.9 -0.5 -0.8 -0.5 0.1 -0.1 0.7 0.9 1.6 2.2 2.1 2.5 1 3.2 0.7 2.2 -0.9z"/>
  <path d="M326.5 298.9 c0.4 -0.6 1.3 -0.8 2.1 -0.5 2 0.8 2.7 -1.1 0.6 -2 -0.9 -0.4 -2 -0.6 -2.4 -0.6 -1.2 0.3 -1 -1.6 0.2 -2.3 0.7 -0.4 0.7 -1.2 0 -2.5 -0.5 -1 -1 -3.1 -1 -4.7 0.1 -2.5 0.2 -2.6 1.4 -1 0.7 0.9 1.6 1.7 1.9 1.7 0.4 0 0.4 -0.8 0 -1.7 -0.3 -1 1 0 3 2.2 3.7 4.1 4.9 8.5 2.2 8.5 -0.8 0 -1.5 0.8 -1.5 1.8 0 1.2 -0.9 1.8 -3.6 2 -2.3 0.1 -3.3 -0.2 -2.9 -0.9z"/>
  <path d="M166.2 297.8 c-0.7 -0.7 -1.2 -3.1 -1.2 -5.3 0 -3.5 0.4 -4.4 2.5 -5.3 5.2 -2.4 8.5 -0.9 8.5 3.8 0 3 -1.7 5 -4.2 5 -1 0 -1.8 0.7 -1.8 1.5 0 1.8 -2.1 2 -3.8 0.3z"/>
  <path d="M293 289.4 c0 -0.4 0.8 -1.3 1.8 -2 1.3 -1 1.4 -1.2 0.2 -1.2 -5.2 0.3 -6 -0.2 -6 -3.4 0 -1.8 0.4 -3.8 0.8 -4.4 1.3 -1.9 4 -2.3 5.3 -0.8 1.2 1.5 6 1.4 10.2 -0.1 2.1 -0.9 2.3 -2.5 0.2 -2.5 -0.8 0 -1.5 -0.9 -1.5 -2 0 -1.1 0.5 -2 1 -2 0.6 0 1 0.5 1 1.1 0 0.9 2 1 7 0.5 4.3 -0.4 7.9 -0.2 9 0.4 2 1.1 6.4 8.9 5.5 9.8 -0.2 0.3 -0.7 -0.3 -1.1 -1.2 -0.3 -0.9 -1 -1.6 -1.5 -1.6 -0.4 0 -0.6 0.7 -0.3 1.5 0.8 2 -2 2 -4.1 -0.1 -1.9 -2 -6 -1.3 -12.5 1.9 -3 1.5 -4.4 2.7 -4.2 3.8 0.2 1 -0.6 1.9 -2 2.3 -3 0.8 -8.8 0.8 -8.8 0z m27.5 -15.4 c0.3 -0.5 -0.3 -1 -1.4 -1 -1.2 0 -2.1 0.5 -2.1 1 0 0.6 0.6 1 1.4 1 0.8 0 1.8 -0.4 2.1 -1z"/>
  <path d="M223 286 c0 -0.5 -1.8 -1 -3.9 -1 -3.2 0 -4 -0.4 -4.5 -2.3 -0.5 -2 -1.1 -2.3 -3.6 -1.9 -1.7 0.2 -3 1 -3 1.8 0 0.8 -0.7 1.4 -1.5 1.4 -3.4 0 -3.9 -14.2 -0.6 -21.5 2.1 -4.7 2.1 -5 0.5 -6.2 -1 -0.7 -1.6 -1.4 -1.3 -1.5 3.3 -2.1 5.1 -2.7 6.3 -2.2 0.8 0.3 3.2 -0.4 5.5 -1.5 2.2 -1.2 5.1 -2.1 6.3 -2 1.5 0 0.8 0.5 -2 1.4 -4.4 1.3 -8.2 4 -8.2 5.7 0 1.1 -2.6 3.9 -3.1 3.3 -0.2 -0.2 -0.4 1.8 -0.5 4.3 0 2.6 -0.4 5.7 -0.8 7 -0.5 1.6 -0.4 2.2 0.8 2.2 0.9 0 1.6 -0.6 1.6 -1.4 0 -0.8 0.6 -1.7 1.3 -1.9 1 -0.4 1 -0.6 0 -0.6 -1.8 -0.1 -1.6 -2.1 0.1 -2.1 2 0 4.6 3.9 4.6 6.8 0 3.3 2.2 5.3 3.8 3.6 0.7 -0.7 1.2 -2.1 1.2 -3.1 0 -4 1.3 -6.3 3.4 -6.4 1.2 0 1.5 -0.3 0.8 -0.6 -1 -0.4 -0.7 -0.9 1 -1.7 1.6 -0.8 2.4 -2.2 2.6 -4.4 0.3 -3.3 1.9 -4.3 2.8 -1.7 0.4 0.8 1.2 1.5 1.9 1.5 0.7 0 1.6 1.1 1.9 2.5 0.4 1.6 1.3 2.5 2.6 2.5 2.6 0 9 4.1 9 5.7 0 0.7 0.7 1 1.5 0.7 0.8 -0.4 2.3 0 3.2 0.7 1.3 1.1 1.7 1.1 2 0.2 0.3 -0.7 1.3 -1.3 2.4 -1.3 1 0 1.9 -0.4 1.9 -1 0 -0.5 1.8 -1.4 4 -2 2.4 -0.6 4 -1.7 4 -2.5 0 -0.8 0.5 -1.5 1 -1.5 2.3 0 0.8 -1.9 -2.1 -2.5 -6.2 -1.4 -4 -6.5 2.8 -6.5 2.6 0 3.3 -0.4 3.3 -2 0 -1 0.8 -2.4 1.8 -2.9 1.5 -0.9 1.5 -1 0 -1.1 -1.8 0 -4.8 -2.6 -4.8 -4.1 0 -0.5 0.7 -0.9 1.6 -0.9 2.8 0 0.9 -2.3 -3.1 -3.7 -2.1 -0.7 -5.4 -2.5 -7.4 -4 -3.5 -2.6 -3.5 -2.6 -1.6 -0.2 3.3 4 5.4 5.9 6.5 5.9 0.5 0 1 0.7 1 1.5 0 1 -1.1 1.5 -3.5 1.5 -2.8 0 -3.5 -0.4 -3.5 -2 0 -1.3 -0.7 -2 -2 -2 -1.1 0 -2.3 -0.7 -2.6 -1.5 -0.8 -2.1 -2.4 -1.9 -2.4 0.4 0 1.5 -1 1.9 -5.2 2.5 -9.3 1.1 -9.8 0.9 -9.8 -2.3 0 -2.3 -0.5 -3 -2.8 -3.4 -2.3 -0.5 -3 -1.4 -4 -5.1 -0.6 -2.6 -1.2 -5.4 -1.2 -6.4 0 -1.5 -1.5 -2 -7.7 -3.1 -4.3 -0.7 -9.3 -1.5 -11 -1.8 -1.9 -0.3 -3.3 -1.1 -3.3 -1.9 0 -0.8 -0.4 -1.4 -1 -1.4 -0.5 0 -1 -1.3 -1 -3 0 -2.5 -0.4 -3 -2.5 -3 -1.6 0 -2.5 0.6 -2.5 1.5 0 0.8 -0.9 1.5 -1.9 1.5 -3.7 0 -5.1 -1.2 -5.1 -4.1 0 -2.2 0.5 -2.9 2 -2.9 1.3 0 2 -0.7 2 -2 0 -1.7 0.7 -2 4.5 -2 5.4 0 6.3 -2.4 1.3 -3.4 -1.8 -0.3 -6.5 -1.9 -10.5 -3.3 -6.1 -2.3 -7.3 -3.1 -7.3 -5 0 -1.7 0.4 -2.1 1.8 -1.6 1.4 0.5 1.3 0.3 -0.3 -1 -1.9 -1.6 -1.9 -1.6 1.8 -1.7 3 0 3.7 -0.4 3.7 -1.9 0 -1.9 0.3 -1.9 5.7 0.5 5.4 2.4 5.7 2.5 3.9 0.5 -1.9 -2.1 -1.9 -2.1 0.7 -2.1 1.5 0 2.7 0.4 2.7 1 0 0.5 1.1 1.2 2.5 1.6 1.9 0.5 2.5 1.3 2.5 3.5 0 1.6 0.4 2.9 1 2.9 0.5 0 0.7 -0.7 0.3 -1.6 -0.5 -1.5 0 -1.6 4.3 -1.1 2.6 0.3 5 0.9 5.1 1.4 0.2 0.5 2.1 0.7 4.3 0.5 2.4 -0.3 4 0 4 0.6 0 0.6 3.2 1.4 7 1.8 5.9 0.6 7 0.9 7 2.5 0 1.6 0.8 1.9 5.3 2 8 0.2 9.3 0.5 12 2.5 2.9 2.1 3.4 3.9 1.5 4.8 -1 0.5 -1 0.7 0 1.2 1.5 0.7 1.6 8.4 0 11.9 -0.8 1.7 -1.9 2.5 -3.6 2.5 -2.4 0 -2.4 -0.1 -0.9 -1.8 1 -1 1.7 -2.2 1.7 -2.7 0 -0.5 -1.1 0.6 -2.5 2.5 -1.4 1.9 -2.4 4.3 -2.4 5.4 0.2 1.9 0.2 1.9 0.6 -0.1 0.7 -3.6 1.9 -2.7 5 3.3 2.8 5.7 8.2 11.9 9.2 10.8 0.3 -0.4 0 -0.9 -0.6 -1.1 -1.5 -0.5 -1.8 -7.3 -0.3 -7.3 0.6 0 1 -0.7 1 -1.5 0 -0.8 -0.9 -1.5 -2 -1.5 -1.1 0 -2 -0.7 -2 -1.5 0 -0.8 -0.4 -1.5 -1 -1.5 -0.5 0 -1 -0.9 -1 -1.9 0 -1.1 0.5 -2.3 1 -2.6 0.6 -0.3 1 0.1 1 0.9 0 0.9 0.5 1.6 1.1 1.6 0.5 0 0.8 -0.4 0.5 -0.9 -0.8 -1.3 0.4 -4.2 1.4 -3.6 0.5 0.3 1.2 0 1.6 -0.6 0.4 -0.8 0.3 -0.9 -0.4 -0.5 -1.6 0.9 -2.8 -4.3 -1.5 -6.3 0.6 -0.9 1.9 -1.5 2.9 -1.3 1.1 0.1 3.6 0.5 5.7 0.9 2.4 0.4 3.7 0.2 3.7 -0.6 0 -0.6 -1.7 -1.1 -4 -1.1 -2.2 0 -4 -0.4 -4 -1 0 -0.5 0.6 -0.9 1.3 -0.7 0.7 0.1 1.3 -1 1.5 -2.6 0.2 -2 0.8 -2.7 1.8 -2.3 0.8 0.3 1.4 0.1 1.4 -0.4 0 -0.6 0.9 -1 2 -1 1.1 0 2 -0.4 2 -0.9 0 -0.5 1.2 -1.2 2.6 -1.5 2 -0.5 2.4 -1 1.5 -1.9 -1.7 -1.7 -1.3 -2.9 0.5 -1.9 0.9 0.5 2.5 0.7 3.6 0.4 1 -0.2 1.8 -0.1 1.7 0.4 -0.4 2.3 0.3 3.4 2.1 3.4 1.7 0 2 0.7 2 4 0 3.4 -0.4 4.1 -2.4 4.6 -1.4 0.3 -3.5 0.3 -4.7 -0.1 -1.9 -0.6 -2.1 -0.4 -1.7 1.8 0.3 1.7 -0.4 3.7 -2.4 6.3 -1.5 2 -2.8 4.4 -2.8 5.1 0 0.7 -0.4 1.3 -1 1.3 -0.5 0 -1 0.7 -1 1.5 0 0.8 0.7 1.5 1.5 1.5 0.8 0 1.5 0.5 1.5 1 0 0.6 -0.7 1 -1.5 1 -2.2 0 -1.8 1.7 0.6 2.3 1.1 0.3 1.9 1.1 1.8 1.9 -0.3 2.6 0.1 3.8 1.4 3.8 0.7 0 1.2 1.3 1.2 3.2 0 1.9 0.5 3.3 1.3 3.4 0.6 0.1 1.6 0.2 2.1 0.3 0.5 0 1.4 1.4 2.1 3 1.9 4.6 4 4.8 3.3 0.3 -0.3 -2 -1.1 -4 -1.7 -4.4 -0.7 -0.5 -0.4 -0.8 0.7 -0.8 1 0 1.6 -0.4 1.2 -0.9 -0.3 -0.5 0 -1.3 0.6 -1.7 0.9 -0.5 1.1 0.6 0.6 4.4 -0.5 4.1 -0.3 5.2 0.8 5.2 1.1 0 1.4 1.5 1.2 6.8 -0.2 6.7 -0.2 6.8 -2 4.8 -1.4 -1.7 -1.4 -1.4 0.3 1.4 1.1 1.9 2 4.7 2 6.2 0 2.5 -0.4 2.7 -5.2 3.3 l-5.3 0.6 -5.5 -5.1 c-6.3 -5.9 -9.8 -8.5 -10.6 -7.7 -1 1 2 4.6 4.8 5.8 1.6 0.6 2.8 1.5 2.8 1.9 0 0.4 0.9 1 2 1.3 2 0.5 3.7 3.3 2.7 4.4 -0.4 0.3 -2.3 -0.7 -4.2 -2.2 -2 -1.5 -3.9 -2.4 -4.2 -2.1 -0.8 0.8 7.1 8.3 9.6 9.1 2.1 0.6 3 3.5 1.1 3.5 -0.5 0 -1 1.1 -1 2.5 0 2.2 -0.4 2.5 -3.6 2.5 -2.7 0 -3.7 -0.5 -4.1 -1.9 -0.3 -1.1 -1.1 -2.2 -1.9 -2.5 -0.8 -0.3 -1.4 -1.9 -1.4 -3.6 0 -1.8 -0.6 -3.3 -1.5 -3.6 -0.8 -0.4 -1.5 -1.2 -1.5 -2 0 -0.8 -1 -1.4 -2.4 -1.4 -1.7 0 -2.5 0.8 -3.2 3.2 -0.7 2.3 -1.7 3.4 -3.9 4 -3.3 0.9 -16.5 0 -16.5 -1.2 0 -0.4 -1.8 -1.3 -4 -2 -2.2 -0.7 -4 -1.7 -4 -2.2 0 -0.4 -0.7 -0.8 -1.5 -0.8 -0.8 0 -1.5 -0.7 -1.5 -1.5 0 -2.6 -2.9 -1.6 -4.5 1.5 -1.9 3.7 -1.9 6 0 6 1.9 0 2 5.8 0.1 8.3 -1.4 1.8 -7.6 2.4 -7.6 0.7z m69.8 -24 l2.5 0 -2.2 -2.4 c-1.2 -1.3 -1.8 -2.7 -1.3 -3 1.8 -1.1 -0.3 -9.6 -2.4 -9.6 -1.9 0 -1.8 0.7 0.6 3.2 2.1 2.3 2.6 3.8 1.2 3.8 -0.9 0 -8.8 -9.2 -8.5 -10 0.4 -1.3 -3.5 -5.2 -4.6 -4.6 -1.7 1.1 -1.3 4.1 0.9 6.1 2.1 1.9 2.7 4.5 1 4.5 -0.5 0 -1.4 0.8 -1.9 1.9 -0.8 1.4 -0.5 2.4 1.2 4.5 1.3 1.4 2.8 2.6 3.5 2.6 0.7 0 1.2 0.5 1.2 1.1 0 0.5 0.4 0.8 0.9 0.5 1.5 -1 4.1 0.5 4.2 2.3 0 1 0.2 1.1 0.6 0.4 0.2 -0.7 1.6 -1.3 3.1 -1.3z m-15.9 -39.7 c0.3 -0.2 -0.7 -0.2 -2.1 -0.1 -1.7 0.1 -2.4 0.7 -2.1 1.5 0.4 1.1 0.9 1.1 2.2 0.1 0.9 -0.7 1.8 -1.4 2 -1.5z m-41.4 -7.3 c1.3 -0.5 1.4 -0.9 0.5 -0.9 -0.8 0 -2.4 0.4 -3.5 0.9 -1.3 0.5 -1.4 0.9 -0.5 0.9 0.8 0 2.4 -0.4 3.5 -0.9z m8.5 -1.6 c0 -0.9 0.5 -1.3 1.3 -0.9 0.6 0.4 0.3 -0.1 -0.8 -1 -1.8 -1.4 -2 -1.4 -2.3 -0.1 -0.2 0.9 -0.9 1.6 -1.5 1.6 -0.7 0 -0.6 0.4 0.3 1 2.1 1.4 3 1.2 3 -0.6z m14.8 -2.6 c-0.6 -1.8 -2.8 -2.1 -2.8 -0.4 0 0.9 0.7 1.6 1.6 1.6 0.9 0 1.4 -0.5 1.2 -1.2z m-44.8 -2.3 c0 -0.8 -0.4 -1.5 -1 -1.5 -0.5 0 -1 0.7 -1 1.5 0 0.8 0.5 1.5 1 1.5 0.6 0 1 -0.7 1 -1.5z m31.1 -0.8 c-0.1 -1.2 -1.5 -0.9 -1.9 0.4 -0.3 0.6 0.1 1 0.8 0.8 0.6 -0.3 1.1 -0.8 1.1 -1.2z m7.4 -2.9 c-1.9 -1.1 -3 -0.5 -2.1 1.1 0.4 0.6 1.4 0.7 2.2 0.4 1.5 -0.5 1.4 -0.7 -0.1 -1.5z m33.6 1.2 c0.6 0 0.7 -0.4 0.4 -1 -0.8 -1.3 -6.5 -1.3 -6.5 -0.1 0 1.2 2.1 2.1 3.8 1.5 0.8 -0.2 1.8 -0.4 2.3 -0.4z m-38.1 -2.7 c0 -0.7 -2.3 -1.9 -5.2 -2.8 -6.3 -1.8 -6.3 -1.8 -4.9 -0.2 0.6 0.8 0.8 1.7 0.4 2.1 -0.4 0.4 0 0.4 0.8 0.1 0.9 -0.3 2.1 0.1 2.8 0.8 1.4 1.8 6.1 1.7 6.1 0z m45.3 -1 c-0.3 -0.7 -1.4 -1.3 -2.4 -1.3 -1 0 -1.9 0.6 -1.9 1.3 0 0.6 1.1 1.2 2.4 1.2 1.5 0 2.2 -0.5 1.9 -1.2z m-64.4 -4.6 c-1 -0.9 -5.9 -1.7 -5.9 -0.9 0 0.4 1.4 0.9 3.2 1 1.8 0.2 3 0.1 2.7 -0.1z"/>
  <path d="M294.6 274.5 c-0.3 -0.9 0 -1.5 0.9 -1.5 1.6 0 2 1.6 0.6 2.4 -0.5 0.3 -1.1 -0.1 -1.5 -0.9z"/>
  <path d="M364.7 273.9 c-2.6 -1.5 -2 -2.8 1 -2.6 2.2 0.2 2.9 -0.3 3.1 -2.1 0.3 -2.3 -1.3 -5.2 -2.9 -5.2 -0.4 0 -1.1 0.9 -1.4 2 -0.8 2.6 -2.5 2.6 -2.5 0 0 -2.7 4.5 -4.8 6.8 -3.3 2.5 1.5 3.3 7.9 1.3 9.6 -2.7 2.3 -3.6 2.6 -5.4 1.6z"/>
  <path d="M149 272.7 c0 -0.8 0.7 -1.4 1.5 -1.4 0.8 0 1.5 0.6 1.5 1.4 0 0.7 -0.7 1.3 -1.5 1.3 -0.8 0 -1.5 -0.6 -1.5 -1.3z"/>
  <path d="M132 266.5 c0 -0.8 -0.7 -1.5 -1.5 -1.5 -0.8 0 -1.5 -0.7 -1.5 -1.5 0 -1.1 1.2 -1.5 4.5 -1.5 3.3 0 4.5 0.4 4.5 1.5 0 0.8 -0.9 1.5 -2 1.5 -1.1 0 -2 0.7 -2 1.5 0 0.8 -0.4 1.5 -1 1.5 -0.5 0 -1 -0.7 -1 -1.5z"/>
  <path d="M180 265.1 c0 -4 -1 -5 -4.6 -4.4 -3.1 0.5 -3.4 0.3 -3.5 -1.8 l-0.1 -2.4 -0.8 2.5 c-0.8 2.4 -0.8 2.4 -0.9 -0.7 -0.1 -3.2 1.4 -5.4 2.1 -3.1 0.3 0.7 0.7 0.5 1.1 -0.6 0.4 -1 0.3 -1.5 -0.3 -1.1 -1.5 0.9 -1.2 -1.1 0.3 -2.4 0.8 -0.6 1.7 -0.7 2.1 -0.3 0.4 0.4 0.6 0.2 0.4 -0.3 -0.1 -0.6 0.8 -2.1 2.1 -3.4 2 -2 2.7 -2.2 4.2 -1.2 1 0.6 3 1.1 4.4 1.1 1.4 0 2.5 0.4 2.5 0.8 0 0.5 2.1 0.7 4.6 0.5 2.5 -0.2 5.1 0.1 5.8 0.6 0.8 0.7 1.2 0.5 1.3 -0.9 0.1 -1.2 -0.7 -2 -2.5 -2.5 -1.5 -0.4 -2.8 -0.3 -2.9 0.2 -0.2 0.4 -3 0.6 -6.3 0.5 -5.1 -0.3 -6 -0.7 -6 -2.3 0 -1.7 0.8 -1.9 7.9 -1.9 9.2 0 14.4 2.5 14.9 7.3 0.3 2.5 0.1 2.7 -3.3 2.7 -2.8 0 -3.8 0.5 -4.2 1.9 -0.3 1.1 -1.5 2.2 -2.7 2.4 -1.1 0.2 -0.2 0.5 2 0.6 4.3 0.1 5.9 1.7 4.8 4.6 -0.9 2.3 -4.6 3 -5.9 1.1 -1.7 -2.2 -2.6 -2 -6.3 1.4 -3.7 3.4 -7.8 4.1 -6.8 1.3 0.6 -1.7 0.5 -1.7 -0.8 0 -1.7 2.2 -2.6 2.2 -2.6 -0.2z m3.3 -4.1 c0.3 -1.2 2.4 -2.9 5.1 -4.1 5.4 -2.3 6 -3.4 1.4 -2.5 -3.5 0.7 -8.8 5.1 -8.8 7.3 0 2 1.7 1.5 2.3 -0.7z m8.7 -17 c-2 -1.3 -4 -1.3 -4 0 0 0.6 1.2 1 2.8 1 2.1 0 2.4 -0.2 1.2 -1z"/>
  <path d="M250 261 c-1.4 -0.3 -2.6 -1.4 -2.8 -2.4 -0.3 -1.5 0.3 -1.7 4 -1.4 3.4 0.2 4.4 0.7 4.6 2.3 0.3 2.2 -1.2 2.6 -5.8 1.5z"/>
  <path d="M241.9 258.5 c-0.3 -0.2 -2.3 -0.7 -4.5 -1.1 -5.5 -0.9 -8 -2.5 -3.2 -2.2 2 0.1 4.1 -0.1 4.5 -0.6 0.4 -0.4 0.4 -0.7 -0.2 -0.5 -1.1 0.2 -4.4 -1.2 -8.5 -3.7 -2.4 -1.5 -2.3 -1.5 2.5 -1.1 2.8 0.2 4.4 0.2 3.7 0 -0.6 -0.3 -1 -0.9 -0.6 -1.4 0.3 -0.5 -0.2 -0.9 -1 -0.9 -0.8 0 -1.8 -0.4 -2.1 -1 -0.4 -0.6 0.8 -1 2.9 -1 3.5 0 3.6 0.1 3.6 3.6 0 3.1 0.4 3.7 3 4.7 2.1 0.8 3 1.8 3 3.4 0 2 -1.9 3.1 -3.1 1.8z"/>
  <path d="M291.2 232 c-0.5 -2.2 -0.6 -4 -0.2 -4 0.4 0 1.1 -1.6 1.4 -3.5 0.5 -2.2 1.3 -3.5 2.3 -3.5 0.9 0 1.3 -0.6 1 -1.4 -0.3 -0.8 0.3 -2.2 1.4 -3.2 1 -0.9 1.9 -2.3 1.9 -3 0 -0.8 1.2 -1.6 2.8 -2 1.5 -0.3 3.4 -0.8 4.3 -1 0.9 -0.2 2.3 -2.9 3.3 -6.4 1.8 -5.9 3.8 -7.6 5 -4.3 0.5 1.2 1 1.3 1.7 0.6 1.5 -1.5 4.9 1.4 5 4.2 0 1.9 0.1 1.8 0.9 -0.2 1.2 -3 1.5 -2.9 1.8 0.7 0.2 2.4 -0.3 3.2 -2 3.9 -1.3 0.5 -3 0.6 -3.8 0.3 -0.9 -0.3 -0.6 0.2 0.5 1.1 1.4 1.1 1.6 1.9 0.9 2.4 -0.6 0.5 -1.4 3.4 -1.8 6.6 -0.6 4.1 -1.2 5.7 -2.3 5.7 -0.9 0 -1.3 0.6 -0.9 1.5 0.3 0.8 0.1 1.5 -0.4 1.5 -0.5 0 -1.5 1 -2.1 2.3 -1.1 2 -1.1 2.1 0.4 0.8 1.5 -1.2 1.7 -1.1 1.7 0.3 0 1.2 -0.9 1.6 -3.5 1.6 -2.4 0 -3.5 -0.5 -3.5 -1.4 0 -1 -1.3 -1.6 -3.7 -1.8 -3.1 -0.2 -3.9 -0.7 -4.1 -2.5 -0.6 -4.1 -3 -2.4 -4.7 3.2 -1 3 -1.9 5.5 -2 5.5 -0.1 0 -0.7 -1.8 -1.3 -4z m21.8 -9.4 c-1.4 -1.4 -2.4 0 -1.6 2.1 0.6 1.5 0.8 1.5 1.6 0.3 0.6 -0.9 0.5 -1.9 0 -2.4z m-4 0.4 c0 -1.1 0.5 -2 1.1 -2 0.6 0 0.3 -0.7 -0.5 -1.6 -3.2 -3.1 -1.3 -3.8 5.2 -1.8 0.8 0.2 1.2 -0.7 1.2 -2.6 0 -1.7 -0.4 -3 -1 -3 -0.5 0 -1 0.5 -1 1 0 0.6 -0.9 0.1 -2 -1 l-2.1 -2.1 -3 2.6 c-1.7 1.4 -3.4 2.5 -3.7 2.5 -0.4 0 -1.3 0.9 -2 2 -2 3.2 0.9 8 4.8 8 2.3 0 3 -0.4 3 -2z"/>
 </g>
 <g fill="#d3c1ab">
  <path d="M230.1 340.9 c-2 -1.9 -2.6 -2 -4.8 -0.8 -1.9 1 -2.8 1.1 -4.4 0.1 -1 -0.7 -1.9 -0.8 -1.9 -0.3 0 0.5 -1.6 1.1 -3.5 1.3 -1.9 0.2 -3.5 0.1 -3.5 -0.3 0 -0.4 -1.2 -1 -2.7 -1.4 -1.5 -0.3 -3.2 -1.2 -3.6 -1.8 -0.6 -0.9 -1 -0.9 -1.4 0.1 -0.2 0.6 -1.1 1.2 -1.9 1.2 -0.8 0 -1.4 0.8 -1.4 1.8 -0.1 1.6 -0.1 1.6 -1.1 0 -0.5 -1 -1.6 -1.8 -2.4 -1.8 -0.7 0 -1.6 0.8 -1.8 1.8 -0.4 1.6 -0.5 1.6 -0.6 0 0 -1 -0.4 -1.8 -0.7 -1.8 -0.4 0 -1.3 0.8 -2.1 1.8 -0.8 0.9 -1.2 1.2 -0.9 0.5 0.8 -1.6 -1.6 -2.2 -9.7 -2.4 l-6.8 -0.2 2 -2.1 c1.6 -1.5 3.4 -2 7.3 -2.1 2.9 0 5.6 -0.4 6 -0.9 0.3 -0.5 1.4 -1.1 2.3 -1.2 4.5 -0.7 4.8 -1.3 2 -4.2 -1.9 -1.8 -2.9 -2.3 -3.2 -1.4 -0.6 1.5 -3.5 1.6 -5.1 0 -2 -2 -1.4 -4.8 1.2 -5.8 2.8 -1 4.2 -4.7 5.1 -13.7 0.5 -4.1 1.1 -6.3 2 -6.3 0.7 0 2.3 -0.9 3.6 -1.9 l2.4 -2 -2.5 0.5 -2.5 0.5 2.6 -1.5 c1.5 -0.9 3.5 -2.9 4.6 -4.5 1.3 -2.1 2.3 -2.7 3.2 -2.2 0.8 0.5 1 1.4 0.6 2.1 -0.6 0.9 -0.9 0.9 -1.5 0.1 -0.3 -0.7 -0.7 0.2 -0.7 1.8 0 3 0.1 3 2.9 1.5 1.6 -0.8 2.6 -1.9 2.3 -2.4 -0.4 -0.6 -0.1 -1 0.4 -1 0.6 0 1.1 1.4 1.1 3.1 0 3.3 -2.2 5.8 -5.2 5.9 -1 0 -1.8 0.7 -1.8 1.5 0 0.9 -0.9 1.5 -2.5 1.5 -2.6 0 -3.4 -1.5 -1.2 -2.3 0.8 -0.4 0.7 -0.6 -0.3 -0.6 -1.7 -0.1 -4 1.7 -4 3.1 0 0.4 0.7 0.8 1.6 0.8 1.2 0 1.5 0.6 1 2.3 -0.3 1.2 -1.1 5 -1.7 8.5 -0.8 4.3 -1.5 6 -2.2 5.3 -0.6 -0.6 -1.4 -0.5 -2.4 0.5 -1.2 1.2 -1.2 1.8 -0.3 2.9 1.7 2 4 1.9 4.1 -0.2 0.1 -2 1.8 4.6 2.3 9 0.1 1.5 0.6 3 1.1 3.5 0.4 0.4 0.4 -0.4 0 -1.7 -0.5 -1.6 -0.4 -2.1 0.4 -1.7 0.6 0.4 1.1 0.1 1.1 -0.8 0 -1.2 0.9 -1.5 4 -1.2 2.2 0.2 4.3 0 4.5 -0.4 0.3 -0.4 2.4 -0.8 4.7 -0.8 2.4 -0.1 7.7 -0.2 11.8 -0.2 4.1 -0.1 9.2 0.2 11.3 0.5 3 0.6 3.7 0.4 3.7 -0.9 0 -0.9 0.7 -1.6 1.5 -1.6 0.8 0 1.5 -0.7 1.5 -1.5 0 -2.2 3.2 -0.4 4.9 2.8 1.1 2.1 1.8 2.4 3.5 1.7 2.2 -0.8 7.7 -1.2 12.6 -1 1.4 0.1 4.1 0.3 6 0.4 2 0.1 3.4 0.6 3.3 1.3 -0.3 1.6 4.7 2.5 9.9 1.8 4 -0.6 4.2 -0.5 2.3 0.9 -1.1 0.8 -3.6 1.6 -5.5 1.7 l-3.5 0.2 3.3 0.4 c6.6 0.8 2.9 2.3 -5.8 2.3 -7.3 0 -9 0.3 -9 1.5 0 1.2 -1.4 1.5 -6.9 1.5 -4.3 0 -7.3 -0.5 -7.7 -1.2 -0.5 -0.8 -0.2 -0.9 0.9 -0.5 1 0.3 1.7 0.2 1.7 -0.3 0 -0.6 -0.9 -1 -1.9 -1 -1.1 0 -2.7 -0.3 -3.5 -0.6 -1.2 -0.5 -1.5 -0.2 -1 1 0.4 1.1 0.1 1.6 -1 1.6 -0.9 0 -1.6 0.4 -1.6 0.9 0 0.5 -2.8 0.9 -6.3 1 -5.2 0.1 -6.8 -0.3 -8.6 -2z m15.9 -8.4 c0 -0.8 -0.4 -1.5 -1 -1.5 -0.5 0 -1 0.7 -1 1.5 0 0.8 0.5 1.5 1 1.5 0.6 0 1 -0.7 1 -1.5z m-50.2 -21.5 c0 -0.9 -0.3 -0.7 -0.8 0.5 -0.5 1.1 -0.8 2.9 -0.8 4 0 1.6 0.2 1.5 0.8 -0.5 0.4 -1.4 0.8 -3.2 0.8 -4z"/>
  <path d="M272.3 340.3 c0.9 -0.2 2.5 -0.2 3.5 0 0.9 0.3 0.1 0.5 -1.8 0.5 -1.9 0 -2.7 -0.2 -1.7 -0.5z"/>
  <path d="M285 338.6 c0 -1 2.8 -1.3 4.1 -0.5 1 0.6 0.7 0.9 -1.3 0.9 -1.6 0 -2.8 -0.2 -2.8 -0.4z"/>
  <path d="M320.5 329.2 c-1.8 -1.2 -1.2 -7 0.7 -7.5 1.4 -0.4 1.6 0 1.1 2.4 -0.3 1.7 -0.1 2.9 0.5 2.9 1.3 0 2.6 -3.6 1.7 -5 -0.3 -0.5 -0.3 -1 0 -1 0.7 0 3.5 6.4 3.5 8 0 1.1 -6 1.4 -7.5 0.2z"/>
  <path d="M311 307 c-0.7 -1.6 -1.6 -3 -2.1 -3 -0.5 0 -0.8 -1.7 -0.8 -3.7 0.1 -2.1 0.3 -3.1 0.6 -2.2 0.2 1 1.3 1.9 2.4 2.2 2.2 0.6 2.6 -1.1 0.4 -1.9 -0.8 -0.4 -1.5 -1 -1.5 -1.5 0 -0.6 0.8 -0.6 1.8 0 1.1 0.6 2.8 3.6 3.8 6.9 l1.9 5.8 -2.6 0.2 c-2.1 0.2 -2.9 -0.4 -3.9 -2.8z m3.6 -1.7 c-0.8 -1.5 -1.5 -2.5 -1.6 -2.1 0 1.2 2.3 5.8 2.7 5.4 0.3 -0.2 -0.2 -1.7 -1.1 -3.3z"/>
  <path d="M330 306.5 c0 -0.9 -0.9 -1.5 -2.5 -1.5 -2.7 0 -3.2 -1.8 -1.5 -5.1 1.4 -2.5 2.9 -2.4 3.9 0.3 0.6 1.8 0.9 1.9 1.4 0.5 0.4 -1 0.2 -1.7 -0.4 -1.7 -0.6 0 -0.8 -0.4 -0.4 -0.9 0.3 -0.6 -0.3 -1.4 -1.2 -2 -2.1 -1.2 -0.3 -1.5 3.4 -0.5 2.1 0.6 2.2 1.1 1.7 4.8 -0.8 4.7 -2 7.6 -3.4 7.6 -0.6 0 -1 -0.7 -1 -1.5z"/>
  <path d="M174 305.7 c0 -0.7 -2 -2.9 -4.4 -4.9 -3.6 -3.1 -4.5 -4.4 -4.8 -7.8 -0.2 -2.2 0 -4 0.5 -4 0.4 0 1.7 -0.9 2.9 -2 1.2 -1.1 1.7 -2 1.2 -2 -0.6 0 -1.5 0.5 -2.2 1.2 -2 2 -3.9 -0.6 -2.1 -2.8 0.8 -1 1.4 -2.6 1.4 -3.7 0 -1.1 0.6 -2.2 1.4 -2.5 0.8 -0.3 1.1 0 0.7 0.7 -0.4 0.6 -0.1 1.3 0.6 1.5 0.7 0.2 3.1 0.9 5.2 1.6 3.5 1.1 4.1 1.1 5.3 -0.6 1.8 -2.4 1.7 -2.8 -1.2 -6.2 -1.4 -1.7 -2.5 -3.7 -2.5 -4.6 0 -0.9 -0.4 -1.6 -1 -1.6 -0.5 0 -1 -1.6 -1 -3.5 0 -1.9 -0.4 -3.5 -1 -3.5 -0.5 0 -1 -1 -1.1 -2.2 0 -2.2 -0.1 -2.2 -0.9 -0.3 -0.8 1.8 -0.9 1.7 -0.9 -0.7 -0.1 -3.4 11.3 -15.8 14.6 -15.8 1.6 0 2 0.5 1.6 2.1 -0.4 1.4 -1.2 1.9 -2.4 1.6 -1.1 -0.3 -1.7 -0.1 -1.3 0.4 0.3 0.5 1.5 0.9 2.6 0.9 2.8 0 1.5 1.2 -1.7 1.5 -1.4 0.2 -2.3 -0.1 -1.9 -0.6 0.7 -1.2 -0.7 -1.1 -2.6 0.1 -1.3 0.8 -1.3 1 0 1 1 0 0.7 0.5 -0.8 1.6 -2.5 1.7 -2.9 4.1 -0.7 4.1 0.8 0 1.5 -0.4 1.5 -0.8 0 -0.4 1.4 -1.2 3 -1.8 3.6 -1.2 4.1 -0.5 0.5 0.9 -1.4 0.5 -2.5 1.7 -2.5 2.6 0 1.4 0.5 1.3 3.6 -0.5 2.2 -1.3 5.2 -2.1 8 -2.1 3.1 0 4.3 -0.4 3.8 -1.1 -0.4 -0.7 -2.1 -0.9 -4.5 -0.5 -3 0.5 -3.9 0.3 -3.9 -0.8 0 -1 1.6 -1.3 6.8 -1.2 11.9 0.3 12.4 -1.3 1.5 -4.8 l-7.8 -2.4 5.3 -0.1 c6.4 -0.1 8.3 0.8 14.4 6.7 3.4 3.3 5.1 4.3 6.5 3.8 1.3 -0.5 1 0.1 -0.9 2 -2.5 2.6 -2.9 2.7 -6.6 1.6 -2.2 -0.7 -4.9 -1.2 -6.1 -1.2 -2.9 0 -2.2 2.4 0.7 2.8 1.2 0.2 2.2 0.9 2.2 1.6 0 2 -3.8 4.9 -5.5 4.2 -1.9 -0.7 -1 -2.6 1.2 -2.6 0.9 0 1.4 -0.3 1 -0.6 -0.3 -0.3 -1.9 -0.3 -3.6 0.1 -2.2 0.5 -3.3 1.4 -3.7 3.1 -0.6 2.3 -3.4 3.5 -3.4 1.4 0 -0.5 -0.4 -1 -1 -1 -0.5 0 -1 1.1 -1 2.5 0 1.4 0.5 2.5 1 2.5 0.6 0 1 0.6 1 1.4 0 0.7 0.9 1.6 2 1.9 1.4 0.3 2 1.4 2 3.1 0 1.6 0.6 2.6 1.5 2.6 0.8 0 1.5 0.9 1.5 2 0 1.1 0.7 2 1.5 2 2.2 0 2 6.3 -0.3 8.3 -1.2 1.1 -4.1 1.7 -9.7 1.9 -7.2 0.3 -8.1 0.5 -9 2.6 -0.5 1.2 -1.5 2.2 -2.2 2.2 -0.7 0 -1.3 0.7 -1.3 1.5 0 0.8 0.5 1.5 1 1.5 0.6 0 1 1.6 1 3.5 0 2.4 -0.5 3.5 -1.5 3.5 -0.8 0 -1.5 -0.6 -1.5 -1.3z m-2.2 -15.8 c-0.7 -0.4 -1.8 -0.3 -2.6 0.3 -1 0.9 -1 1.3 0 1.9 0.7 0.4 1.8 0.3 2.6 -0.3 1 -0.9 1 -1.3 0 -1.9z m24.7 0 c1.1 -1.7 0 -2 -2.1 -0.4 -1.7 1.3 -1.7 1.4 -0.2 1.5 0.9 0 2 -0.5 2.3 -1.1z m-16.9 -1.4 c-1.1 -0.8 -2.7 -1.5 -3.5 -1.5 -1 0 -0.7 0.6 0.9 1.4 3.3 1.9 5 1.9 2.6 0.1z m8 -13.2 c-0.2 -0.9 -1.1 -1.7 -2 -1.9 -1.7 -0.2 -1.7 -0.2 0 1.7 2.1 2.3 2.3 2.3 2 0.2z m0.9 -15.3 c2.4 -1.3 3.4 -3 1.8 -3 -2.1 0.1 -8.3 7.2 -8.3 9.4 0 0.6 0.9 -0.3 2 -2 1.1 -1.7 3.1 -3.7 4.5 -4.4z m-4.6 1.7 c0.6 -0.8 0.8 -1.7 0.4 -2 -0.3 -0.4 1.6 -1.7 4.3 -2.9 3.9 -1.8 4.4 -2.3 2.7 -2.6 -4.1 -0.6 -10.3 4 -10.3 7.7 0 1.5 1.5 1.4 2.9 -0.2z m-7.5 -11 l2.1 -1.8 -2.2 1.1 c-2.2 1 -4.3 3.9 -4.3 5.7 0 0.4 0.6 -0.1 1.2 -1.2 0.6 -1.1 2 -2.8 3.2 -3.8z"/>
  <path d="M218 291.3 c0 -3.7 -1.6 -4.7 -7.4 -4.4 l-5.6 0.2 0 -3.1 c0 -1.7 -0.5 -5 -1.1 -7.4 -0.8 -3.4 -0.7 -5.4 0.6 -9.9 0.9 -3.1 2.1 -6 2.7 -6.3 0.6 -0.4 0.5 0.2 -0.1 1.5 -0.7 1.2 -0.9 2.6 -0.6 3.2 1 1.5 1.3 5.9 0.5 5.9 -1.2 0 0.4 6.3 1.7 6.7 0.6 0.2 1.7 -0.2 2.4 -1 2.1 -2.2 5.7 -0.9 6.4 2.4 0.5 2 1.3 2.9 2.6 2.9 1 0 1.9 -0.4 1.9 -1 0 -0.5 0.7 -1 1.5 -1 0.9 0 1.2 -0.6 0.9 -1.5 -0.4 -1 0 -1.5 1.1 -1.5 1.5 0 1.7 0.6 1.2 3.6 -0.6 3.3 -0.5 3.5 0.8 1.8 1.3 -1.8 1.4 -1.6 1.5 1.9 0 2.6 -0.4 3.7 -1.5 3.7 -0.9 0 -1.5 0.9 -1.5 2.5 0 2.3 -0.4 2.5 -4 2.5 -3.1 0 -4 -0.4 -4 -1.7z"/>
  <path d="M323 284 c0 -0.6 -1.2 -1.5 -2.7 -2.2 -3.1 -1.2 -10.3 -1.7 -10.3 -0.6 0 0.9 -10 2.2 -10.8 1.3 -0.3 -0.3 0 -1 0.8 -1.5 1.3 -0.9 1.3 -1 0 -1.1 -0.8 0 0.1 -0.7 2 -1.4 4.3 -1.6 6.3 -1.8 5.5 -0.5 -0.8 1.3 0.6 1.3 2.5 0 2.4 -1.7 -1.6 -3.4 -7.2 -3.1 -4.3 0.2 -4.8 0 -4.8 -1.8 0 -1.4 0.6 -2.1 2 -2.1 1.1 0 2 -0.4 2 -1 0 -0.5 1.1 -1 2.4 -1 2 0 2.3 0.4 1.8 2.2 -0.5 2.1 -0.4 2.1 7.1 1.4 7.3 -0.7 7.8 -0.6 10.2 1.8 1.4 1.4 2.5 3 2.5 3.7 0 0.6 0.9 2.5 2.1 4.2 1.7 2.7 1.5 2.6 -1.6 -0.8 l-3.7 -4 2 3.8 c2.1 3.6 2.1 3.7 0.2 3.7 -1.1 0 -2 -0.5 -2 -1z m-9 -8.5 c0 -0.8 -0.7 -1.5 -1.5 -1.5 -0.9 0 -1.2 0.6 -0.9 1.5 0.4 0.8 1 1.5 1.5 1.5 0.5 0 0.9 -0.7 0.9 -1.5z m6.9 0.2 c1.3 -1.6 0.5 -2.7 -2.1 -2.7 -2 0 -2.1 0.1 -1.2 2.4 0.7 2 1.8 2 3.3 0.3z"/>
  <path d="M231 276.5 c0 -3.2 0.3 -3.5 2.9 -3.5 2.4 0 2.8 -0.3 2.4 -2 -0.3 -1.2 -1.4 -2 -2.7 -2 -4 0 -4.6 -1.2 -3.8 -7.6 0.6 -5.5 0.9 -5.9 3.5 -6.2 3 -0.4 3.8 1.3 0.9 2 -1.5 0.4 -1.7 1.3 -1.4 4.1 0.3 2.5 0.8 3.4 1.7 3 0.8 -0.2 2 0.5 2.7 1.6 0.7 1.2 1.8 2.1 2.5 2.1 0.6 0 1.3 0.3 1.5 0.8 0.5 1.2 8.2 4.6 11 4.8 1.5 0.1 3.4 0.4 4.3 0.8 0.8 0.3 1.5 0.1 1.5 -0.5 0 -0.6 0.9 -0.9 2 -0.7 1.4 0.2 2.5 -0.5 3.3 -2.2 0.7 -1.4 2.7 -3 4.4 -3.5 4.7 -1.6 5 -2.4 1.5 -3.7 -3.8 -1.5 -4 -2.3 -0.9 -3.2 3.5 -0.9 4.7 -0.7 4.7 0.9 0 0.8 0.7 1.5 1.4 1.5 0.8 0 2.7 1.1 4.2 2.5 1.4 1.3 3 2.3 3.4 2 0.4 -0.3 1.3 0.2 2 1 0.7 0.8 1.7 1.5 2.3 1.5 0.6 0 -0.2 -1.3 -1.8 -3 -1.9 -2 -2.4 -3 -1.4 -3 0.8 -0.1 0.2 -1.1 -1.6 -2.6 -2.9 -2.5 -2.9 -2.5 -0.5 -1.9 1.4 0.4 3.7 2.1 5.1 3.6 1.4 1.6 3.1 2.9 3.8 2.9 0.7 0 0.9 0.5 0.6 1 -0.3 0.6 0.3 1 1.5 1 1.4 0 1.9 -0.4 1.4 -1.2 -0.5 -0.8 -0.2 -0.9 0.9 -0.5 2.3 0.9 2.3 -3 0 -5.5 -1.5 -1.6 -1.5 -1.8 0 -1.8 0.9 0 2.3 1.2 3.1 2.8 0.8 1.5 1.5 2.2 1.6 1.6 0 -1.2 -3.6 -6.2 -5.7 -7.9 -1.4 -1.1 -0.6 -2.8 1.7 -3.9 0.8 -0.3 0.5 -0.4 -0.7 -0.2 -1.6 0.3 -2.3 -0.1 -2.3 -1.1 0 -1 0.6 -1.4 2 -1 1.7 0.4 1.8 0.1 1.4 -2.7 -0.3 -1.7 -0.7 -3.7 -1 -4.3 -0.2 -0.7 0.1 -1.3 0.6 -1.3 0.6 0 0.9 -0.3 0.9 -0.7 -0.1 -0.5 0 -1.2 0.1 -1.8 0.1 -0.5 0.2 -2.3 0.1 -4 -0.1 -1.6 0.6 -3.9 1.4 -5 1.4 -1.7 1.7 -1.8 2.5 -0.5 0.8 1.3 1 1.2 1 -0.4 0 -1.3 -0.5 -1.7 -1.9 -1.3 -1.3 0.3 -2.1 -0.1 -2.4 -1.2 -0.2 -1 -0.8 -0.2 -1.3 1.9 -1.2 4.1 -4.1 4.9 -3.6 1 0.1 -1.4 0.7 -2.7 1.2 -2.8 0.6 -0.2 0.8 -0.8 0.4 -1.3 -0.3 -0.5 0.2 -0.9 1 -0.9 1.1 0 1.6 -1 1.6 -3.3 0 -2.9 0.7 -3.8 5 -6.8 4.6 -3.1 8.8 -8.5 7.5 -9.7 -0.3 -0.3 -0.5 0 -0.5 0.6 0 0.7 -1.5 1.2 -3.5 1.2 -1.9 0 -5.4 0.6 -7.7 1.4 -3.1 1.1 -5.9 1.3 -9.8 0.7 -4.9 -0.7 -5.2 -0.9 -2.8 -1.5 3.4 -1 2.7 -2.6 -1 -2.6 -3 0 -7 1.9 -4.2 2 1.2 0 1.3 0.2 0.1 0.9 -1 0.7 -0.5 1.1 1.8 1.6 1.7 0.3 3.1 1.2 3.1 2 0 3.4 -1.4 7.5 -2.5 7.5 -1.4 0 -2.5 2.1 -2.5 4.8 -0.1 0.9 -1.7 3 -3.8 4.6 l-3.7 2.8 3.3 -0.7 c2.5 -0.5 3.2 -0.3 3.2 0.9 0 0.9 0.4 1.6 0.8 1.6 0.5 0 0.9 1.6 1 3.5 0.1 2.8 -0.2 3.5 -1.7 3.5 -2.2 0 -4.5 2.5 -3.7 3.9 0.8 1.2 -10.4 -2.5 -11.8 -3.9 -0.7 -0.7 -0.6 -1.4 0 -2 0.7 -0.7 1.8 -0.2 3.4 1.5 1.3 1.4 2.8 2.5 3.4 2.5 0.5 0 0 -1 -1.3 -2.1 -1.3 -1.2 -2.1 -2.9 -1.8 -3.9 0.3 -1.2 -0.4 -2.2 -2.2 -3 -2.5 -1.1 -2.5 -1.2 -0.6 -2.6 1 -0.8 1.3 -1.4 0.7 -1.4 -1.4 0 -1.6 -5.6 -0.2 -6.5 0.6 -0.3 1 0.1 1 0.9 0 0.9 0.5 1.6 1 1.6 0.6 0 1 -0.8 1 -1.7 0 -1.4 0.2 -1.5 0.9 -0.4 0.5 0.7 1.4 1 2 0.7 0.6 -0.4 0.8 -1.2 0.5 -1.8 -0.4 -0.6 0.6 -2.1 2.1 -3.4 1.8 -1.5 2.3 -2.4 1.4 -2.4 -0.8 0 -2 0.5 -2.6 1.1 -0.8 0.8 -1.1 0.1 -1.1 -2.5 0 -3.1 0.2 -3.4 1.8 -2.6 2.5 1.3 9.3 1.3 8.5 0 -0.3 -0.5 -2.5 -1 -4.8 -1 -2.8 0 -3.7 -0.3 -2.8 -0.9 0.8 -0.6 0.9 -1 0.2 -1.2 -1.8 -0.6 0.7 -7.9 2.7 -7.9 1.5 0 1.5 0.2 0.2 1 -1.3 0.9 -1.3 1.1 0 2 1.2 0.7 1.7 0.4 2.3 -1.5 0.5 -1.4 1.3 -2.3 1.8 -1.9 0.5 0.3 3 0.2 5.7 -0.2 3.8 -0.6 4.2 -0.9 2.3 -1.4 -1.4 -0.3 -2.6 -1.1 -2.9 -1.9 -0.3 -1 0 -1.1 1.4 -0.3 1.1 0.5 2.8 0.6 3.9 0.1 2.4 -0.9 9.7 -1.1 11.9 -0.3 0.9 0.3 1.6 1.4 1.6 2.4 0 0.9 0.9 2.5 2 3.5 1.6 1.5 2.2 1.5 3.5 0.5 1.9 -1.6 1.9 -3 0 -3 -0.8 0 -1.5 -0.4 -1.5 -1 0 -1.6 3.7 -1.2 5.4 0.6 0.9 0.8 1.3 2.1 0.9 2.7 -0.4 0.7 0.1 0.6 1 -0.2 0.9 -0.7 1.7 -0.9 1.7 -0.3 0 0.5 0.8 0.9 1.7 0.8 1 0 1.8 0.7 1.9 1.7 0.1 1.2 0 1.3 -0.3 0.2 -0.2 -0.8 -0.9 -1.5 -1.4 -1.5 -0.6 0 -0.7 0.5 -0.4 1 0.4 0.6 0.1 1.9 -0.6 2.8 -1.1 1.4 -1.1 1.5 0 0.5 0.7 -0.6 2 -0.9 2.7 -0.6 0.8 0.3 1.4 -0.1 1.4 -1 0 -0.9 0.5 -1.9 1.2 -2.3 0.7 -0.4 0.8 -0.3 0.4 0.4 -0.4 0.7 -0.2 1.2 0.3 1.2 1.6 0 1.3 2.1 -0.6 4.2 -1.3 1.5 -1.4 2.1 -0.4 3.1 0.9 0.9 1.4 0.9 2.1 -0.3 0.5 -0.8 1 -1 1 -0.5 0 2.3 -2 3.7 -5.9 4.2 -2.5 0.4 -4.1 0.2 -4.1 -0.5 0 -0.6 -0.3 -1.8 -0.7 -2.8 -0.5 -1.5 -0.2 -1.6 2.8 -1.1 2.4 0.5 3 0.4 1.9 -0.3 -2 -1.3 -7.7 -1.3 -8.5 0 -0.4 0.6 -1 0.8 -1.5 0.5 -0.4 -0.3 -1.4 0.2 -2.1 1.1 -0.7 0.8 -2.5 2.2 -4 2.9 -3.1 1.6 -5.8 7.5 -3.4 7.5 0.7 0 1.5 1 1.7 2.2 0.2 1.9 0.8 2.2 3.3 2 1.7 -0.2 3.5 -0.8 4.1 -1.3 0.6 -0.5 1.5 -0.4 2.1 0.2 2.1 2.1 2.6 -1.2 0.5 -3.4 -2.4 -2.7 -1.3 -4.1 3.5 -4.4 3.5 -0.2 3.8 0.2 4.7 7.7 0.4 3.2 0.3 3.9 -0.3 2.5 -0.5 -1.1 -1 -3 -1 -4.2 -0.1 -1.2 -0.6 -2.5 -1.2 -2.9 -0.9 -0.5 -1 0.4 -0.6 3.2 0.4 2.1 0.4 3.3 0.1 2.7 -0.6 -1.4 -3.4 -1.8 -3.4 -0.5 0 0.4 0.6 1.4 1.3 2.1 1 1.1 0.9 1.3 -0.5 0.8 -1.2 -0.4 -2.2 0.1 -2.9 1.6 -1.1 1.9 -1 2 0.3 1 1.5 -1.3 2.8 -0.8 2.8 1 0 1 -8.3 0.5 -11.1 -0.7 -1.4 -0.6 -1.8 0.1 -2.1 4.6 -0.2 2.9 0 5.4 0.4 5.6 0.4 0.2 0.8 1.9 0.8 3.8 0 2.8 -0.4 3.4 -2.1 3.4 -1.9 0 -2 0.4 -1.5 4.5 0.3 2.5 0.9 6.5 1.2 9 0.5 4.1 0.4 4.5 -1.5 4.5 -1.2 0 -2.1 0.6 -2.1 1.5 0 1 -1.1 1.5 -3.5 1.5 -1.9 0 -3.5 0.5 -3.5 1 0 1.6 -6.6 1.1 -8 -0.6 -2.2 -2.6 -5.2 -3.8 -6 -2.4 -0.5 0.8 0.3 2.4 2.1 4.1 l3 2.9 -3.5 0 c-3 0 -3.5 -0.3 -3.8 -2.7 l-0.3 -2.8 -3.2 3.3 c-1.7 1.7 -3.8 3.2 -4.7 3.2 -0.9 0 -1.6 0.3 -1.6 0.8 0 0.9 -4.9 3.2 -6.9 3.2 -0.9 0 -4.6 -0.8 -8.3 -1.7 -4.6 -1.2 -7 -2.3 -7.7 -3.8 -0.8 -1.7 -1 -1.5 -1 1.8 l-0.1 3.7 -4.5 0 c-4.5 0 -4.5 0 -4.5 -3.5z m42.6 -50.4 c-0.3 -0.5 0 -0.8 0.7 -0.7 0.6 0 1.4 -0.3 1.5 -0.9 0.2 -0.5 0.8 -1.6 1.4 -2.3 0.8 -1 0.6 -1.1 -0.8 -0.6 -1 0.4 -2.5 1.2 -3.3 1.8 -1.2 0.9 -1.3 0.8 -0.6 -0.3 0.5 -0.9 -0.2 -0.7 -1.7 0.5 -2.6 1.9 -2.6 1.9 -0.5 2.6 3.2 0.9 3.9 0.9 3.3 -0.1z m16.8 -22.2 c-0.4 -0.8 0 -0.9 1.5 -0.4 1.6 0.5 2 0.3 1.5 -0.8 -0.6 -1.6 -6 -3.1 -7.5 -2.1 -1.7 1 -0.9 2.6 1.1 2.1 1.1 -0.3 1.8 -0.1 1.5 0.3 -0.3 0.5 0.1 1.1 0.7 1.3 1.9 0.8 2 0.8 1.2 -0.4z m13 -3.6 c-0.3 -1.2 -1.2 -2.4 -2 -2.7 -1.2 -0.4 -1.1 0 0.2 2.5 1.7 3.4 2.6 3.5 1.8 0.2z"/>
  <path d="M254.6 261.3 c-0.2 -0.2 -1.9 -0.6 -3.8 -0.8 -4.8 -0.4 -8.8 -1.6 -8.8 -2.6 0 -0.5 -0.7 -0.6 -1.5 -0.3 -1.4 0.6 -2 -0.7 -1.5 -3.1 0.1 -0.5 -0.2 -0.7 -0.6 -0.2 -0.4 0.4 -1.9 -0.4 -3.3 -1.7 -1.4 -1.4 -3.9 -2.7 -5.6 -2.9 -1.6 -0.2 -0.7 -0.4 2.2 -0.2 5.6 0.2 6.2 -1.2 1.4 -3.3 -1.6 -0.7 -3.2 -2 -3.5 -2.8 -0.5 -1.2 0.1 -1.5 3.1 -1.2 3.3 0.3 3.8 0.7 5.1 4.6 1.1 3.5 2 4.4 4.3 4.9 1.6 0.3 3.2 1 3.5 1.4 0.3 0.5 1.6 0.9 2.9 0.9 1.3 0 2.7 0.5 3 1 0.3 0.6 2.2 1 4.1 1 1.9 0 4.3 0.5 5.3 1.1 2.2 1.5 7.1 0.4 7.1 -1.6 0 -0.7 0.9 -1.7 2 -2 1.1 -0.3 2 -1 2 -1.5 0 -0.4 -0.9 -1 -2 -1.3 -1.3 -0.3 -2 -1.4 -2 -3.1 0 -2 -0.7 -2.8 -3.2 -3.6 -3.1 -0.9 -3.2 -1 -0.3 -0.4 1.7 0.3 4.1 0.6 5.5 0.7 3 0.2 6.1 2.6 5.3 4 -0.3 0.6 -0.1 0.7 0.6 0.3 0.6 -0.4 0.9 -1.6 0.6 -2.7 -0.8 -2.5 0.6 -2.4 2.8 0.1 1.8 2.2 2.3 4.5 0.7 3.5 -0.6 -0.3 -1.4 0.5 -2 2 -0.5 1.4 -1.7 2.8 -2.6 3.2 -1.5 0.5 -1.4 0.7 0.4 1.4 1.4 0.5 2 1.4 1.6 2.3 -0.4 1.2 -1.1 1.3 -2.4 0.6 -2 -1.1 -4.9 -0.7 -8.2 1.1 -2.2 1.3 -11.2 2.2 -12.2 1.2z"/>
  <path d="M286.4 249.2 c-2.1 -2.5 -4 -5.8 -4.3 -7.2 -0.8 -5 -0.6 -7.3 0.9 -7.8 1.2 -0.4 1.3 -0.3 0.2 1 -1 1.3 -1 1.9 0.3 3.2 1 1 1.3 2.4 0.9 4.1 -0.5 1.9 -0.2 2.5 1 2.5 0.9 0 1.6 0.6 1.4 1.3 -0.2 0.8 1 2.5 2.6 3.9 1.6 1.3 2.5 2.8 1.9 3.1 -0.5 0.3 -2.7 -1.5 -4.9 -4.1z"/>
  <path d="M246 241 c0 -1.1 -0.4 -2 -1 -2 -0.5 0 -1 0.4 -1 0.8 0 0.4 -1.9 0.9 -4.2 0.9 -5.1 0.2 -7.8 -2.1 -7.8 -6.7 0 -2.9 -0.2 -3 -4.5 -3 -3.3 0 -4.5 -0.4 -4.5 -1.5 0 -1.1 -1.1 -1.5 -3.6 -1.5 -2.1 0 -3.3 -0.4 -2.9 -1 0.3 -0.5 -0.3 -1 -1.4 -1 -1.1 0 -2.3 -0.5 -2.6 -1.1 -0.4 -0.6 -1.4 -0.8 -2.2 -0.5 -0.9 0.4 -1.7 -0.1 -2 -1.2 -0.2 -1 -1.5 -1.9 -2.9 -2 -3.4 -0.3 -6.4 -2 -6.4 -3.6 0 -0.7 -1.8 -2.1 -4 -3.1 -2.7 -1.2 -4 -2.4 -3.8 -3.4 0.2 -1 -0.8 -2.1 -2.4 -2.8 -2.7 -1.2 -3.9 -3.3 -1.8 -3.3 0.6 0 1 -0.9 1 -2 0 -1.1 0.4 -2 0.9 -2 0.5 0 1.1 -1.8 1.5 -4 0.3 -2.2 0.8 -4 0.9 -4 0.2 0 3.5 1.1 7.3 2.4 7.4 2.5 14.3 4.2 13.3 3.2 -0.9 -0.9 -20.3 -6.5 -21 -6 -0.4 0.2 -1 -0.5 -1.4 -1.6 -0.4 -1.1 -1.5 -2 -2.6 -2 -2.3 0 -4.9 -2.2 -4.9 -4.2 0 -1.1 -0.2 -1 -0.9 0.1 -1.1 1.7 -6.1 -4.6 -6.1 -7.7 0 -2.8 0.4 -2.8 5.9 0.7 2.5 1.7 8.1 4.6 12.4 6.7 4.3 2 7.6 3.9 7.3 4.1 -0.2 0.3 -1.4 -0.1 -2.6 -0.7 -1.2 -0.6 -2.4 -0.9 -2.7 -0.6 -0.8 0.8 6.6 3.8 8 3.2 0.8 -0.3 0.8 -0.5 -0.1 -0.5 -0.7 -0.1 -1.1 -0.5 -0.8 -1 0.3 -0.5 -0.1 -1.4 -0.9 -2.1 -1.9 -1.6 -1.9 -3 -0.1 -3 0.7 0 1.6 0.9 1.9 2 0.6 2.3 3.7 2.7 3.7 0.5 0 -1.1 1.1 -1.5 4 -1.5 4.1 0 4.3 0.2 5.4 5.3 0.5 1.9 1.3 2.7 2.7 2.7 1.1 0 3 0.5 4.1 1.1 1.7 0.9 1.8 1.3 0.7 2 -1.1 0.8 -1 1.3 0.9 2.9 1.3 1.1 3 1.6 4 1.3 0.9 -0.3 1.4 -0.3 1 0.1 -0.3 0.4 0.3 1.7 1.4 2.8 1.6 1.6 2.4 1.8 4.2 0.9 2.1 -1.1 2.1 -1.1 0 -0.6 -2.4 0.6 -5.2 -1.9 -3.4 -3 0.5 -0.3 1 -0.1 1 0.6 0 0.7 1.1 1 2.9 0.7 1.7 -0.2 2.8 -0.1 2.5 0.4 -0.3 0.4 0.1 0.5 0.9 0.2 0.8 -0.3 1.8 0 2.2 0.5 0.3 0.6 1.1 0.8 1.7 0.5 0.7 -0.5 0.8 -0.2 0.3 0.6 -0.6 1 -0.4 1.2 0.8 0.7 1.9 -0.7 5.2 0.4 8.1 2.7 1.6 1.3 1.7 1.8 0.6 3.1 -0.7 0.8 -0.8 1.5 -0.2 1.5 0.5 0 0.9 1.4 0.8 3 0 1.7 -0.4 3 -0.8 3 -0.5 0 -0.8 0.7 -0.8 1.5 0 0.8 0.7 1.5 1.6 1.5 1.3 0 1.5 0.6 0.9 2.8 -0.4 1.5 -0.7 3.4 -0.6 4.2 0.3 4.3 0.7 5.6 1.9 6.3 0.6 0.4 1.2 2.1 1.2 3.7 0 2.3 -0.5 3 -2 3 -1.1 0 -2 0.5 -2 1 0 0.6 -1.6 1 -3.5 1 -2.8 0 -3.5 -0.4 -3.5 -2z m-18 -18.4 c0 -0.8 0.8 -1.7 1.8 -1.9 0.9 -0.3 0.3 -0.5 -1.5 -0.6 -2.6 -0.1 -3 0.2 -2.6 1.9 0.6 2.3 2.3 2.7 2.3 0.6z m17 -2.6 c0 -1.4 -0.6 -2 -2.2 -1.9 -1.7 0.1 -1.9 0.2 -0.5 0.6 0.9 0.2 1.7 1.1 1.7 1.9 0 0.8 0.2 1.4 0.5 1.4 0.3 0 0.5 -0.9 0.5 -2z m-25 -1 c0 -0.5 -0.6 -1 -1.2 -1.1 -0.7 0 -3.1 -0.2 -5.3 -0.3 l-4 -0.4 4 1.3 c5 1.7 6.5 1.8 6.5 0.5z m19 -1.2 c0 -1.1 -3.2 -1 -4.8 0.1 -0.9 0.5 -0.3 0.8 1.7 0.7 1.7 -0.1 3.1 -0.4 3.1 -0.8z m-11.2 -0.5 c-1 -0.2 -2.8 -0.2 -4 0 -1.3 0.2 -0.5 0.4 1.7 0.4 2.2 0.1 3.2 -0.1 2.3 -0.4z m9.8 -2.5 c0.3 -0.4 -0.8 -0.8 -2.5 -0.8 -1.6 0 -3.3 0.5 -3.6 1 -0.4 0.7 0.6 1 2.5 0.8 1.7 -0.1 3.4 -0.6 3.6 -1z m-23.6 -0.9 c0 -0.5 -1.6 -0.9 -3.6 -0.9 -1.9 0 -3.3 0.3 -3.1 0.8 0.7 1 6.7 1.1 6.7 0.1z m7.5 0.1 c0.4 -0.6 -0.6 -1 -2.2 -1 -2.2 0 -2.5 0.2 -1.3 1 1.9 1.2 2.7 1.2 3.5 0z m28 -1 c-0.2 -1.1 0 -2 0.4 -2 0.4 0 0.8 -0.7 0.8 -1.5 0 -0.9 -0.5 -1.4 -1.1 -1.2 -1.5 0.5 -1.6 6.7 -0.1 6.7 0.2 0 0.2 -0.9 0 -2z m-16 -2.3 c2.2 -0.3 1.7 -0.4 -1.7 -0.6 -2.7 0 -4.8 0.3 -4.8 0.8 0 1.2 2.4 2 3 1 0.3 -0.4 1.9 -0.9 3.5 -1.2z m-27 -2.7 c-4.4 -1.1 -6.7 -1.1 -6 0 0.3 0.6 2.5 0.9 4.8 0.9 4 -0.1 4 -0.2 1.2 -0.9z m23.5 -0.4 c0 -2.2 -1.7 -2.8 -4.1 -1.5 -1.7 0.9 -1.9 1.3 -0.8 2 2.2 1.4 4.9 1.1 4.9 -0.5z m15.9 0.5 c0.9 -0.6 1 -1.1 0.2 -1.5 -1.3 -0.8 -3.1 0.1 -3.1 1.5 0 1.1 1.1 1.1 2.9 0z m-17.1 -4.1 c1.5 0 1.5 -0.2 0.2 -1 -1.9 -1.2 -7 -1.3 -7 -0.1 0 1.2 2.1 2.1 3.8 1.5 0.8 -0.2 2.1 -0.4 3 -0.4z m-11.3 -2 c-1 -1.1 -2.3 -2 -2.8 -2 -0.6 0 -0.2 0.9 0.8 2 1 1.1 2.3 2 2.8 2 0.6 0 0.2 -0.9 -0.8 -2z m1 -2.9 c-0.3 -0.6 0.3 -1.5 1.2 -2.1 1.5 -0.9 1.5 -1 -0.6 -0.4 -1.5 0.4 -2.1 0.2 -1.7 -0.4 0.4 -0.6 -0.2 -0.8 -1.4 -0.5 -2 0.5 -2 0.7 -0.4 2.4 1.7 1.9 4 2.7 2.9 1z"/>
  <path d="M256.2 232 c-1.4 -2.3 -1.6 -6.9 -0.3 -8.9 0.6 -0.8 1.1 0.6 1.6 4.4 0.7 6.3 0.5 7.3 -1.3 4.5z"/>
  <path d="M260.1 221.8 c-0.1 -1.6 0.4 -2.8 0.9 -2.8 1.2 0 1.2 0.8 0 3.5 -0.8 1.8 -0.9 1.7 -0.9 -0.7z"/>
  <path d="M244 200.8 c-1.4 -0.6 -4.1 -1.2 -6 -1.3 -1.9 -0.2 -4 -0.3 -4.7 -0.4 -0.7 -0.1 -1 -0.8 -0.7 -1.6 0.8 -2 7.4 -2.1 7.4 0 0 0.8 1.4 1.7 3.5 2.1 1.9 0.3 3.5 1 3.5 1.5 0 1 0.2 1.1 -3 -0.3z"/>
 </g>
 <g fill="#bda282">
  <path d="M255 341 c0 -0.5 1.8 -1 4 -1 2.2 0 4 0.5 4 1 0 0.6 -1.8 1 -4 1 -2.2 0 -4 -0.4 -4 -1z"/>
  <path d="M184.8 339.3 c-3.2 -0.2 -5.8 -0.8 -5.8 -1.2 0 -1.2 4.5 -2.2 6.2 -1.6 0.8 0.3 2.6 -0.5 4 -1.9 3.2 -2.9 2.8 -6.1 -0.8 -7 -2.1 -0.6 -2.2 -0.9 -1.2 -2.5 1.2 -2 3.1 -2.2 5 -0.3 1.6 1.6 3.5 1.5 4.1 0 0.3 -0.7 0.6 0.1 0.6 1.8 0.1 1.7 0.4 3.4 0.8 3.8 1.4 1.3 1.1 6.6 -0.2 6.6 -0.7 0 -1.5 0.4 -1.7 0.9 -0.4 1.3 -4.4 1.8 -11 1.4z m11.1 -7.7 c1 -1.2 0.8 -1.7 -0.7 -2.5 -1.7 -0.9 -2 -0.7 -2.4 1.4 -0.6 2.8 1.2 3.4 3.1 1.1z"/>
  <path d="M204.9 338.2 c-0.2 -0.6 -1.3 -1.2 -2.4 -1.4 -1.9 -0.3 -3.4 -1.6 -3.5 -2.8 0 -0.3 4.3 -0.5 9.5 -0.5 5.2 0.1 9.5 -0.3 9.5 -0.7 0 -0.4 0.7 -0.8 1.5 -0.8 0.8 0 1.5 0.5 1.5 1.1 0 0.6 0.9 0.8 2 0.4 3.5 -1.1 15 -1.5 15 -0.5 0 0.5 0.7 0.7 1.5 0.4 0.8 -0.4 1.5 -1.2 1.5 -2 0 -0.8 0.5 -1.4 1 -1.4 0.6 0 1 -1.6 1 -3.6 l0 -3.5 3.5 3.8 c3.3 3.6 4.6 6.1 2.5 4.8 -0.6 -0.4 -0.7 0.1 -0.3 1.1 0.4 1 0.8 1.4 1 0.8 0.2 -0.7 10 -0.5 22.1 0.5 0.6 0.1 1.2 0.6 1.2 1.2 0 0.8 -3.1 1 -10.5 0.7 -9.9 -0.4 -10.5 -0.4 -9.9 1.4 0.6 2.2 -1.6 2.4 -4.7 0.6 -1.7 -1 -2.3 -1 -2.6 0 -0.7 1.8 -18 1.6 -21.7 -0.3 -3.2 -1.7 -6.3 -2 -6.8 -0.6 -0.5 1.2 -11.5 2.4 -11.9 1.3z"/>
  <path d="M256 338 c0 -0.6 3.3 -1 8 -1 4.7 0 8 0.4 8 1 0 0.6 -3.3 1 -8 1 -4.7 0 -8 -0.4 -8 -1z"/>
  <path d="M322.8 333.5 c-2.7 -1.5 -4.4 -4.7 -3.3 -6.5 0.3 -0.5 2 -0.7 3.7 -0.3 2.8 0.6 3 0.4 2.3 -1.8 -0.6 -1.9 -0.5 -2.2 0.5 -1.2 0.7 0.6 1.3 2.5 1.4 4.1 0.1 1.7 0.4 2.8 0.9 2.5 0.4 -0.2 0.7 0.7 0.7 2.1 0 3 -2 3.3 -6.2 1.1z"/>
  <path d="M233.6 324.8 c-1.7 -5.4 -1.5 -5.8 2 -5.8 3.2 0 3.4 0.2 3.4 3.5 0 3.1 -0.3 3.5 -2.5 3.5 -1.4 0 -2.7 -0.6 -2.9 -1.2z"/>
  <path d="M314.9 320.9 c-1.6 -1.6 -1.8 -2.3 -0.8 -3.5 0.9 -1.1 0.9 -2 0 -4.1 -0.6 -1.4 -1 -2.6 -0.9 -2.7 0.2 -0.1 1 -0.7 1.9 -1.4 1.4 -1 2.2 -0.5 5.3 3.5 2 2.5 3.6 5 3.6 5.5 0 1.2 -4.3 -3.9 -5.9 -7 -0.7 -1.3 -1.5 -2.1 -1.8 -1.9 -0.3 0.3 0.3 2.1 1.2 3.9 3 5.7 3.2 6.3 2.6 7.8 -0.9 2.3 -2.9 2.2 -5.2 -0.1z"/>
  <path d="M189.3 320.3 c0.8 -1 1.8 -3.5 2.2 -5.5 0.4 -2.1 1 -3.8 1.4 -3.8 0.4 0 0.5 -1.6 0.3 -3.5 -0.4 -3.4 -0.4 -3.5 2.7 -2.9 2.4 0.5 3.1 0.3 3.1 -1 0 -0.9 0.5 -1.6 1.1 -1.6 0.5 0 0.9 -0.8 0.7 -1.7 -0.1 -1 0.1 -2.4 0.5 -3 0.5 -0.7 0.4 -1.3 -0.2 -1.3 -0.5 0 -1.3 0.5 -1.6 1 -0.3 0.6 -1.3 1 -2.2 1 -0.9 0 -0.2 -1 1.8 -2.3 5.3 -3.6 7.3 -13.3 4.4 -20.9 -0.5 -1.3 -0.2 -1.8 0.9 -1.8 2.2 0 3.6 4.1 2.9 8.4 l-0.6 3.6 3.3 -1.1 c1.8 -0.7 2.7 -1.5 2.1 -1.8 -0.8 -0.5 -0.7 -1.3 0.2 -2.5 1.7 -2.3 5.2 -1.4 5.4 1.4 0.2 2.7 2.7 5 4.3 4 0.7 -0.4 0.9 -1.3 0.5 -2 -0.5 -0.9 -0.4 -1.1 0.3 -0.6 0.7 0.4 1.2 0 1.3 -1.1 0.4 -5.9 2.4 -9.3 5.6 -9.3 2.4 0 2.5 -0.1 0.9 -1.3 -1.9 -1.4 -2.1 -3.6 -0.9 -8.7 1.1 -4.2 2.8 -4.2 2.7 0 -0.1 2.5 0.3 3.1 2.5 3.7 1.4 0.3 3.2 1.5 3.9 2.5 0.7 1 2.2 1.8 3.2 1.8 1 0 2.1 0.9 2.5 1.9 0.4 1.3 1.2 1.8 2.2 1.4 0.8 -0.3 1.8 -0.2 2.2 0.4 0.3 0.5 2.2 1.4 4.1 1.9 2.9 0.8 4.2 0.6 7.5 -1.1 2.2 -1.1 5.2 -3.3 6.7 -4.8 1.5 -1.5 3.7 -2.7 4.9 -2.7 l2.2 0 -2.2 -1.9 c-1.3 -1.1 -2.8 -2.2 -3.4 -2.4 -0.7 -0.2 -0.8 -0.8 -0.4 -1.3 0.4 -0.4 2.1 0 3.6 0.9 1.6 0.9 3.4 1.7 4 1.7 0.6 0 2 0.9 3.1 2 1.2 1.2 2.5 1.8 2.9 1.5 0.5 -0.2 1.4 0.1 2 0.9 1.9 2.3 -1.4 2.8 -3.5 0.5 -0.9 -1 -2.3 -1.9 -3 -1.9 -2.1 0 -2.1 2.4 0 4.6 3.6 3.5 6.9 5 12.1 5.3 6.5 0.4 7.1 0.8 4.4 3.7 -1.9 2.1 -2 2.4 -0.5 3 2.1 0.8 2 2.2 -0.2 4.2 -1 1 -1.1 1.3 -0.3 0.7 1 -0.7 1.6 -0.6 1.8 0.3 0.3 0.6 1.1 1.2 1.9 1.2 0.8 0 1.4 1 1.4 2.5 0 3 -0.9 3.1 -4.1 0.8 -1.3 -1 -3.3 -2.3 -4.4 -3 -1.1 -0.6 -1.9 -1.6 -1.7 -2.3 0.1 -0.6 -0.2 -0.9 -0.7 -0.6 -0.5 0.4 -1.2 0.2 -1.6 -0.4 -0.3 -0.5 -1.5 -1 -2.6 -1 -1 0 -1.9 -0.7 -1.9 -1.5 0 -0.8 -0.9 -1.5 -2 -1.5 -1.1 0 -2 -0.7 -2 -1.5 0 -0.7 -0.6 -1.8 -1.3 -2.2 -0.7 -0.4 -2 -1.8 -2.9 -3.1 l-1.6 -2.3 -3.8 3.7 -3.9 3.6 -8.7 -0.5 c-7 -0.4 -8.8 -0.2 -8.8 0.9 0 1.7 -0.5 1.7 -3 0.4 -1.4 -0.8 -1.9 -0.5 -2.4 1.3 l-0.7 2.2 -0.9 -2.2 c-0.5 -1.3 -1.5 -2.3 -2.3 -2.3 -1.8 0 -6.7 2.3 -6.7 3.3 0 0.4 -1 0.7 -2.1 0.7 -2.1 0 -2.1 -0.1 -0.4 -2.6 0.9 -1.4 1.4 -2.8 1.2 -3.1 -1.2 -1.1 -3 4.5 -2.8 8.5 0.1 2.4 -0.3 4.2 -0.9 4.2 -0.5 0 -1 1.4 -1 3 0 2 -0.5 3 -1.5 3 -0.8 0 -1.5 -0.6 -1.5 -1.4 0 -3.2 -2.3 -2.6 -6.9 1.7 -2.6 2.5 -6.1 4.8 -7.8 5.1 -4.9 1.1 -8.2 5.4 -9.5 12.4 -0.6 3.4 -1.5 5.9 -1.8 5.7 -0.4 -0.3 -0.3 -2.8 0.2 -5.6 0.5 -2.8 0.7 -5.4 0.4 -5.7 -0.3 -0.3 -0.6 0.2 -0.6 1.2 0 0.9 -0.4 1.5 -0.9 1.2 -0.4 -0.3 -0.6 0.6 -0.3 1.9 0.2 1.4 0 2.5 -0.6 2.5 -0.6 0 -0.8 1 -0.4 2.2 0.3 1.4 0.1 1.9 -0.6 1.4 -0.6 -0.3 -1.3 -0.2 -1.7 0.4 -0.3 0.5 -1.1 1 -1.7 1 -0.6 0 -0.4 -0.8 0.5 -1.7z m17.8 -24.4 c2.4 -1.7 2.8 -2.4 1.8 -3.5 -0.8 -1 -1.5 -1.1 -2.4 -0.4 -0.9 0.8 -1.4 0.7 -1.7 -0.2 -0.3 -0.8 -0.7 -0.6 -1.1 0.6 -0.4 1 -0.3 1.5 0.3 1.1 1.3 -0.8 1.3 0.1 0 2.6 -1.4 2.5 -0.5 2.4 3.1 -0.2z"/>
  <path d="M327 309 c0 -1.1 -0.4 -2 -1 -2 -0.5 0 -1 -1.2 -1 -2.6 0 -1.4 0.4 -2.3 1 -1.9 0.6 0.3 1 0.2 1 -0.4 0 -0.6 0.7 -0.8 1.5 -0.5 0.8 0.3 2.2 -0.1 3 -1 1.5 -1.4 1.5 -1.6 0.1 -1.6 -0.9 0 -1.6 0.5 -1.6 1.1 0 0.5 -0.5 0.7 -1.1 0.4 -0.6 -0.5 -0.4 -1.2 0.7 -2 1.7 -1.2 1.6 -1.3 -0.3 -2.3 -1.1 -0.6 -2.3 -0.9 -2.6 -0.5 -0.4 0.3 -0.5 -0.8 -0.3 -2.5 0.3 -1.6 -0.2 -4.2 -1 -5.7 -0.8 -1.5 -1.4 -3.4 -1.4 -4.2 0 -2.3 2.4 0 5.5 5.3 1.4 2.4 3.2 4.4 4 4.4 2.2 0 1.9 -0.8 -2.5 -5.7 -2.2 -2.5 -4 -5 -4 -5.5 0 -0.5 2.1 1.7 4.6 4.8 l4.6 5.6 -1.8 7.2 c-1.6 6.5 -4.5 11.6 -6.6 11.6 -0.4 0 -0.8 -0.9 -0.8 -2z"/>
  <path d="M183.1 308.1 c2.3 -1.9 2.3 -2.1 0.7 -3.7 -1.7 -1.8 -1.8 -1.7 -1.8 0.4 0 1.1 -0.9 2.6 -1.9 3.2 -2.7 1.4 -2.9 1.3 -2.3 -1.5 0.3 -2 0.1 -2.4 -1.1 -1.9 -1.5 0.5 -3.5 -0.7 -8.7 -5.7 -4.8 -4.5 -5.1 -19.7 -0.3 -15.8 1.1 1 1.1 1.5 -0.4 3.1 -1.7 1.9 -1.7 1.9 1 0.7 2.1 -1 3 -1 3.9 -0.1 0.7 0.7 2 1.2 3 1.2 1 0 3 0.7 4.3 1.6 2.3 1.5 2.8 1.5 6.2 0.1 l3.8 -1.6 -4.5 0.3 c-6.8 0.4 -20.4 -7.3 -18.5 -10.4 0.6 -0.9 1 -0.8 1.7 0.4 0.5 0.9 1.7 1.6 2.6 1.6 0.9 0 3.4 0.6 5.4 1.3 2.7 1 3.5 1.6 2.8 2.7 -1.2 1.9 -0.3 3 2.3 2.9 2.1 0 2.1 -0.1 0.2 -0.9 -1.1 -0.5 -1.4 -0.9 -0.6 -0.9 0.9 -0.1 1.1 -0.7 0.6 -1.8 -0.4 -1 -0.8 -3 -1 -4.5 -0.1 -1.8 -2.1 -4.8 -5.3 -8.2 -4.8 -5.1 -5.2 -5.8 -5.2 -10.4 0 -3.4 0.5 -5.4 1.7 -6.3 0.9 -0.8 1.4 -0.9 1 -0.2 -0.8 1.3 0.1 4.3 1.3 4.3 0.5 0 0.7 -1 0.5 -2.2 -0.3 -1.2 0.3 -3 1.2 -4 1.8 -2 0.5 -2.5 -1.7 -0.5 -0.8 0.6 -0.6 0.2 0.4 -1 1.1 -1.3 2.3 -2.3 2.7 -2.3 0.9 0 0.6 2.6 -0.4 3.6 -1 1.1 -0.8 4.4 0.3 4.4 0.5 0 0.7 0.6 0.4 1.4 -0.3 0.8 -0.1 1.7 0.5 2.1 0.6 0.3 1.4 -0.1 1.7 -0.9 0.7 -1.9 2.4 -2.1 2.4 -0.3 -0.1 0.6 -0.9 3 -1.9 5.1 -2.3 4.7 -1.2 9.6 2.1 9.6 1 0 1.7 0.4 1.4 0.9 -0.7 1.1 1.4 2.8 3.2 2.5 0.6 -0.1 1.7 -0.2 2.3 -0.3 0.6 0 -0.3 -1.2 -1.9 -2.5 -2.3 -2 -2.8 -3.1 -2.4 -5.5 0.2 -1.7 0.9 -3.1 1.4 -3.1 0.6 0 0.7 -0.7 0.4 -1.6 -0.7 -1.8 1.9 -4.3 4.4 -4.4 0.8 0 2.1 -0.4 2.9 -0.9 2.4 -1.5 -1.3 -4.4 -4.9 -3.9 -1.6 0.2 -2.7 0.1 -2.4 -0.4 0.3 -0.4 2.5 -0.8 5 -0.8 2.8 0 4.3 -0.4 3.9 -1 -0.3 -0.5 -1.6 -1 -2.8 -1 -1.7 0 -1.9 -0.2 -0.8 -0.9 0.9 -0.6 2.9 -0.4 5.4 0.5 3 1.1 4.3 1.1 5.3 0.3 0.8 -0.6 1.4 -0.7 1.4 -0.2 0 1.3 6.8 3.6 8.1 2.7 0.7 -0.4 1 -0.1 0.7 0.7 -0.3 0.9 -2.2 1.5 -5.1 1.7 -4.2 0.3 -4.7 0.6 -4.7 2.6 0 1.3 -0.7 2.9 -1.5 3.6 -1.2 1 -1.5 1 -1.5 -0.3 0 -0.9 -1.3 -1.8 -3.1 -2.2 -3.6 -0.8 -3.7 -0.7 -4.5 3.1 -0.4 2.3 0 3.7 1.9 6 3 3.6 4.1 7.4 2.1 7.4 -0.9 0 -1.4 1.1 -1.4 2.9 0 3.2 -1.5 5 -2.3 2.9 -0.3 -0.7 -0.3 0.1 0 1.9 0.3 1.8 0.2 4.4 -0.1 5.8 -0.6 2.4 -0.9 2.5 -8.2 2.5 -6.5 0 -7.5 0.2 -7 1.6 0.3 0.9 0.6 2 0.6 2.5 0 0.5 1.8 2 4 3.4 3.2 2 4 3.1 4 5.5 0 1.9 -0.7 3.3 -1.9 4 -3.1 1.6 -3.5 1.2 -1 -0.9z m-11.9 -12.6 c-0.1 -1.8 0.3 -3.7 0.9 -4 0.8 -0.6 0.7 -1 -0.2 -1.6 -0.8 -0.4 -1.9 -0.3 -2.6 0.3 -1.5 1.2 -1.8 5.8 -0.3 5.8 0.6 0 1 1 1 2.2 0 1.2 0.3 1.8 0.7 1.4 0.4 -0.4 0.6 -2.2 0.5 -4.1z m5.8 -12 c-0.7 -0.8 -1.7 -1.5 -2.2 -1.5 -0.6 0 -0.5 0.7 0.2 1.5 0.7 0.8 1.7 1.5 2.2 1.5 0.6 0 0.5 -0.7 -0.2 -1.5z m-5.3 -25.2 c-0.3 -1 -0.5 -0.2 -0.5 1.7 0 1.9 0.2 2.7 0.5 1.8 0.2 -1 0.2 -2.6 0 -3.5z"/>
  <path d="M195.7 301.6 c-0.4 -0.9 0.2 -1.6 1.6 -2 2.9 -0.7 3.1 -0.3 0.8 1.8 -1.6 1.4 -1.9 1.5 -2.4 0.2z"/>
  <path d="M301.9 298.3 c-2.4 -2.4 -2.8 -3.3 -1.6 -3.3 1.3 0 1.5 -0.8 1 -5 -0.7 -6.2 0.8 -6.6 3.6 -1.1 1.1 2.1 3.3 4.9 4.9 6.2 4.4 3.7 5.1 5.7 0.8 2.5 -3.6 -2.7 -3.7 -2.7 -2.4 -0.5 0.7 1.3 1.7 2.7 2.2 3 0.4 0.4 -0.5 0.8 -2.2 1.1 -2.3 0.3 -3.6 -0.3 -6.3 -2.9z"/>
  <path d="M265 285.5 c0 -2.3 0.3 -2.5 5 -2.5 4.2 0 5 0.3 5 1.9 0 2 -2.5 3.1 -7.2 3.1 -2.3 0 -2.8 -0.4 -2.8 -2.5z"/>
  <path d="M308 280 c0 -0.6 1.2 -1.5 2.8 -2.1 1.5 -0.6 3.6 -1.6 4.6 -2.1 1.4 -0.7 2.1 -0.6 2.7 0.4 1 1.9 5.4 1.6 5.4 -0.3 0 -0.8 -1.6 -1.9 -3.5 -2.6 -2.2 -0.8 -2.8 -1.2 -1.5 -1.2 2.7 -0.1 6.1 2.3 6.8 4.8 0.3 1.3 0 2 -1.2 2 -0.9 0 -3.8 0.5 -6.6 1 -6.6 1.3 -9.5 1.3 -9.5 0.1z"/>
  <path d="M294.6 274.4 c-0.3 -0.7 -2.1 -1.6 -4 -2 -2 -0.3 -3.6 -1.1 -3.6 -1.7 0 -0.6 -1 -2.1 -2.2 -3.4 -1.8 -2 -2 -2.6 -0.9 -3.3 2.2 -1.3 4.1 0 4.1 2.6 0 2.2 0.3 2.4 2.8 1.8 1.5 -0.4 2.9 -1.1 3 -1.6 0.2 -0.4 0.8 -0.6 1.3 -0.2 0.5 0.3 0.9 -0.2 0.9 -1 0 -0.9 0.7 -1.6 1.6 -1.6 1 0 1.4 -0.6 1 -1.5 -0.4 -1.1 0.1 -1.5 1.9 -1.5 1.4 0 2.5 0.5 2.5 1 0 0.6 0.9 1 2 1 1.6 0 2 0.7 2 3.5 0 2.4 -0.5 3.5 -1.5 3.5 -0.8 0 -1.5 0.9 -1.5 2 0 1.1 -0.3 2 -0.7 2 -0.5 0 -2.5 0.4 -4.5 0.9 -2.8 0.6 -3.8 0.5 -4.2 -0.5z"/>
  <path d="M258.5 260.6 c-1.5 -1 -2.3 -1.1 -3.7 -0.2 -1.2 0.7 -2.1 0.8 -2.6 0.1 -1.1 -1.6 -5 -3.5 -7.1 -3.5 -1.1 0 -2.2 -0.4 -2.6 -0.9 -0.3 -0.5 -1.8 -1.2 -3.4 -1.6 -3.1 -0.7 -4.9 -3.4 -3.1 -4.5 0.8 -0.5 0.6 -1.2 -0.5 -2.4 -1.5 -1.5 -1.4 -1.6 1.4 -1.6 2.6 0 3.1 -0.4 3.1 -2.5 0 -1.4 0.6 -2.5 1.3 -2.5 0.8 0 0.7 -0.4 -0.3 -1 -1.3 -0.8 -1.2 -1 0.3 -1 1.1 0 1.7 -0.8 1.7 -2.5 0 -1.4 0.6 -2.5 1.3 -2.5 0.8 0 0.7 -0.4 -0.3 -1 -0.8 -0.5 -1 -1 -0.4 -1 1.6 0 0.4 -5.2 -1.5 -6.7 -2.1 -1.6 -3.4 -1.6 -2.4 0 1.1 1.8 1.2 3.7 0.2 3.7 -0.5 0 -0.9 0.6 -0.9 1.4 0 0.8 -0.6 1.4 -1.2 1.3 -0.7 0 -2.7 0.1 -4.4 0.1 l-3.2 0.2 0.4 6.8 c0.2 3.7 0.1 6.1 -0.2 5.5 -0.3 -0.7 -1.2 -1.3 -1.9 -1.3 -1.4 0 -5.1 -5 -3.8 -5.1 0.5 0 -0.3 -0.5 -1.6 -1 -1.4 -0.5 -2.1 -1.5 -1.8 -2.3 0.3 -0.8 -0.1 -1.7 -0.9 -2 -0.8 -0.3 -1.4 -1.2 -1.4 -2 0 -0.7 -1 -1.6 -2.2 -2 -1.8 -0.5 -2 -0.8 -0.9 -1.5 1 -0.6 0.1 -1.1 -2.9 -1.6 -2.9 -0.5 -4.4 -1.3 -4.7 -2.6 -0.4 -1.3 -1.4 -1.9 -3.4 -1.9 -3.5 0 -4.8 -1.8 -1.7 -2.4 3.9 -0.7 6.8 -0.2 6.8 1.2 0 1.1 1 1.3 4.8 0.7 2.6 -0.4 4.9 -0.8 5.1 -1 0.7 -0.7 -1.1 -2.5 -2.5 -2.5 -1.5 0 -1.9 -1.6 -0.6 -2.4 0.5 -0.3 2.6 -0.1 4.7 0.5 4.3 1.2 7.5 -0.4 3.4 -1.6 -1.3 -0.4 -2.6 -1 -2.9 -1.4 -0.8 -0.9 -7 -4.1 -7 -3.5 0 0.2 1.5 1.3 3.3 2.4 3.1 1.9 3.1 2 0.7 2.1 -6.1 0.2 -11.6 -0.3 -12.5 -1.3 -0.7 -0.7 -0.3 -0.9 1.3 -0.5 1.2 0.3 2.2 0.1 2.2 -0.4 0 -0.5 1 -0.9 2.3 -0.9 1.8 0 1.9 -0.2 0.7 -1 -0.8 -0.5 -2.8 -1 -4.3 -1 -1.6 0 -5.3 -0.7 -8.3 -1.6 -3 -0.8 -6 -1.3 -6.7 -1.1 -0.7 0.3 -0.5 0.6 0.5 0.6 0.9 0.1 1.9 1 2.3 2 0.3 1.2 1.2 1.8 2 1.5 0.8 -0.3 2.4 0.2 3.7 1.1 2.3 1.6 2.2 1.7 -2.2 1.1 -2.5 -0.3 -3.8 -0.3 -3 0 0.8 0.3 2.9 1.2 4.7 2 1.7 0.8 4.3 1.4 5.7 1.4 4.5 0 2.8 1.6 -1.9 1.9 -5.3 0.2 -14.5 -3.5 -14.5 -5.9 0 -1.2 0.2 -1.2 0.9 -0.1 0.5 0.8 1.1 0.9 1.5 0.3 0.3 -0.5 -0.9 -1.5 -2.7 -2.2 -4.9 -2 -7.9 -5 -6.6 -6.7 0.7 -0.8 0.7 -1.3 0.2 -1.3 -1.3 0 -6.3 -5 -6.3 -6.3 0 -0.5 0.9 -0.7 2 -0.4 1.6 0.4 1.3 -0.3 -1.5 -3.6 -5.8 -6.7 -5 -7.2 3.9 -2.2 3.5 1.9 6.7 3.5 7.2 3.5 0.5 0 -1.4 -1.3 -4.2 -3 -6.3 -3.6 -11.9 -10.6 -10.2 -12.8 1 -1.2 1.4 -1.1 2.5 0.5 0.8 1 1.7 1.8 2.1 1.8 0.4 0 0.6 0.2 0.5 0.6 -0.1 0.3 0.8 1.1 2 1.9 2.1 1.2 2.1 1.2 0.7 -0.5 -1.4 -1.7 -1.4 -1.8 0.8 -0.6 1.2 0.7 2 1.6 1.7 2.2 -1 1.5 2.3 4.1 4.7 3.7 2.2 -0.3 2.1 -0.4 -0.7 -2 -3.8 -2.2 -2.4 -2.3 1.7 -0.2 2.2 1.1 2.7 1.8 1.8 2.4 -1.8 1.1 -0.5 4 1.8 4 1 0 2.7 0.8 3.8 1.8 1.1 1 2.5 1.7 3.3 1.4 0.7 -0.2 1.6 0 2 0.6 0.8 1.4 8.4 2.2 10.2 1.2 0.9 -0.6 0.5 -1.1 -1.5 -1.6 -3.7 -0.9 -1.5 -2.4 3.7 -2.4 3.3 0 3.7 0.3 3.7 2.5 0 1.5 -0.5 2.5 -1.2 2.4 -5.5 -0.7 -6.2 1.2 -1.4 3.5 3.7 1.8 6 2.1 3.6 0.6 -1.1 -0.7 -1.1 -1 -0.2 -1 0.7 0 1 -0.4 0.7 -1 -1.1 -1.8 1.2 -1 3 1 1.2 1.3 2.5 1.8 3.8 1.4 1.2 -0.4 1.7 -0.2 1.3 0.4 -0.3 0.5 0.1 1.2 0.9 1.6 1 0.3 1.5 -0.1 1.5 -1.2 0 -1.4 0.2 -1.4 0.9 -0.3 0.5 0.8 1.9 1.2 3.5 0.9 1.6 -0.3 2.3 -0.1 1.9 0.5 -0.4 0.6 0 0.8 0.9 0.4 2 -0.7 3.8 1.1 3.8 3.7 0.1 2.6 2.9 7.8 3 5.6 0.1 -0.8 0.3 -2.3 0.5 -3.2 0.2 -1 -0.4 -2.2 -1.2 -2.7 -2.3 -1.3 0.1 -2.3 2.9 -1.2 1.2 0.6 1.8 1 1.2 1 -0.6 0.1 -1 1.1 -0.9 2.4 0.1 1.2 -0.1 2.7 -0.5 3.2 -0.8 1.2 -0.7 10.1 0.1 11 0.3 0.3 0.5 -1.3 0.4 -3.5 -0.1 -3.2 0.1 -4 1.2 -3.6 0.9 0.4 1.1 0.2 0.6 -0.7 -1.1 -1.8 -1.3 -3.7 -0.3 -3.7 0.5 0 0.7 -0.9 0.5 -2.1 -0.3 -1.5 0 -1.9 1.1 -1.5 0.9 0.3 2.2 0.6 3 0.6 0.9 0 1.4 1.1 1.4 3.4 0 1.9 0.4 3.7 0.9 4.1 1.4 0.8 0.6 4 -1.7 7.3 -1.1 1.5 -2 3 -2.1 3.5 -0.1 0.4 -0.1 1 -0.2 1.5 -0.1 0.4 -0.5 -0.4 -0.9 -1.8 l-0.8 -2.5 -0.1 2.8 c-0.1 1.8 0.4 2.7 1.4 2.7 0.8 0 1.5 0.5 1.5 1 0 0.6 -0.4 1 -1 1 -2 0 -0.9 1.9 1.8 3.2 1.5 0.7 2.7 1.8 2.7 2.3 0 1.4 5.4 6.5 6.8 6.5 0.7 0 3 1.2 5.1 2.6 2.1 1.5 3.5 2 3.1 1.3 -0.5 -0.8 0 -0.6 1.2 0.4 1.1 0.9 2.2 1.7 2.6 1.7 0.3 0 0.8 -0.8 1 -1.7 0.3 -1 0.5 -0.3 0.6 1.5 0.1 2.6 -0.6 4.1 -2.9 6.2 -1.7 1.6 -3.3 2.9 -3.6 2.9 -0.2 0 -1.7 0.7 -3.2 1.4 -4.5 2.3 -7.7 2.8 -9.7 1.3z m7.5 -5.6 c0 -1.1 0.5 -2 1 -2 0.6 0 1 -1.3 1 -3 0 -2.5 -0.4 -3 -2.5 -3 -3.4 0 -11.8 -2.2 -13.1 -3.5 -0.5 -0.5 -1.3 -1.8 -1.7 -2.7 -0.3 -1 -1.2 -1.8 -1.9 -1.8 -0.9 0 -0.8 0.3 0.2 1 1.3 0.8 1.2 1 -0.2 1 -1.2 0 -1.8 0.8 -1.8 2.5 0 2.1 -0.5 2.5 -3 2.5 -1.6 0 -3 0.5 -3 1 0 0.6 0.5 1 1 1 0.6 0 1 0.6 1 1.3 0 1.6 7.3 4.5 14.5 5.7 3.2 0.5 6 1.2 6.3 1.5 1.1 1.1 2.2 0.4 2.2 -1.5z m-28.4 -26.9 c-0.6 -0.9 -5.6 -2.2 -5.6 -1.4 0 0.4 4 2.1 5.3 2.2 0.5 0.1 0.6 -0.3 0.3 -0.8z m-0.7 -3.5 c-0.2 -0.2 -1.7 -0.6 -3.4 -1 -2.2 -0.5 -2.6 -0.4 -1.5 0.4 1.4 0.9 5.9 1.5 4.9 0.6z m-14.2 -3 c0.8 -0.8 -1.6 -0.8 -5.6 0 -1.7 0.4 -2.9 1 -2.6 1.4 0.5 0.8 7.2 -0.4 8.2 -1.4z m29.8 -1.6 c-0.3 -0.4 0.1 -1.1 0.7 -1.3 0.8 -0.3 0.6 -0.6 -0.4 -0.6 -1.2 -0.1 -1.8 0.6 -1.8 2 0 1.1 0.5 1.7 1 1.4 0.6 -0.4 0.8 -1 0.5 -1.5z m-22.7 0.3 c-1 -0.2 -2.6 -0.2 -3.5 0 -1 0.3 -0.2 0.5 1.7 0.5 1.9 0 2.7 -0.2 1.8 -0.5z m6.2 -1.4 c0 -0.6 0.7 -0.9 1.5 -0.5 0.8 0.3 1.5 0.1 1.5 -0.4 0 -1.1 -2.1 -1.3 -4.4 -0.4 -0.9 0.3 -1.3 1 -1 1.5 0.7 1.3 2.4 1.1 2.4 -0.2z m-7.7 -1.6 c-1.3 -0.2 -3.3 -0.2 -4.5 0 -1.3 0.2 -0.3 0.4 2.2 0.4 2.5 0 3.5 -0.2 2.3 -0.4z m10.3 -2.5 c0.3 -0.4 -1.3 -0.8 -3.5 -0.8 -2.3 0 -4.1 0.4 -4.1 1 0 1.1 6.9 1 7.6 -0.2z m-4.2 -3.3 c1.8 -1.4 1.6 -1.5 -2.7 -1.5 -4.4 0 -6.2 1.2 -3.4 2.3 2.2 0.9 4.2 0.7 6.1 -0.8z m5.3 -1.1 c-0.3 -0.4 -0.2 -1.4 0.3 -2.4 0.8 -1.4 0.5 -1.6 -1.5 -1.2 -2.1 0.3 -2.2 0.7 -1.2 2.3 0.6 1 1.6 1.9 2.1 1.9 0.5 0 0.6 -0.3 0.3 -0.6z m-19.3 -2.7 c-1.2 -0.6 -3.1 -1.8 -4.3 -2.5 -1.1 -0.7 -2.1 -0.9 -2.1 -0.5 0 1.1 5.2 4.2 7 4.3 1 0 0.8 -0.5 -0.6 -1.3z m10.5 -0.1 c0.9 -1.1 0.7 -1.5 -1.1 -2 -1.4 -0.5 -1.8 -0.9 -1 -1.3 2.2 -0.9 0.2 -2.3 -3.4 -2.3 -3.8 0 -4.6 1.5 -1.3 2.5 1.7 0.6 1.9 0.9 0.8 1.6 -1.2 0.8 -1.2 1.1 0.1 1.9 2.1 1.4 4.6 1.2 5.9 -0.4z m-17.9 -2.1 c0 -0.8 -1.7 -1.9 -4.2 -2.5 -2.4 -0.6 -5.9 -1.5 -7.8 -2.1 -1.9 -0.5 -4.2 -0.9 -5 -0.9 -3.1 0 2.6 2.8 8.3 4 3.1 0.7 5.7 1.7 5.7 2.2 0 0.4 0.7 0.8 1.5 0.8 0.8 0 1.5 -0.7 1.5 -1.5z m21.8 -2.3 c-2.5 -0.5 -3.7 0.6 -1.9 1.8 0.8 0.5 1.9 0.3 2.6 -0.3 1 -1 0.9 -1.3 -0.7 -1.5z m-17.3 -1.2 c-1 -1.1 -2.3 -2 -2.8 -2 -0.6 0 -0.2 0.9 0.8 2 1 1.1 2.3 2 2.8 2 0.6 0 0.2 -0.9 -0.8 -2z m-5.5 -1.9 c0 -1.1 -0.8 -2.2 -1.7 -2.5 -9.6 -2.7 -16.8 -4.9 -18 -5.3 -0.8 -0.3 0 0.9 1.8 2.7 2.1 2.1 4.4 3.3 6.7 3.5 1.9 0.2 3.8 0.8 4.1 1.3 0.5 0.9 1.5 1.2 6.4 2.1 0.4 0 0.7 -0.8 0.7 -1.8z"/>
  <path d="M296.2 258.7 c-1.3 -1.5 -0.7 -13.8 0.7 -14.7 0.5 -0.3 0.8 -2 0.7 -3.8 -0.1 -1.7 0.1 -3.2 0.6 -3.2 0.4 0 0.8 -0.9 0.8 -2 0 -1.1 -0.7 -2 -1.5 -2 -1.2 0 -1.3 -0.4 -0.6 -1.8 0.6 -1 0.7 -2.9 0.4 -4.1 -0.5 -1.8 -0.7 -1.9 -1.7 -0.6 -0.8 1 -1.5 1.2 -2.6 0.5 -0.8 -0.5 -1 -1 -0.3 -1 0.6 0 0.9 -0.9 0.6 -2 -0.7 -2.7 2.2 -7 4.8 -7 1.8 0 1.9 0.4 1.3 3.6 -0.4 2.4 -0.3 3.5 0.4 3.1 0.5 -0.4 1.7 0.4 2.6 1.8 2.1 3.2 6.1 3.4 6.9 0.3 0.5 -1.8 0.8 -1.9 2.1 -0.8 0.9 0.7 1.6 0.9 1.6 0.4 0 -0.4 1.3 1 2.8 3.1 1.6 2.1 2.8 4.7 2.7 5.9 -0.2 1.6 0.3 2.1 2.3 2.3 l2.7 0.1 -2.4 -1.2 c-2.3 -1.3 -2.3 -1.3 -0.2 -1.9 2.9 -0.7 3.9 3.2 1.6 6.7 -2.8 4.3 -9.5 3.1 -9.5 -1.6 0 -1 -0.7 -2.1 -1.5 -2.4 -0.8 -0.4 -1.3 -0.9 -1.1 -1.3 0.3 -0.4 0.1 -1.3 -0.5 -2.1 -0.6 -1.1 -0.9 -1.2 -0.9 -0.2 0 1 -0.5 1 -2.2 -0.2 -4.7 -3.3 -5.1 -2.5 -4.3 8.9 0.6 9.2 0.5 10.5 -0.9 10.5 -1.2 0 -1.6 1 -1.6 4 0 4.2 -1.7 5.3 -3.8 2.7z m20.3 -26 c-0.9 -3.4 -2.5 -4.6 -5 -3.6 -1.1 0.4 -1.4 0.8 -0.7 0.8 0.8 0.1 1 0.6 0.6 1.4 -0.6 0.8 -0.3 0.8 0.9 -0.2 1.5 -1.2 1.8 -1 2.7 1.4 0.6 1.5 0.7 3.2 0.4 3.8 -0.5 0.9 -0.4 0.9 0.5 0.1 0.7 -0.7 0.9 -2.2 0.6 -3.7z"/>
  <path d="M207.4 250.9 c-1 -1.2 -3.5 -2.9 -5.4 -4 -1.9 -1 -2.8 -1.8 -2 -1.9 1.3 0 1.3 -0.1 0 -1 -1 -0.6 -1.1 -1 -0.3 -1 0.7 0 3.5 2.3 6.3 5 2.8 2.8 4.6 5 4.2 5 -0.5 0 -1.7 -0.9 -2.8 -2.1z"/>
  <path d="M179 246.6 c0 -1.3 2 -3.6 3.1 -3.6 0.4 0 0.7 0.9 0.6 1.9 -0.1 2.1 -3.7 3.7 -3.7 1.7z"/>
  <path d="M189.5 243 c-1.4 -0.6 -0.4 -0.9 3.5 -0.8 4.2 0 4.9 0.2 3 0.8 -3.2 1 -4.1 1 -6.5 0z"/>
  <path d="M265.4 240.5 c-1.8 -0.8 -4.8 -3.3 -6.8 -5.6 -4.2 -4.9 -4.7 -9.3 -1.6 -13 l1.9 -2.4 0.1 2.7 c0 1.4 -0.6 2.9 -1.2 3.1 -1 0.4 -1 0.6 0 0.6 0.7 0.1 1.2 1.5 1.2 3.4 0 2.4 0.3 2.8 1 1.7 0.8 -1.3 1 -1.2 1.1 0.5 0.1 1.1 0.2 2.6 0.2 3.3 -0.1 0.6 0.5 1.2 1.1 1.2 0.7 0 2.5 1.4 4.1 3 3.2 3.4 3.2 3.4 -1.1 1.5z"/>
  <path d="M263.5 231.7 c-1.4 -1.1 -1.5 -1.6 -0.5 -2.2 0.9 -0.5 1.1 -0.4 0.6 0.3 -0.4 0.7 -0.1 1.2 0.8 1.2 1 0 1.3 -0.6 1 -1.5 -0.4 -0.8 -0.9 -1.5 -1.3 -1.5 -0.4 0 -0.8 -1.2 -0.9 -2.6 -0.2 -2.1 0.1 -2.4 1.8 -1.9 2.2 0.7 2.4 0 2.1 -7.1 -0.1 -4.5 1.6 -6.8 4.3 -5.8 0.9 0.3 1.6 0.9 1.6 1.3 0 0.4 1.8 0.5 4 0.3 5.5 -0.5 5.1 -2.2 -0.5 -2.2 -4.9 0 -5.1 -0.3 -3.4 -6.2 1.1 -4.1 2.9 -5.3 2.2 -1.5 -0.6 3.1 1.6 5.4 5.7 6.2 2.5 0.4 3.1 0.3 2.1 -0.4 -1.2 -0.8 -1 -1.1 1.2 -1.6 3.7 -1 3.4 -2.3 -0.5 -2.8 l-3.3 -0.4 3.5 -0.1 c1.9 -0.1 4.6 0.5 6 1.3 3.3 1.9 5.2 1.8 2 -0.1 -2.3 -1.4 -2.3 -1.4 -0.2 -0.9 3 0.9 2.8 -1.2 -0.3 -2.7 -1.3 -0.6 -2.2 -1.5 -1.9 -1.9 0.9 -1.5 7.4 -1 8 0.5 0.3 0.8 1.2 1.2 2 0.9 0.8 -0.3 2.3 0.5 3.4 1.8 l2 2.4 -1.2 -3 c-1.4 -3.3 -2.8 -4.6 -4 -3.9 -0.4 0.3 -1.7 0 -2.8 -0.6 -1.5 -0.8 -3 -0.8 -5.4 0 -3.4 1.1 -6.6 0.5 -6.6 -1.2 0 -0.5 0.6 -0.5 1.7 0.1 1.1 0.6 2.6 0.5 4.2 -0.1 3.2 -1.2 14.3 -0.7 15.4 0.7 0.6 0.7 1 0.6 1.3 -0.2 0.4 -0.8 1.3 -0.7 3.5 0.5 4 2.3 3.6 3.3 -1 2.6 -4.2 -0.7 -6 0.6 -3.6 2.6 1.2 1 1.8 1 2.9 0 0.8 -0.6 2.3 -1 3.4 -0.8 1 0.2 2.6 -0.3 3.6 -1.1 1.4 -1.2 1.6 -1.2 1.1 0.2 -0.5 1 -0.1 1.5 1.1 1.4 1 -0.1 1.9 0.5 2 1.3 0 0.8 -0.1 0.9 -0.3 0.3 -0.3 -0.7 -0.9 -1.3 -1.5 -1.3 -0.5 0 -0.8 0.6 -0.5 1.4 0.3 0.7 0 2 -0.6 2.7 -1 1.1 -0.9 1.1 0.4 0.1 0.9 -0.6 1.9 -0.9 2.3 -0.5 0.4 0.4 1.1 0.1 1.6 -0.7 0.6 -0.9 1 -1 1 -0.3 0 0.7 -0.8 1.7 -1.7 2.3 -1.6 1 -1.5 1.1 0.6 0.6 1.8 -0.4 2.1 -0.2 1.2 0.7 -0.6 0.6 -2.6 1 -4.5 0.9 -1.9 -0.1 -3.7 0.1 -4 0.6 -0.3 0.5 0.6 0.7 2.1 0.4 1.9 -0.4 2.4 -0.2 1.8 0.8 -0.6 0.9 -0.3 1 1.3 0.1 1.5 -0.8 2.3 -0.8 2.7 0 0.4 0.6 1.3 0.8 1.9 0.6 0.8 -0.3 1.2 0.3 1 1.6 -0.1 1.2 -0.3 2.5 -0.3 3 -0.1 0.4 -1.4 0.7 -3 0.7 -2.5 0 -2.8 0.3 -2.3 2.8 0.5 2.4 0.4 2.6 -1.1 1.3 -1.5 -1.2 -1.7 -1.1 -1.8 0.5 0 1.8 -0.1 1.8 -0.9 -0.1 -0.5 -1.1 -0.9 -1.4 -0.9 -0.7 -0.1 1.8 -2.4 1.5 -4.9 -0.8 -2.6 -2.5 -2.9 -4.3 -0.4 -3.6 0.9 0.2 2.7 0.7 4 1.1 1.9 0.6 2.2 0.3 2.2 -2.4 0 -3.1 -1.4 -4.2 -2.3 -1.8 -0.3 0.6 -0.6 -0.1 -0.6 -1.7 -0.1 -2.4 -0.3 -2.7 -1.6 -1.6 -1 0.9 -1.5 0.9 -1.5 0.1 0 -0.6 -0.6 -1 -1.2 -0.9 -0.7 0.2 -1.2 -0.4 -1.2 -1.4 0.1 -1.2 -0.9 -1.7 -3.8 -2 -2.2 -0.2 -4.2 0 -4.4 0.4 -0.3 0.4 -1.4 0.8 -2.4 0.8 -1.9 0 -2.9 0.7 -9.4 6.2 -2.8 2.3 -7.2 9.8 -9 15.1 -0.3 0.9 -1.3 1.7 -2.2 1.7 -1.3 0 -1.4 -0.3 -0.4 -1.5 1.6 -1.9 0.1 -1.9 -2.4 0 -1.7 1.3 -1.8 1.5 -0.3 1.5 0.9 0 1.7 0.7 1.7 1.5 0 2 -8.8 2.1 -11.5 0.2z m8.1 -4.5 c1 0.2 1.8 -0.2 1.7 -0.8 -0.1 -0.7 0.5 -1.1 1.5 -1 0.9 0 1.7 -0.3 1.7 -0.9 0 -0.5 0.4 -1.6 0.9 -2.4 0.6 -1 0.5 -1.2 -0.2 -0.7 -0.7 0.4 -1.2 0.2 -1.2 -0.3 0 -0.6 -0.5 -1.1 -1.1 -1.1 -0.5 0 -0.7 0.5 -0.4 1 0.4 0.6 0.1 0.9 -0.7 0.8 -0.7 -0.2 -1.2 0.3 -1 1 0.1 0.6 -0.1 1.1 -0.5 1 -1.8 -0.5 -5.2 2.3 -4.6 3.8 0.4 1.1 0.8 1.2 1.3 0.4 0.4 -0.6 1.6 -1 2.6 -0.8z m0.2 -8.5 c-0.9 -0.6 -0.8 -0.7 0.6 -0.3 1.1 0.4 2.4 -0.1 3.5 -1.3 0.9 -1 2.5 -2.1 3.6 -2.4 1.1 -0.4 0 -0.5 -2.4 -0.2 -3.1 0.2 -5.2 1.1 -7 3 -2.1 2.1 -2.2 2.4 -0.7 1.9 1.6 -0.6 1.8 -0.4 1.3 1.1 -0.6 1.5 -0.5 1.6 0.8 0.5 1.3 -1.1 1.3 -1.5 0.3 -2.3z"/>
  <path d="M259.8 221.6 c-0.3 -1.5 -0.2 -4.1 0.2 -5.9 0.7 -3 0.8 -3 0.9 -0.5 0.1 1.4 0.5 2.8 0.9 3 0.5 0.2 0.3 1.6 -0.3 3.2 l-1.2 2.9 -0.5 -2.7z"/>
  <path d="M263.3 215.3 c-0.7 -0.3 -1.3 -1.3 -1.3 -2.4 0 -1 -0.4 -1.9 -1 -1.9 -0.5 0 -2 -1.2 -3.3 -2.6 -1.3 -1.4 -4.6 -3.6 -7.3 -4.9 -2.7 -1.4 -4.1 -2.5 -3.1 -2.5 1 0 1.7 -0.8 1.7 -2 0 -1.1 0.2 -2 0.5 -2 1 0 10.5 5 10.5 5.6 0 0.3 -0.5 0.2 -1.2 -0.2 -0.7 -0.5 -0.8 -0.3 -0.4 0.5 0.5 0.7 1 1 1.3 0.7 1.2 -1.2 4.2 1.6 5.2 4.7 1.3 3.7 0.3 7.6 -1.6 7z"/>
  <path d="M241.1 199.9 c-1.4 -0.5 -3.2 -0.9 -4 -0.8 -3.5 0.3 -5.1 -0.2 -5.1 -1.6 0 -1 1 -1.5 2.9 -1.5 1.6 0 3.1 -0.4 3.3 -1 0.4 -1.3 8.8 0.9 8.8 2.4 0 1.3 -2 3.6 -2.9 3.5 -0.4 0 -1.7 -0.5 -3 -1z"/>
  <path d="M204.4 190.4 c-1.6 -0.7 -2.5 -1.3 -2 -1.3 0.5 -0.1 0.3 -0.7 -0.3 -1.5 -0.9 -1.1 -0.8 -1.5 0.5 -2 0.9 -0.3 2.1 -0.3 2.7 0.1 0.7 0.4 0.6 -0.1 -0.2 -1.1 -1.4 -1.6 -1.2 -1.7 2.5 -1.4 3.2 0.2 4 0.7 4.2 2.7 0.3 1.9 0 2.3 -1.5 1.7 -1.7 -0.6 -1.7 -0.5 0 0.8 0.9 0.7 1.7 1.6 1.7 1.8 0 1.3 -5 1.4 -7.6 0.2z"/>
  <path d="M197 187.5 c-1.4 -0.8 -2 -1.4 -1.5 -1.4 0.6 0 2.1 0.6 3.5 1.4 1.4 0.8 2.1 1.4 1.5 1.4 -0.5 0 -2.1 -0.6 -3.5 -1.4z"/>
 </g>
 <g fill="#a88459">
  <path d="M217 396.6 c0 -0.1 0.5 -1.8 1.1 -3.6 1.1 -3 1 -3.4 -1.7 -5.6 l-2.9 -2.3 3.7 -0.1 c3.4 0 3.7 -0.3 5 -4.1 l1.4 -4.2 1.4 4.2 c1.3 3.9 1.5 4.1 5.3 4.1 l4 0 -2.9 2.2 c-1.6 1.2 -3 2.3 -3.2 2.4 -0.2 0.1 0.1 1.8 0.7 3.8 l1 3.7 -3.3 -2.1 -3.3 -2 -2.6 2 c-2.4 1.9 -3.7 2.5 -3.7 1.6z"/>
  <path d="M244.3 393.4 c1.1 -3.4 0.9 -3.8 -1.8 -6 l-3 -2.4 3.6 0 c3.3 0 3.8 -0.4 5.2 -3.7 l1.5 -3.8 1.1 2.8 c0.6 1.6 1.1 3.3 1.1 3.8 0 0.5 1.9 0.9 4.3 0.9 l4.2 0 -3.2 2.5 c-2.9 2.3 -3.1 2.8 -2.2 5.8 0.5 1.7 0.9 3.3 0.9 3.5 0 0.2 -1.5 -0.5 -3.3 -1.7 -3.2 -1.9 -3.3 -1.9 -5.7 -0.1 -3.5 2.8 -4 2.5 -2.7 -1.6z"/>
  <path d="M270.6 393.2 c0.6 -3.6 0.4 -4.2 -2.2 -5.9 l-2.8 -1.8 3.9 -0.5 c3.4 -0.4 4.1 -0.9 4.9 -3.7 0.5 -1.8 1.2 -3.3 1.6 -3.3 0.4 0 1.1 1.5 1.6 3.3 0.8 2.8 1.5 3.3 4.9 3.7 l3.9 0.5 -2.8 1.8 c-2.5 1.7 -2.7 2.2 -2.1 5.9 0.8 4.3 0.2 4.4 -3.7 1 -1.6 -1.3 -2 -1.3 -3.5 0 -3.9 3.3 -4.4 3.2 -3.7 -1z"/>
  <path d="M187.8 339.2 c-2.1 -0.2 -3.8 -0.7 -3.8 -1.3 0 -0.8 2.2 -1.3 4.2 -1 1.2 0.2 3.8 -5.7 3.2 -7.2 -0.3 -0.9 -1.7 -1.8 -3.2 -2.2 -2.5 -0.6 -2.5 -0.8 -1 -1.9 1 -0.7 1.4 -1.6 1 -2 -1.3 -1.3 2.2 -0.2 3.6 1.2 0.9 0.8 1.3 2.6 1 4.8 -0.4 3 -0.1 3.5 2.1 4.1 1.5 0.3 3.2 1.3 4 2.2 1.2 1.4 1.2 1.4 0.7 -0.4 -0.6 -2 -0.1 -2 20.7 -2 l21.3 0 -0.4 -2.5 c-0.6 -3.1 -2.2 -5.2 -3.6 -4.7 -2 0.8 -4.6 -1.3 -4.6 -3.6 0 -3 -4.5 -7.3 -11.2 -10.6 -2.9 -1.5 -5.4 -3.4 -5.6 -4.4 -0.2 -1 0.8 -3.1 2.2 -4.8 2.6 -3.1 3.6 -8.9 1.5 -8.9 -0.6 0 0.1 -1.4 1.6 -3.2 1.7 -2 2.2 -3.3 1.5 -3.8 -0.7 -0.4 -0.4 -2 0.9 -5.1 1.2 -2.4 2.1 -5.8 2.1 -7.6 0 -3.7 2.9 -10.3 4.4 -10.3 1.7 0 4.4 2 2.8 2 -0.7 0 -1 0.5 -0.7 1 0.3 0.6 1.8 1 3.2 1 1.4 0 3.6 1 4.8 2.3 3.7 3.6 5.3 4.7 6.9 4.7 0.8 0 1.6 0.5 1.8 1 0.2 0.6 2.8 1.3 5.9 1.6 l5.6 0.5 5.3 -5.1 c2.8 -2.7 5.8 -5 6.6 -5 2.1 0 1.7 -1.7 -0.8 -3.4 -1.2 -0.9 -1.9 -1.8 -1.6 -2.1 0.8 -0.8 7 2.1 9.6 4.5 2.6 2.5 3 4 0.4 1.7 -1 -1 -2.6 -1.7 -3.5 -1.7 -2 0 -2.3 2.6 -0.4 3.3 0.9 0.4 0.9 0.7 0 1.4 -0.8 0.6 -0.1 2.3 2.8 6.1 2.2 2.8 4.4 5.2 4.9 5.2 0.5 0 -0.2 -1.1 -1.5 -2.5 -3.2 -3.1 -3.2 -4.9 -0.2 -4.1 1.2 0.3 4.6 0.6 7.5 0.6 5.5 0 6.4 1 3.6 4.1 -1.5 1.6 -1.3 1.7 2.3 0.8 2.1 -0.5 4.3 -0.9 4.8 -0.9 0.6 0 0.4 -0.4 -0.3 -0.9 -0.9 -0.6 0 -1.2 2.9 -1.9 5.1 -1.3 6.6 -0.7 1.8 0.7 -1.9 0.5 -2.7 1 -1.8 1 0.9 0.1 3.6 -0.6 6 -1.4 8.3 -3 12.2 -2.1 15.9 3.4 3.5 5.3 2.8 7.8 -1 3.3 -1.4 -1.7 -4.1 -3.7 -5.8 -4.3 -2.8 -1 -3.9 -0.7 -9.1 1.8 l-6 3 1.5 2.7 c0.7 1.6 1.2 3.2 0.9 3.6 -0.8 1.2 3.7 7.8 5.8 8.5 0.9 0.4 1.7 1.3 1.7 2.1 0 0.8 0.9 3.3 2 5.5 1.2 2.2 1.8 4.4 1.5 4.8 -0.3 0.5 0.1 1.2 0.7 1.4 0.8 0.4 0.7 0.6 -0.4 0.6 -0.9 0.1 -2.7 -1.8 -4.2 -4.4 -1.5 -2.4 -3.5 -4.9 -4.4 -5.4 -1 -0.5 -2.4 -2.1 -3.2 -3.5 -0.7 -1.4 -4.2 -4.4 -7.7 -6.6 -6.8 -4.3 -7.1 -5.3 -1.9 -7.7 2.4 -1.1 2.5 -1.3 0.6 -0.8 -4.5 1.1 -10.2 1 -10.7 -0.1 -0.3 -0.8 -1.8 -0.9 -5.1 -0.2 -2.6 0.5 -6.2 0.6 -8.1 0.3 -2.3 -0.4 -3.7 -0.2 -4.2 0.6 -1.2 2 -14.1 -0.2 -20.8 -3.5 -3 -1.4 -5.6 -2.6 -5.7 -2.6 -0.2 0 -0.6 1.6 -1 3.6 -0.4 2.2 -3.1 6.7 -7 11.6 -3.5 4.5 -6.4 8.6 -6.4 9.2 0 1.9 8.1 10.6 12.2 13.2 2.1 1.4 4.3 3.5 4.7 4.7 0.5 1.3 1.6 2.9 2.5 3.6 0.9 0.7 1.3 1.7 1 2.2 -0.3 0.5 0 1.8 0.7 3 0.9 1.7 1.3 1.9 2 0.8 0.7 -1.1 0.9 -1.1 0.9 0.2 0 1.9 -2.8 2.9 -8.7 2.9 -2.9 0 -4.5 0.5 -5.2 1.8 -0.7 1.1 -1.3 1.3 -1.8 0.6 -0.9 -1.1 -27.3 -1.4 -27.3 -0.2 0 0.7 -14.5 1.5 -20.2 1z m48.7 -62 c2.2 0.2 3.4 0 3.1 -0.6 -0.2 -0.6 -0.9 -1 -1.6 -0.8 -0.7 0.2 -1.7 -0.3 -2.1 -1 -0.7 -1 -0.9 -1 -0.9 0 0 0.8 -0.8 1 -2.5 0.6 -1.9 -0.5 -2.6 -0.2 -3.1 1.2 -0.4 1.1 -1.2 2.6 -1.9 3.4 -3.1 3.9 -2 4.6 1.5 0.9 3.4 -3.6 4.3 -4.1 7.5 -3.7z m53.3 5.3 c-0.1 -1.4 -0.8 -2.5 -1.4 -2.5 -1.9 0 -2.2 2.4 -0.5 3.7 2.1 1.6 2.1 1.7 1.9 -1.2z"/>
  <path d="M321.8 332.2 c-3.1 -2.8 -3.5 -6.2 -0.7 -6.2 0.7 0 1 0.3 0.6 0.6 -0.8 0.8 2.5 4.4 3.5 3.8 1.2 -0.8 3.8 1.5 3.8 3.2 0 2.3 -3.8 1.6 -7.2 -1.4z"/>
  <path d="M319.6 323.4 c-0.3 -0.8 -0.9 -1.4 -1.3 -1.1 -1.2 0.5 -5.3 -4.2 -4.2 -4.9 0.5 -0.3 1.6 0 2.4 0.6 1.2 1 1.5 1 1.5 -0.1 0 -0.8 1 -0.4 2.5 1.2 1.7 1.6 2.4 3.1 1.9 4.2 -0.8 2.1 -2 2.2 -2.8 0.1z"/>
  <path d="M195.3 313.8 l0.1 -8.8 2.8 0 c3.3 0 3.4 0.3 0.8 3.8 -1.1 1.5 -2.4 5.2 -2.8 8.2 -0.9 5.3 -0.9 5.2 -0.9 -3.2z"/>
  <path d="M323 318.5 c0 -0.8 -0.9 -2.3 -2 -3.2 -1.1 -1 -2 -2.2 -2 -2.8 0.1 -1.6 5 4.4 5 6.1 0 0.8 -0.2 1.4 -0.5 1.4 -0.3 0 -0.5 -0.7 -0.5 -1.5z"/>
  <path d="M326 309.1 c-1.4 -2.7 -1.3 -5.1 0.3 -5.3 0.6 0 1.7 -0.2 2.2 -0.2 2.8 -0.4 4.8 -2.4 4.1 -4.2 -0.7 -1.8 -0.8 -1.8 -2 -0.2 -0.7 1 -1.6 1.5 -1.9 1.1 -0.4 -0.3 0.1 -1.1 1 -1.8 1.6 -1.2 0.9 -4 -0.8 -3 -0.5 0.4 -0.9 0 -0.9 -0.7 0 -1 -0.3 -0.9 -1.1 0.2 -0.9 1.2 -1 1.2 -0.5 -0.3 0.3 -1 0.6 -2.1 0.6 -2.3 0 -0.2 0.7 -0.4 1.5 -0.4 0.8 0 1.5 0.4 1.5 0.9 0 0.6 1.2 0.6 3.1 0.1 3 -0.9 3.1 -0.8 2.5 1.8 -1.8 8 -3.4 12.3 -5 14.1 -2.4 2.6 -3.2 2.6 -4.6 0.2z"/>
  <path d="M176.8 308.9 c0.6 -0.7 1.2 -2.2 1.1 -3.3 0 -2 -0.1 -2 -0.9 0.2 -1.2 2.8 -6 3.2 -5.9 0.5 0 -1.1 0.3 -1.3 0.6 -0.5 0.8 1.9 2.3 1.4 2.3 -0.8 0 -1.1 -0.5 -2 -1.1 -2 -0.5 0 -0.7 -0.5 -0.3 -1.1 0.3 -0.6 2.2 -0.9 4 -0.7 1.9 0.2 3.4 0 3.4 -0.4 0 -0.4 -0.7 -0.8 -1.5 -0.8 -3.4 0 -7.5 -3 -7.5 -5.5 0 -2.7 1.6 -4.2 2.3 -2.3 0.4 1 0.6 1 0.6 0 0.1 -0.7 -0.6 -1.5 -1.4 -1.8 -0.8 -0.4 -1.5 -1 -1.5 -1.5 0 -1.5 4.5 -1 8.9 1 l4.2 1.8 -3 0.6 c-2.5 0.5 -3.1 1.2 -3.1 3.1 0 1.6 0.7 2.7 2 3.1 1.6 0.5 1.8 1 1 2.5 -1.3 2.4 -1.3 4.3 0 3.5 0.6 -0.3 1 0 1 0.7 0 0.8 -1.5 2.2 -3.2 3.2 -1.8 1 -2.7 1.3 -2 0.5z"/>
  <path d="M182.8 308.7 c2 -0.9 2.3 -1.6 1.7 -4.6 -0.4 -2.6 -0.3 -3.2 0.4 -2.1 2.3 3.4 0.1 8.2 -3.6 7.9 -0.4 0 0.2 -0.5 1.5 -1.2z"/>
  <path d="M193 303 c0 -2.1 0.4 -4.2 1 -4.5 0.6 -0.3 0.7 0.1 0.4 1 -0.5 1.3 -0.2 1.4 2.2 0.4 1.6 -0.5 3.7 -1.8 4.6 -2.6 1 -0.9 1.8 -1.1 1.8 -0.5 0 0.6 -0.6 1.3 -1.2 1.5 -0.8 0.3 -0.5 0.6 0.5 0.6 1 0.1 3.1 -0.6 4.8 -1.4 1.6 -0.9 3.3 -1.4 3.7 -1.1 0.4 0.3 1.3 0.1 2 -0.3 0.9 -0.5 0.5 -1.5 -1.4 -3.6 l-2.7 -2.9 -2.3 2.8 c-1.3 1.5 -2.4 2.2 -2.4 1.6 0 -0.6 -0.5 -0.8 -1.1 -0.4 -0.8 0.4 -0.8 0 0 -1.5 0.7 -1.1 1.5 -2.1 2 -2.1 0.4 0 0.5 -1.4 0.3 -3.1 -0.4 -2.4 -0.1 -3 0.9 -2.5 0.8 0.3 2.2 0.9 3.2 1.2 0.9 0.4 1.7 1.3 1.7 2 0 1.7 1 1.7 3.3 0 1 -0.8 1.5 -2 1.1 -3 -1.3 -3.3 3.2 -1.7 5.2 1.9 1.5 2.7 0.7 4.4 -1.6 3.8 -2.2 -0.6 -2.7 -2.3 -0.8 -2.3 0.6 0 0.9 -0.3 0.5 -0.6 -1.2 -1.3 -3.2 1.3 -3.2 4.2 -0.1 2.5 0.3 3.1 1.5 2.6 0.8 -0.3 0.2 0.8 -1.5 2.4 -4 3.9 -7.1 6.2 -6.1 4.7 0.5 -0.9 0 -1.3 -1.4 -1.3 -1.3 0 -2.4 0.8 -2.7 1.9 -0.3 1.3 -1.3 1.8 -3.4 1.7 -2.6 -0.1 -4.4 -1.6 -1.9 -1.6 0.6 0 1 -0.8 1 -1.7 0 -1.3 -1.1 -0.6 -4 2.4 l-4 4.2 0 -3.9z"/>
  <path d="M310.9 297.4 c-2.3 -2.5 -2.3 -2.6 -0.2 -1.3 1.3 0.7 2.5 1.9 2.7 2.6 0.8 1.9 0.2 1.6 -2.5 -1.3z"/>
  <path d="M164.9 292 c-0.6 -4.9 -0.3 -6.2 1.1 -4.1 0.4 0.8 1.5 1.1 2.4 0.8 1.7 -0.7 2.2 0.8 0.6 1.8 -0.5 0.3 -1 1.6 -1.1 2.8 0 2.1 -0.1 2.1 -0.8 0.2 -0.8 -1.9 -0.9 -1.8 -1.3 0.5 -0.3 1.8 -0.5 1.3 -0.9 -2z"/>
  <path d="M189.3 291.4 c0.3 -0.4 0.2 -1.5 -0.3 -2.5 -0.8 -1.3 -0.6 -1.9 0.8 -2.2 1.3 -0.4 1.1 -0.5 -0.5 -0.6 -2.5 -0.1 -2.6 -0.4 -1.7 -3.8 0.4 -1.3 1.2 -2.3 2 -2.3 3 0 2.4 -2.4 -1.5 -5.9 -4.3 -3.7 -5.1 -5.7 -3.7 -10 0.6 -1.8 0.5 -2.2 -0.5 -1.6 -0.8 0.5 -1.1 0.4 -0.6 -0.1 0.5 -0.5 1.2 -0.9 1.5 -0.9 1.6 -0.1 10.2 -3.8 10.2 -4.4 0 -0.4 -0.5 -1.2 -1.2 -1.9 -1.7 -1.7 -0.7 -2.2 4.5 -2.5 2.5 -0.1 4.3 -0.5 4.1 -0.9 -0.2 -0.4 0 -1 0.6 -1.3 0.6 -0.4 0.9 -0.1 0.8 0.6 -0.2 0.7 1.3 1.6 3.5 2.1 3 0.6 4.6 0.4 7.7 -1.2 5.3 -2.7 6.5 -2.5 1.5 0.3 -2.1 1.2 -5.4 4.2 -7.2 6.5 -3.3 4.3 -4.7 4.7 -1.8 0.5 1.4 -2 1.4 -2.2 -0.4 -2.8 -2.7 -0.8 -7.1 0.4 -7.1 2 0 0.8 -1.4 1.5 -3.2 1.7 -2.3 0.2 -3.6 1 -4.3 2.6 -0.5 1.2 -1.3 2.2 -1.7 2.2 -0.4 0 -0.5 0.7 -0.2 1.5 0.4 1 0 1.5 -1.1 1.5 -1.2 0 -1.5 0.5 -1.1 1.6 0.3 0.9 0.6 1.7 0.6 2 0 0.2 1.8 0.7 3.9 1 6.5 1 8.9 8.5 4.3 13.6 -0.8 1 -1.9 1.5 -2.5 1.1 -0.5 -0.3 -0.7 -0.2 -0.4 0.4 0.7 1.1 -2.7 4.3 -4.5 4.3 -0.6 0 -0.8 -0.3 -0.5 -0.6z"/>
  <path d="M175 285.7 c-5.3 -2.8 -6 -4.4 -2 -4.4 1.7 0 2.6 0.3 2 0.7 -1.1 0.7 0.9 2.8 4.5 4.8 3.9 2.2 -0.3 1.2 -4.5 -1.1z"/>
  <path d="M181.6 284.6 c3.3 -2.5 3 -3.3 -5.9 -13.3 -3 -3.4 -4.6 -6.1 -4.3 -7 0.3 -0.8 0.6 -2.1 0.6 -2.9 0 -1.7 2.6 -1.9 3.3 -0.1 0.3 0.7 0.6 0.4 0.6 -0.6 0.1 -1 0.5 -1.6 1 -1.3 0.4 0.3 0.6 1.8 0.4 3.3 -0.3 2.1 0 1.8 1.1 -1.1 0.8 -2.1 2.1 -4.3 2.8 -4.8 3.9 -2.6 7.2 -3.9 9.1 -3.5 1.9 0.4 1.8 0.4 -0.4 0.6 -3.1 0.1 -8.9 5.1 -8.9 7.5 0 0.9 -0.4 1.6 -1 1.6 -1.3 0 -1.3 7.6 0 10.1 0.6 1 1.7 1.9 2.4 1.9 1.8 0 4.6 3.3 4.6 5.3 0 2.2 -3.5 5.7 -5.7 5.7 -1.5 0 -1.4 -0.2 0.3 -1.4z"/>
  <path d="M325.8 280.6 c-1.6 -1.9 -2.4 -3.7 -2 -4 0.4 -0.2 1.8 1.3 3 3.5 2.8 4.8 2.5 4.9 -1 0.5z"/>
  <path d="M293.8 273.8 c-1 -1 -2.8 -1.8 -4.1 -1.8 -2.4 0 -5.1 -4.6 -4.5 -7.7 0.3 -1.5 0.7 -1.3 2.8 0.9 3.4 3.6 6.9 4.3 9.8 1.8 2 -1.6 2.2 -2.2 1.1 -4.2 -0.6 -1.3 -1.8 -3.1 -2.7 -4 -0.8 -1 -1 -1.8 -0.4 -1.8 0.6 0 0.9 -1.5 0.6 -4 -0.3 -2.6 0.1 -4.8 1.2 -6.5 1.8 -2.7 4 -3.5 3 -1 -0.3 0.8 0.1 2.1 0.9 2.9 0.8 0.8 1.5 2.5 1.5 3.8 0 1.3 0.9 4.1 2 6.3 2.5 4.8 2.5 7.2 0.3 7.8 -1.7 0.4 -1.7 0.5 0 0.6 2 0.1 2.1 1.1 0.5 4.6 -1 2.3 -1.6 2.6 -4.5 2 -1.8 -0.3 -3.3 -0.2 -3.3 0.3 0 1.9 -2.5 1.8 -4.2 0z"/>
  <path d="M170.2 259.9 c-0.2 -2.9 0.2 -3.8 1.8 -4.2 1.1 -0.3 2.3 -0.1 2.6 0.4 0.3 0.5 0.2 0.9 -0.3 0.8 -2.3 -0.4 -3.2 0.4 -3.6 3.4 l-0.4 3.2 -0.1 -3.6z"/>
  <path d="M260.5 259.4 c-1.6 -0.7 -4.1 -1.3 -5.5 -1.3 -1.4 0.1 -2.9 0 -3.5 -0.1 -0.5 -0.2 -1.4 -0.4 -2 -0.4 -0.5 -0.1 -2.1 -0.8 -3.5 -1.5 -1.3 -0.8 -3.5 -1.4 -4.9 -1.5 -2.4 -0.1 -4.4 -2.6 -2.1 -2.6 0.7 0 -0.5 -1.6 -2.6 -3.5 -2.1 -1.9 -4.4 -3.5 -5.1 -3.5 -0.7 0 -1.3 -0.4 -1.3 -0.9 0 -0.5 -0.9 -1.3 -2.1 -1.6 -1.6 -0.5 -1.8 -0.9 -0.8 -2.1 0.6 -0.8 0.9 -1.8 0.5 -2.1 -0.4 -0.4 -1.1 -0.1 -1.5 0.6 -1.1 1.7 -1.9 0.3 -1.6 -2.6 0.1 -1.5 -0.4 -2.3 -1.4 -2.4 -1 0 -1.2 -0.2 -0.3 -0.6 1.9 -0.8 1.4 -2.3 -0.8 -2.3 -1.8 0 -2.4 -1 -2.1 -3.2 0 -0.4 -0.8 -1 -1.9 -1.3 -2.9 -0.9 -2.5 -2.1 1.2 -3.4 3.5 -1.2 5.3 -0.6 1.9 0.7 -1.8 0.6 -2 1 -0.9 2.5 1.7 2.3 9.2 3.2 8.4 1 -0.3 -0.8 -0.6 -1.7 -0.6 -1.9 0 -0.2 -0.6 -0.4 -1.3 -0.4 -0.7 0 -1.8 -0.9 -2.5 -2 -0.7 -1.1 -2.1 -2 -3.2 -2 -1.3 0 -1.8 -0.5 -1.4 -1.5 0.4 -0.8 -0.1 -1.7 -1 -2.1 -2 -0.8 -2.1 -2.4 -0.1 -2.4 0.8 0 1.5 0.7 1.5 1.5 0 0.8 0.9 1.5 2 1.5 1.1 0 2 0.7 2 1.5 0 1.1 1.1 1.5 4.3 1.4 2.3 -0.1 3.4 -0.3 2.4 -0.6 -1.1 -0.3 -1.6 -1.1 -1.3 -1.9 0.4 -1 -0.3 -1.4 -2.2 -1.4 -2.6 -0.1 -2.6 -0.1 -0.8 -1.5 1.7 -1.3 1.8 -1.5 0.3 -1.5 -0.9 0 -1.7 -0.7 -1.7 -1.5 0 -1 -1 -1.5 -2.9 -1.5 -1.6 0 -3.7 -0.7 -4.6 -1.7 -1.1 -1.1 -1.9 -1.3 -2.3 -0.5 -0.5 0.7 -1.5 0.6 -3.2 -0.3 -1.9 -1.1 -2.1 -1.4 -0.7 -1.5 1.8 0 2.4 -2.6 0.7 -3.2 -0.5 -0.1 -0.7 -1.3 -0.4 -2.5 0.5 -2 0.7 -2 2.5 -0.5 1.2 1.1 1.5 2 0.9 2.6 -1.6 1.6 -1.2 2.5 2 4.1 4.1 2.1 5.8 1.9 3.2 -0.5 -1.2 -1.2 -2.2 -2.2 -2.2 -2.3 0 -0.6 7 0 7.7 0.6 0.3 0.4 0.1 0.7 -0.5 0.7 -2.5 0 -1.1 2 2.1 2.9 1.7 0.5 2.4 1 1.5 1 -2.9 0.2 -2 2 1.5 3 1.7 0.5 2.6 1 2 1 -0.7 0.1 -1.3 0.6 -1.3 1.2 0 0.7 1 0.9 2.5 0.7 2.7 -0.6 3.5 0.9 1 1.8 -2.1 0.8 -1.9 2.4 0.3 2.4 2.2 0 6.4 -2.9 4.3 -3 -0.7 0 -1.1 -0.6 -0.7 -1.5 0.3 -0.9 0 -1.5 -0.9 -1.5 -0.8 0 -1.5 -0.9 -1.5 -2 0 -1.1 -0.4 -2 -1 -2 -0.5 0 -1 -0.4 -1 -1 0 -2.1 3 -0.9 4.4 1.9 1.5 2.8 4.6 4.9 4.6 3.1 0 -0.6 -0.4 -1 -1 -1 -0.5 0 -0.7 -0.7 -0.4 -1.5 0.4 -1 0 -1.5 -1 -1.5 -1.4 0 -1.5 -0.4 -0.6 -2 0.9 -1.6 0.7 -2 -1.3 -2.5 -2.6 -0.7 -3.2 -3.1 -1 -3.9 0.7 -0.3 1.2 -0.2 1.2 0.2 -0.4 2.4 0.3 3.3 2.1 2.7 1.7 -0.5 2 -0.2 2 2.2 0.1 3.3 2.9 7.9 3.1 5 0.3 -3.3 0.4 -3.7 1.4 -3.4 0.6 0.1 0.9 0.5 0.8 0.9 -0.1 0.3 0.4 1.2 1.2 1.8 1.7 1.4 2.1 4.5 0.5 3.5 -0.6 -0.4 -0.7 -1.1 -0.4 -1.7 0.5 -0.7 0.2 -0.8 -0.6 -0.3 -0.9 0.6 -1.1 0.4 -0.5 -0.5 0.6 -0.9 0.4 -1.1 -0.4 -0.6 -0.7 0.5 -1 1.4 -0.7 2.1 0.3 0.8 -0.1 1.8 -0.8 2.4 -0.7 0.6 -1.1 2.5 -0.9 4.3 0.2 1.8 0.4 3.9 0.5 4.6 0.1 1.2 1.2 1.6 3.6 1.3 0.6 -0.1 1.2 0.6 1.2 1.6 0 1 0.6 3 1.4 4.4 0.9 1.8 1 3.2 0.4 4.4 -0.9 1.4 -0.7 1.6 1.1 1 2 -0.6 3.1 1 1.2 1.7 -0.5 0.2 -0.3 0.9 0.5 1.6 0.8 0.7 1.4 0.9 1.4 0.3 0 -0.5 0.9 -0.7 2 -0.4 1.1 0.3 2 0.9 2 1.3 0 0.4 2.1 1.3 4.7 1.9 2.6 0.7 5.3 2 6.1 2.9 0.9 1.1 1.1 1.2 0.6 0.2 -0.5 -1 -0.1 -0.9 1.4 0.4 1.2 1 1.9 2.3 1.6 2.7 -0.3 0.5 -0.3 0.9 0.1 0.9 0.3 0 1 -1 1.5 -2.2 0.8 -2 0.9 -1.8 0.7 1.2 -0.2 3.2 -0.6 3.6 -4.4 4.8 -2.6 0.8 -4 1.8 -3.7 2.6 0.3 0.7 -0.7 1.8 -2.1 2.4 -3.1 1.4 -3.2 1.4 -7 -0.4z m-21.5 -25.4 c-3.6 -1.1 -5.2 -1.1 -4.5 0 0.3 0.6 2.1 1 3.8 0.9 3.1 -0.1 3.1 -0.1 0.7 -0.9z m11.3 -2 c-0.3 -1.1 -1.2 -2 -1.9 -2 -1.7 0 -1.8 0.7 -0.1 2.5 1.7 2 2.6 1.8 2 -0.5z m-12.8 -4 c-0.3 -0.5 -1.3 -1 -2.1 -1 -2 0 -1.7 -2 0.4 -2.1 0.9 0 0.4 -0.5 -1.2 -1 -1.7 -0.4 -3.2 -0.6 -3.5 -0.4 -0.2 0.3 0.1 0.5 0.8 0.5 0.8 0 1.1 0.7 0.7 1.5 -0.3 0.8 0.2 1.9 1.2 2.4 2.2 1.3 4.5 1.4 3.7 0.1z m6.5 -0.1 c0 -0.6 -0.5 -2 -1.1 -3.1 -0.8 -1.6 -0.8 -2.2 0.2 -2.9 1.8 -1.1 0.4 -2.3 -1.7 -1.5 -0.9 0.3 -1.4 1.2 -1 2.1 0.3 0.8 0.1 1.5 -0.5 1.5 -0.6 0 -0.7 0.5 -0.2 1.3 0.4 0.6 0.8 1.5 0.9 2 0.1 0.4 0.2 0.9 0.3 1.2 0.2 1 3.1 0.5 3.1 -0.6z"/>
  <path d="M223.8 249.3 c1.2 -0.2 3 -0.2 4 0 0.9 0.3 -0.1 0.5 -2.3 0.4 -2.2 0 -3 -0.2 -1.7 -0.4z"/>
  <path d="M105.6 238.1 l-9.8 -9.8 3.1 -1.3 c1.7 -0.7 3.1 -1.4 3.1 -1.6 0 -0.2 -1.8 -3.4 -4.1 -7.1 l-4.1 -6.8 8.6 8.5 c4.7 4.6 8.6 8.8 8.6 9.1 0 0.4 -1.1 1 -2.5 1.3 -1.4 0.4 -2.5 1 -2.5 1.4 0 0.5 2.3 4.1 5 8.2 2.8 4 4.9 7.4 4.7 7.6 -0.2 0.2 -4.7 -4.1 -10.1 -9.5z"/>
  <path d="M390.9 240 l5 -8.5 -3 -1 -3 -1 8.2 -9.5 c4.5 -5.2 8.4 -9.7 8.7 -10 0.8 -0.7 -6 11.3 -7 12.5 -1.6 1.8 -0.8 3.3 2.2 4 1.7 0.4 3 1 3 1.3 0 0.4 -4.3 5.2 -9.5 10.7 l-9.5 10 4.9 -8.5z"/>
  <path d="M273.1 243.1 c-0.7 -0.5 -1.1 -1.3 -0.7 -1.9 0.3 -0.6 -0.4 -1.2 -1.6 -1.4 -1.3 -0.2 -2.2 -0.9 -2 -1.6 0.1 -0.8 -0.2 -1.1 -0.8 -0.7 -0.9 0.6 -1.2 0.2 -1.4 -2.7 -0.1 -0.7 -0.8 -1.8 -1.6 -2.5 -1.1 -0.9 -1.2 -1.2 -0.2 -1.3 1 0 1 -0.5 0.2 -2.1 -0.7 -1.1 -0.9 -2.3 -0.6 -2.7 0.3 -0.3 0.6 -0.1 0.6 0.5 0 0.6 1.1 1.4 2.5 1.7 1.4 0.4 2.5 1 2.5 1.5 0 1.3 4.1 0.1 6.3 -1.7 0.9 -0.8 1.9 -1.3 2.1 -1.1 0.7 0.7 -2.2 11.9 -3.4 13.4 -0.6 0.8 -0.9 1.9 -0.5 2.5 0.8 1.2 0.4 1.2 -1.4 0.1z m1.5 -8.7 c1.9 -1.5 1.9 -1.5 -0.1 -0.6 -1.1 0.5 -2.7 1.2 -3.5 1.5 -1.3 0.5 -1.3 0.6 0.1 0.6 0.8 0.1 2.4 -0.6 3.5 -1.5z"/>
  <path d="M314.4 241.5 c-1.6 -1.3 -1.7 -1.6 -0.4 -2.5 0.8 -0.5 2.2 -1 3.1 -1 0.8 0 2 -0.5 2.7 -1.2 0.9 -0.9 1.2 -0.9 1.2 0.1 0 0.7 0.4 1 1 0.6 0.5 -0.3 0.6 -1.3 0.3 -2.2 -0.4 -1.1 -0.3 -1.4 0.5 -0.9 1.7 1 1.4 3.8 -0.7 6.4 -2.2 2.6 -4.9 2.8 -7.7 0.7z"/>
  <path d="M264.9 240 c-4.8 -2.5 -8.7 -7.2 -9.5 -11.6 -0.5 -2.8 -0.1 -4.2 2 -7.2 5.3 -7.7 2.2 -13.9 -9.4 -18.9 -4.1 -1.7 -9.1 -3.2 -11.1 -3.2 -1.9 -0.1 -5.7 -0.8 -8.3 -1.7 -2.6 -0.9 -5 -1.3 -5.4 -0.9 -1.1 1.1 3.7 4.5 5.6 3.8 0.9 -0.3 1.4 -0.2 1 0.2 -0.5 0.5 0.7 2.2 2.5 3.8 3 2.8 3.1 2.9 0.7 2.4 -1.4 -0.4 -2.9 -0.7 -3.3 -0.7 -0.4 0 -0.7 -0.8 -0.5 -1.7 0.2 -1.4 -0.5 -1.9 -3.1 -2.1 -1.9 -0.2 -3.7 0.2 -4.1 0.9 -0.4 0.6 -1.3 0.8 -1.9 0.5 -1.8 -1.2 -1.2 -2.6 1.2 -2.7 2.1 0 2.1 -0.1 0.2 -0.9 -1.1 -0.5 -1.5 -0.9 -0.8 -0.9 2 -0.1 0.4 -2.6 -2.5 -3.8 -1.5 -0.6 -5.1 -1.9 -8 -2.8 -5.2 -1.7 -10.2 -5.7 -10.2 -8.2 0 -1.7 0.7 -1.6 3.8 0.6 3.5 2.4 9.2 5.3 9.2 4.6 0 -0.2 -1.7 -1.3 -3.8 -2.4 -4.4 -2.3 -10.2 -7.9 -10.2 -9.9 0 -1 1.2 -0.7 4.3 1.2 8.7 5.4 21.6 11.5 28.8 13.7 4 1.2 8 2.6 8.6 3.2 0.7 0.5 3.1 1.1 5.3 1.2 4.3 0.4 6.3 1.2 5.5 2.5 -0.3 0.4 0.5 1 1.8 1.4 1.2 0.3 4 2.1 6.1 4.1 2.2 1.9 4.3 3.5 4.7 3.5 2 0 1.4 5.5 -1.2 10.8 -4.3 8.5 -3.6 12.7 2.9 19.5 4.1 4.2 4.1 4.3 -0.9 1.7z"/>
  <path d="M298.6 239.5 c0.4 -0.8 1.2 -1.5 2 -1.5 0.8 0 1.4 0.7 1.4 1.5 0 0.8 -0.9 1.5 -2 1.5 -1.3 0 -1.8 -0.5 -1.4 -1.5z"/>
  <path d="M309.7 234.9 c-2 -1.7 -3.7 -3.6 -3.7 -4.2 0 -0.7 -1 -1.7 -2.3 -2.3 -2.1 -0.9 -2.3 -0.8 -1.9 1.8 0.4 2.3 0.1 2.8 -1.7 2.8 -1.7 0 -2.1 -0.6 -2.2 -3.2 -0.1 -1.8 -0.1 -3.6 0 -4 0.2 -1.5 -1.7 -0.8 -2.3 0.8 -0.4 0.9 -0.9 1.4 -1.2 1.2 -0.3 -0.3 0.2 -2.2 1 -4.2 1.3 -3.2 1.3 -3.6 -0.1 -3.6 -1.3 0 -1.3 -0.3 -0.2 -1.6 1.2 -1.4 6.1 -4.4 7.3 -4.4 0.3 0 -0.3 1.5 -1.4 3.3 -2.9 4.7 -2.6 7.3 1.2 9.1 4 2.1 5.8 2 7.4 -0.1 1.2 -1.7 1.3 -1.7 2 0.1 0.4 1.1 0.2 2.1 -0.7 2.7 -1.1 0.7 -1.1 0.9 -0.1 0.9 0.7 0 1.1 0.4 0.8 0.9 -0.4 0.5 0.2 0.7 1.3 0.4 2.3 -0.6 3.7 3.6 1.8 5.4 -1 1 -2 0.7 -5 -1.8z"/>
  <path d="M316.5 232.9 c-1 -1.5 0.3 -2.5 1.6 -1.2 0.7 0.7 0.7 1.3 0.1 1.7 -0.6 0.3 -1.4 0.1 -1.7 -0.5z"/>
  <path d="M272.9 227.7 c0.6 -0.8 0.8 -1.7 0.4 -2.1 -0.4 -0.4 0 -0.4 1 0 1.4 0.5 1.5 0.9 0.6 2 -0.6 0.8 -1.6 1.4 -2.1 1.4 -0.7 0 -0.6 -0.5 0.1 -1.3z"/>
  <path d="M248.4 219.9 c0.1 -2.7 0.5 -4.8 1.1 -4.8 2.4 0.3 5.9 -0.3 4.7 -0.8 -1 -0.4 -1 -0.8 0 -2.1 1.1 -1.3 1.1 -1.4 -0.2 -0.7 -1.2 0.7 -1.3 0.6 -0.3 -0.7 0.7 -0.8 0.9 -1.9 0.5 -2.3 -0.4 -0.5 -0.1 -0.5 0.6 -0.1 0.6 0.4 1.2 1.8 1.2 3.1 0 1.3 0.4 3.5 1 4.9 0.7 1.8 0.6 2.9 -0.3 3.8 -0.7 0.7 -1.6 2 -1.9 2.9 -0.4 0.9 -1.8 1.6 -3.5 1.7 -2.9 0.1 -3 -0.1 -2.9 -4.9z"/>
  <path d="M267 222.5 c0.4 -1.1 0.8 -2.4 0.9 -3 0.1 -0.5 1.6 -0.9 3.4 -0.9 4 0.2 12.7 -2.4 12.7 -3.8 0 -0.7 -2.1 -0.9 -5.5 -0.6 -3.7 0.3 -5.4 0.1 -5.2 -0.6 0.3 -1 1.2 -1.2 7.1 -1.5 1.2 -0.1 1.6 -0.6 1.2 -1.6 -0.4 -1.2 0.3 -1.5 3.4 -1.5 2.2 0 4 -0.4 4 -1 0 -0.5 -0.5 -1 -1.1 -1 -0.5 0 -0.7 -0.5 -0.3 -1.1 0.4 -0.7 1.9 -0.8 3.7 -0.5 2.9 0.6 3 0.5 1.2 -0.8 -1.9 -1.4 -1.8 -1.5 1.2 -0.7 2.4 0.7 3.3 0.6 3.7 -0.5 0.7 -1.7 4.8 -1.8 6.4 -0.2 1.6 1.6 1.5 0.8 -0.4 -3.8 -0.9 -2.2 -1.3 -3.6 -0.8 -3.2 0.4 0.4 1.4 0.2 2.3 -0.4 0.9 -0.7 1.3 -0.8 0.9 -0.4 -0.4 0.5 -0.3 1.5 0.3 2.3 0.6 0.7 0.8 1.3 0.4 1.3 -0.4 0 -0.4 0.6 0.1 1.3 0.5 0.7 0.1 0.4 -0.8 -0.6 -1 -1.1 -1.8 -1.5 -1.8 -0.9 0 0.6 1.1 1.9 2.5 3 1.7 1.4 2.5 3 2.5 5.2 0 1.9 -0.4 2.9 -1.1 2.5 -0.6 -0.4 -0.8 -1.3 -0.5 -2.1 0.9 -2.3 -7.2 -1.7 -12.9 1 -5 2.3 -10.7 7.8 -12.7 12.2 -0.8 1.8 -1.5 2.1 -2.8 1.4 -1 -0.5 -2 -0.6 -2.4 -0.3 -0.3 0.3 -0.6 0.1 -0.6 -0.5 0 -0.7 -0.5 -1.2 -1.1 -1.2 -0.5 0 -0.7 0.5 -0.3 1.2 0.4 0.6 0.3 0.8 -0.3 0.5 -0.6 -0.4 -1.8 0.2 -2.8 1.3 -2.3 2.6 -5.6 2.3 -4.5 -0.5z"/>
  <path d="M311.5 219.9 c-0.8 -2.5 -0.1 -3.4 2 -2.6 1.9 0.8 2 4.7 0.1 4.7 -0.8 0 -1.8 -0.9 -2.1 -2.1z"/>
  <path d="M316 214.5 c0 -1.5 -0.6 -2.5 -1.4 -2.5 -0.9 0 -1.3 -1 -1 -3.2 0.1 -1.8 0.3 -4 0.3 -4.8 0.1 -1 0.6 -0.7 1.7 0.8 0.8 1.2 2 1.9 2.6 1.6 0.6 -0.4 0.5 -0.9 -0.3 -1.5 -1 -0.6 -0.7 -0.8 0.8 -0.6 1.2 0 1.9 0.5 1.7 0.9 -0.3 0.4 0 0.8 0.5 0.8 0.6 0 1.1 -0.5 1.1 -1.2 0 -0.6 0.3 -0.8 0.7 -0.4 0.5 0.4 -0.1 1.4 -1.1 2.2 -2 1.4 -2 1.4 0 1.4 1.4 0 1.6 0.2 0.5 0.9 -1.5 1 -5.3 0.3 -6.2 -1.1 -0.3 -0.6 -0.9 0 -1.2 1.2 -0.4 1.7 -0.2 2 1.3 1.5 1.2 -0.4 1.9 0.1 2.3 1.6 0.5 1.7 0.9 2 1.9 1.2 2.5 -1.9 5.4 -2.1 5.4 -0.3 0 1.2 -0.7 1.5 -2.3 1.2 -1.6 -0.3 -2.3 0 -2.3 1.2 0 1 -0.9 1.6 -2.5 1.6 -2 0 -2.5 -0.5 -2.5 -2.5z"/>
  <path d="M267.1 213.9 c-0.1 -1.9 2.6 -4.5 3.6 -3.5 0.3 0.3 0.1 0.6 -0.6 0.6 -0.6 0 -1.6 1 -2.1 2.3 -0.6 1.5 -0.9 1.7 -0.9 0.6z"/>
  <path d="M214.8 212.9 c-0.9 -0.6 -1 -1.1 -0.2 -1.9 0.9 -0.9 1.9 -0.8 3.9 0.3 l2.8 1.4 -2.6 0.5 c-1.4 0.3 -3.2 0.1 -3.9 -0.3z"/>
  <path d="M191 212.1 c0 -2.2 1.3 -4.1 2.9 -4.1 1.4 0.1 1.4 0.2 -0.1 1.4 -1.9 1.4 -2.5 3.2 -0.8 2.1 0.6 -0.3 1 -0.1 1 0.4 0 0.6 -0.7 1.1 -1.5 1.1 -0.8 0 -1.5 -0.4 -1.5 -0.9z"/>
  <path d="M272.6 209.4 c0.6 -0.3 0.9 -1.6 0.6 -2.9 -0.5 -3 1.3 -3.3 2.8 -0.6 1.6 3.1 1.2 4.1 -1.7 4 -1.6 0 -2.3 -0.3 -1.7 -0.5z"/>
  <path d="M185.7 206.2 c-1.9 -2 -2.2 -3.2 -0.9 -3.2 0.5 0 1.4 1.1 2 2.5 1.4 3 1.1 3.1 -1.1 0.7z"/>
  <path d="M278.3 203.3 c-0.6 -1.4 0.4 -3.3 1.7 -3.3 0.5 0 0.7 0.6 0.4 1.4 -0.4 1.1 0.4 1.6 3.3 1.8 l3.8 0.3 -4.4 0.6 c-2.9 0.3 -4.5 0.1 -4.8 -0.8z"/>
  <path d="M180.7 198.2 c-3.2 -3.3 -3.4 -4.6 -0.7 -3.9 1.6 0.4 2 0 1.9 -2.1 -0.1 -1.9 -0.3 -2.2 -0.6 -0.9 -0.4 1.7 -0.8 1.6 -3.4 -0.9 -2.7 -2.6 -3.9 -5.4 -2.1 -5.4 1.1 0.1 8.8 5 7.8 5 -0.6 0 -0.1 0.7 1 1.6 1.6 1.3 1.6 1.5 0.2 1 -1.3 -0.4 -1.8 0 -1.8 1.4 0 1.1 0.5 2 1.1 2 0.5 0 0.7 0.5 0.4 1 -0.3 0.6 0.1 1.3 0.9 1.6 2.2 0.8 2 2.4 -0.2 2.4 -1 0 -3 -1.3 -4.5 -2.8z"/>
  <path d="M214.7 199.5 c-0.9 -0.8 -2 -1.5 -2.6 -1.5 -0.6 0 -1.1 -0.4 -1.1 -1 0 -0.5 0.5 -1 1 -1 1.5 0 5.5 3.8 4.8 4.5 -0.3 0.3 -1.3 -0.1 -2.1 -1z"/>
  <path d="M195 198.9 c0 -0.5 -0.4 -0.7 -1 -0.4 -0.5 0.3 -1 0.1 -1 -0.4 0 -1.6 2.3 -1.3 4.6 0.4 1.9 1.4 1.8 1.4 -0.3 1.5 -1.3 0 -2.3 -0.5 -2.3 -1.1z"/>
  <path d="M309.8 199.2 c-1 -0.2 -1.8 -1 -1.8 -1.8 0 -1.7 0.2 -1.7 3.5 -0.2 4 1.8 3 3 -1.7 2z"/>
  <path d="M292.2 195.9 c1.4 -1 8.5 -1.2 7.6 -0.3 -0.3 0.3 -2.5 0.7 -4.8 0.8 -2.6 0.2 -3.7 0 -2.8 -0.5z"/>
  <path d="M175.1 179.1 c-1.5 -2.7 -1.4 -4.1 0.4 -4.1 2.3 0 3.8 3.5 2 5 -1.1 0.9 -1.6 0.7 -2.4 -0.9z"/>
 </g>
 <g fill="#232323">
  <path d="M174.1 368.3 c0.1 -1.7 0.3 -2.1 0.6 -1 0.3 1.1 1.4 1.7 3.4 1.7 3.9 0 5.8 -3.7 4.2 -8.1 -0.9 -2.3 -0.8 -2.9 0.2 -2.9 1.6 0 2.5 2.2 2.5 6.5 0 4.1 -2.9 6.5 -7.7 6.5 -3 0 -3.3 -0.3 -3.2 -2.7z"/>
  <path d="M244.1 369.6 c-0.8 -0.9 -0.8 -1.6 -0.2 -2 0.5 -0.4 1.2 -0.2 1.6 0.4 0.3 0.5 1.7 1 3.1 1 3.9 0 3.2 -3.6 -1.1 -5 -6.4 -2.1 -5.4 -8.4 1.3 -7.8 2 0.2 3.7 0.8 3.9 1.5 0.3 0.8 -0.6 1 -3.1 0.6 -3.2 -0.5 -3.6 -0.3 -3.6 1.6 0 1.4 0.6 2.1 1.9 2.1 1 0 2.9 0.8 4.2 1.9 2.1 1.6 2.2 2.2 1.1 4.5 -0.9 2.1 -1.9 2.6 -4.6 2.6 -1.8 0 -3.9 -0.6 -4.5 -1.4z"/>
  <path d="M232.3 359.1 c0 -1.9 0.5 -3.1 1.4 -3.1 0.7 0 1.3 0.6 1.3 1.3 0 0.7 -0.6 2.1 -1.3 3.1 -1.2 1.7 -1.4 1.6 -1.4 -1.3z"/>
  <path d="M110.3 273.3 c-2.5 -0.9 -1.3 -2.2 1.6 -1.7 3.9 0.8 5 -1.3 1.4 -2.7 -3.5 -1.3 -4.4 -2.8 -3.2 -5.2 1.1 -2 6 -2.1 6.6 -0.1 0.2 0.7 -0.6 1 -2.2 0.7 -1.8 -0.4 -2.5 -0.1 -2.5 1 0 0.9 1 1.7 2.1 1.9 2.7 0.4 4.4 3 3.6 5.2 -0.6 1.5 -4.6 2.1 -7.4 0.9z"/>
  <path d="M149 273 c0 -0.5 0.7 -1 1.5 -1 0.8 0 1.5 0.5 1.5 1 0 0.6 -0.7 1 -1.5 1 -0.8 0 -1.5 -0.4 -1.5 -1z"/>
  <path d="M363 272.1 c-3.2 -6 2.4 -13.3 6.8 -8.9 1.6 1.6 1.6 8 0 9.6 -1.8 1.8 -5.6 1.4 -6.8 -0.7z m5.5 -4.1 c0 -2.4 -0.5 -3.6 -1.7 -3.8 -1.9 -0.4 -3.2 2.9 -2.3 5.9 1.1 3.4 4 1.9 4 -2.1z"/>
  <path d="M383 272.7 c0 -0.7 1.3 -2.6 3 -4.2 1.6 -1.5 2.7 -3.2 2.4 -3.7 -0.3 -0.4 0.2 -0.8 1 -0.8 2.4 0 1.9 2 -1.1 5.2 -1.5 1.5 -2.1 2.8 -1.5 2.8 0.7 0 1.2 0.5 1.2 1 0 0.6 -1.1 1 -2.5 1 -1.4 0 -2.5 -0.6 -2.5 -1.3z"/>
  <path d="M403.7 273.4 c-1.5 -1.5 -0.6 -2.4 1.8 -1.8 2.1 0.5 2.5 0.3 2.5 -1.6 0 -1.9 -0.4 -2.1 -2.5 -1.6 -2.2 0.6 -2.5 0.3 -2.5 -1.9 0 -1.4 0.5 -2.5 1 -2.5 0.6 0 1 0.6 1 1.3 0 0.8 1 1.3 2.1 1.3 2.9 -0.1 4.8 2.8 3.3 5.2 -1.1 1.8 -5.4 2.8 -6.7 1.6z"/>
  <path d="M134 263.4 c0 -0.8 0.9 -1.4 2 -1.4 1.1 0 2 0.4 2 0.9 0 0.5 -0.9 1.1 -2 1.4 -1.3 0.3 -2 0 -2 -0.9z"/>
  <path d="M383 264.1 c0 -1 3 -2.4 3.7 -1.7 0.3 0.3 0.2 0.9 -0.2 1.5 -0.8 1.3 -3.5 1.5 -3.5 0.2z"/>
  <path d="M363 207.9 c0 -2.4 4.2 -7.9 6.1 -7.9 2.2 0 2.3 0.4 0.9 3.1 -1.1 1.9 -1 1.9 3.2 0.2 5.2 -2 7 -3.2 6.2 -4.4 -0.3 -0.5 -0.1 -0.9 0.4 -0.9 0.5 0 1.2 0.8 1.5 1.8 0.2 0.9 0.8 2.5 1.2 3.5 0.7 1.7 0.5 1.7 -1.1 0.7 -1.6 -0.9 -3.3 -0.6 -9.3 1.9 -8.1 3.4 -9.1 3.6 -9.1 2z"/>
  <path d="M366.6 177.5 c0.4 -1.6 0 -3.4 -1 -5 -0.9 -1.4 -1.2 -2.5 -0.8 -2.5 0.5 0 2.1 1.7 3.5 3.8 2.4 3.7 2.4 3.9 0.6 5 -2.7 1.7 -3 1.5 -2.3 -1.3z"/>
  <path d="M147.2 167.7 c-2.7 -2.9 -2.8 -3.7 -0.3 -3.7 3.5 0 5.1 1.2 5.1 3.6 0 3 -2 3.1 -4.8 0.1z"/>
  <path d="M351 158.9 c0 -0.5 0.5 -0.9 1.1 -0.9 0.6 0 0.9 -0.9 0.6 -2 -0.3 -1.1 -0.2 -2 0.2 -2 0.8 0 5.1 4.3 5.1 5.1 0 0.2 -1.6 0.5 -3.5 0.6 -1.9 0.1 -3.5 -0.3 -3.5 -0.8z"/>
  <path d="M326 150.7 c0.9 -0.7 3.3 -3.4 5.3 -6.1 2.9 -3.8 3.4 -5.2 2.6 -6.2 -1.8 -2.2 1.1 -1.7 4.1 0.6 2.4 1.8 2.4 2 0.4 2 -1.3 0 -3.4 1.9 -6 5.5 -2.5 3.5 -4.6 5.5 -5.9 5.4 -1.8 0 -1.8 -0.1 -0.5 -1.2z"/>
  <path d="M189.5 136.5 c0 -4.5 0.4 -6.5 1.3 -6.5 0.6 0 1.2 0.7 1.2 1.5 0 1.1 0.5 1.2 2.3 0.6 1.2 -0.5 2.1 -1.4 2 -2 -0.2 -0.6 0.1 -1.1 0.7 -1.1 0.6 0 1 0.7 1 1.6 0 1.1 0.6 1.3 1.9 0.9 1.1 -0.3 3.3 0.3 5.2 1.4 l3.2 2 -3.8 1.5 c-4.6 1.9 -4.3 1.9 -4.1 0 0.2 -2.7 -2.8 -4 -5.9 -2.6 -1.9 0.9 -2.5 1.8 -2.3 3.5 0.2 1.2 0.9 2.3 1.6 2.3 2.6 0.3 2.6 0.5 0.2 1.9 -4.1 2.3 -4.5 1.9 -4.5 -5z"/>
  <path d="M301.3 140 c-1.3 -0.5 -2.3 -1.6 -2.3 -2.5 0 -1.4 0.3 -1.4 2.6 0.1 2.4 1.6 2.5 1.6 3.1 -0.4 0.8 -3.3 3.3 -2.7 3.3 0.8 0 2.5 -0.4 3 -2.2 2.9 -1.3 0 -3.3 -0.4 -4.5 -0.9z"/>
  <path d="M280.5 126.9 c-0.5 -2.2 -0.3 -3.4 0.6 -4 0.9 -0.6 1.5 -0.3 1.7 0.6 0.5 2.1 2.2 1.9 2.2 -0.2 0 -2.2 1.7 -5 2.5 -4.2 0.3 0.3 0 2.9 -0.7 5.8 -1 4.3 -1.5 5.1 -3.4 5.1 -1.7 0 -2.4 -0.8 -2.9 -3.1z"/>
  <path d="M311 125.5 c0 -0.7 -0.8 -1.8 -1.7 -2.4 -1 -0.5 -1.4 -1.3 -1 -1.7 0.8 -0.9 5.9 2.6 6.5 4.4 0.2 0.7 -0.6 1.2 -1.7 1.2 -1.2 0 -2.1 -0.6 -2.1 -1.5z"/>
 </g>
 <g fill="#1b1b1b">
  <path d="M173 363.5 l0 -7.5 3.8 0 c5.4 0 7.4 1.8 7.9 7.3 0.4 4.1 0.3 4.7 -1.4 4.7 -1.2 0 -1.4 -0.3 -0.6 -0.8 0.9 -0.6 1 -1.7 0.3 -4.2 -1.1 -3.8 -2.5 -5 -5.7 -5 -2.1 0 -2.3 0.5 -2.3 5.5 0 3 0.5 5.5 1 5.5 0.6 0 1 0.5 1 1 0 0.6 -0.9 1 -2 1 -1.8 0 -2 -0.7 -2 -7.5z"/>
  <path d="M195 363.5 l0 -7.5 4.5 0 c2.5 0 4.5 0.5 4.5 1 0 0.6 -1.6 1 -3.5 1 -2.8 0 -3.5 0.4 -3.5 2 0 1.6 0.7 2 3 2 1.7 0 3 0.5 3 1 0 0.6 -1.3 1 -3 1 -2.5 0 -3 0.4 -3 2.5 0 2.2 0.4 2.5 3.5 2.5 1.9 0 3.5 0.5 3.5 1 0 0.6 -2 1 -4.5 1 l-4.5 0 0 -7.5z"/>
  <path d="M214.2 364.2 c-2.5 -7.8 -2.6 -8.2 -1.3 -8.2 0.6 0 1.8 2.5 2.7 5.5 1 3 2.1 5.5 2.4 5.5 0.3 0 1.4 -2.5 2.4 -5.5 0.9 -3 2.1 -5.5 2.7 -5.5 1.3 0 1.2 0.4 -1.3 8.2 -1.5 4.7 -2.7 6.8 -3.8 6.8 -1.1 0 -2.3 -2.1 -3.8 -6.8z"/>
  <path d="M245.4 369.5 c-1.8 -1.4 -1.7 -1.4 0.8 -0.4 2.2 0.9 3.1 0.9 4.3 -0.1 2.4 -2 1.4 -4.1 -2.5 -5.4 -2.6 -0.8 -3.6 -1.7 -3.7 -3.6 -0.3 -2.4 -0.2 -2.4 0.6 -0.4 0.5 1.2 2.6 2.7 4.5 3.4 2.7 0.9 3.6 1.7 3.6 3.4 0 4.3 -3.9 5.9 -7.6 3.1z"/>
  <path d="M274 363.5 c0 -4.3 0.4 -7.5 1 -7.5 0.6 0 1 1.4 1 3 0 2.8 0.3 3 3.5 3 3.2 0 3.5 -0.2 3.5 -3 0 -2 0.5 -3 1.5 -3 1.2 0 1.5 1.5 1.5 7.5 0 6 -0.3 7.5 -1.5 7.5 -1 0 -1.5 -1.1 -1.5 -3.5 0 -3.3 -0.2 -3.5 -3.5 -3.5 -3.3 0 -3.5 0.2 -3.5 3.5 0 1.9 -0.4 3.5 -1 3.5 -0.6 0 -1 -3.2 -1 -7.5z"/>
  <path d="M296.6 368.8 c-2.1 -3 -2.2 -12.8 -0.1 -12.8 1 0 1.5 1.6 1.7 6.2 0.3 5.3 0.6 6.3 2.2 6.6 2.8 0.6 4.6 -2.5 4.6 -8 0 -2.6 0.5 -4.8 1 -4.8 1.7 0 1.2 11.6 -0.6 13.4 -2.3 2.4 -7 2 -8.8 -0.6z"/>
  <path d="M317 363.5 l0 -7.5 3.9 0 c4.3 0 6.6 1.9 5.8 5 -0.3 1.1 -0.1 2.3 0.4 2.6 1.6 1 0.9 5.3 -1 6.4 -1.1 0.5 -3.6 1 -5.5 1 l-3.6 0 0 -7.5z m8.5 3 c0 -1.5 -0.8 -2.1 -3.2 -2.3 -3 -0.3 -3.3 -0.1 -3.3 2.3 0 2.4 0.3 2.6 3.3 2.3 2.4 -0.2 3.2 -0.8 3.2 -2.3z m-1 -6.5 c0 -0.9 -1.1 -1.6 -2.7 -1.8 -2.3 -0.3 -2.8 0.1 -2.8 1.8 0 1.7 0.5 2.1 2.8 1.8 1.6 -0.2 2.7 -0.9 2.7 -1.8z"/>
  <path d="M90 268 l0 -6 3.4 0 c1.9 0 3.8 0.5 4.1 1 0.4 0.6 -0.7 1 -2.4 1 -2.1 0 -3.1 0.5 -3.1 1.5 0 0.9 0.9 1.5 2.5 1.5 1.4 0 2.5 0.5 2.5 1 0 0.6 -1.1 1 -2.5 1 -1.6 0 -2.5 0.6 -2.5 1.5 0 1 1 1.5 3 1.5 1.7 0 3 0.5 3 1 0 0.6 -1.8 1 -4 1 l-4 0 0 -6z"/>
  <path d="M111.4 272.9 c-0.4 -0.7 0 -0.9 1.4 -0.5 1.4 0.5 2.4 0.1 3.1 -1.1 0.9 -1.6 1 -1.6 1.1 -0.2 0 2.5 -4.3 3.9 -5.6 1.8z"/>
  <path d="M132 269 c0 -3.8 -0.4 -5 -1.5 -5 -0.8 0 -1.5 -0.4 -1.5 -1 0 -0.5 2.1 -1 4.8 -0.9 4.6 0 4.6 0.1 2.5 1.6 -1.8 1.2 -2.3 2.5 -2.3 5.9 0 2.4 -0.4 4.4 -1 4.4 -0.5 0 -1 -2.2 -1 -5z"/>
  <path d="M343 272.1 c0 -1 1.1 -2.6 2.5 -3.5 3.4 -2.3 3.4 -5 -0.1 -4.2 -1.9 0.5 -2.5 0.3 -2.2 -0.6 0.3 -0.7 1.8 -1.3 3.4 -1.3 4.2 0 4.7 4.1 0.7 7.2 l-2.8 2.3 2.8 0 c1.5 0 2.7 0.5 2.7 1 0 0.6 -1.6 1 -3.5 1 -2.8 0 -3.5 -0.4 -3.5 -1.9z"/>
  <path d="M363.4 272.1 c-0.8 -1.3 -1 -5.1 -0.5 -8.2 0.1 -0.4 1.4 -0.9 3 -1.1 2 -0.3 3.2 0.1 4 1.4 1.3 2.1 1.4 5.8 0.2 7.7 -1.3 2 -5.6 2.2 -6.7 0.2z m5.5 -1.5 c1.6 -3 0.6 -6.6 -1.9 -6.6 -2.9 0 -4.1 6.3 -1.5 8.2 1.6 1.2 2.1 1 3.4 -1.6z"/>
  <path d="M383.7 272.6 c-0.6 -1.5 2.2 -4.6 4 -4.6 0.6 0 1 -0.8 0.8 -1.7 -0.2 -1.3 -1 -1.7 -3 -1.5 -2.5 0.3 -2.7 0.1 -1.5 -1.3 1.6 -2 4.9 -1.6 6.4 0.7 0.8 1.4 0.5 2.3 -1.9 4.8 l-2.9 3 2.7 0 c1.5 0 2.7 0.5 2.7 1 0 1.6 -6.7 1.2 -7.3 -0.4z"/>
  <path d="M407 272.3 c1.3 -0.6 1.3 -4 0.1 -4.8 -0.5 -0.3 -1.2 -0.1 -1.6 0.5 -1.3 2.1 -2.5 0.9 -2.5 -2.5 0 -3.3 0.2 -3.5 3.5 -3.5 1.9 0 3.5 0.5 3.5 1 0 0.6 -1.1 1 -2.5 1 -1.5 0 -2.5 0.6 -2.5 1.4 0 0.9 0.7 1.2 1.8 0.9 2.3 -0.6 4.5 2 3.9 4.4 -0.3 1.3 -0.5 1.1 -0.7 -0.7 l-0.2 -2.5 -0.7 2.4 c-0.4 1.4 -1.2 2.6 -1.9 2.7 -0.7 0.1 -0.8 0 -0.2 -0.3z"/>
  <path d="M133.5 210 c0.8 -1.4 -10.1 -6.3 -14.1 -6.4 l-3.1 0 1.5 -3.8 c0.8 -2.1 1.9 -3.8 2.4 -3.8 0.5 0 0.6 0.4 0.3 1 -0.3 0.5 2 2.1 5.1 3.5 9.2 4.1 10 4.1 11.2 0.6 0.8 -2.3 0.7 -3.2 -0.4 -4.2 -3 -2.5 -1.2 -3.9 2.1 -1.6 1.7 1.3 1.7 1.7 -1 8.5 -1.6 4 -3.2 7.2 -3.7 7.2 -0.5 0 -0.6 -0.5 -0.3 -1z"/>
  <path d="M363.8 206.8 c0.3 -1.3 2.3 -5 4.3 -8.3 2.1 -3.2 3.7 -6.1 3.5 -6.3 -0.5 -0.4 -8.8 2.8 -10.3 4.1 -0.7 0.5 -1 1.3 -0.7 1.8 0.3 0.5 0.1 0.9 -0.4 0.9 -0.6 0 -1.5 -1.4 -2.1 -3.1 -1.4 -4.1 -1.4 -4.4 0.3 -3 2.1 1.8 15.6 -3.7 15.6 -6.4 0.1 -2 0.1 -2 1.5 -0.1 2.2 2.9 1.9 4.6 -2 10.6 -4 6.4 -4.2 7.4 -1.5 6.7 2.3 -0.6 3.7 0.8 1.6 1.6 -0.8 0.3 -2.2 -0.1 -3.3 -0.8 -2.3 -1.9 -4.3 -1.9 -4.3 -0.1 0 0.8 0.6 1.7 1.3 1.9 0.9 0.4 0.8 0.8 -0.3 1.6 -2.5 1.8 -3.9 1.3 -3.2 -1.1z"/>
  <path d="M141.8 190.2 c-0.7 -2.4 -12.4 -9.3 -14.4 -8.5 -1.4 0.5 -1.5 0.3 -0.4 -1.8 0.7 -1.3 2.5 -4.2 3.9 -6.4 1.4 -2.2 2.6 -4.1 2.7 -4.3 0.1 -0.2 1.2 0.2 2.4 0.8 2.3 1.2 1.9 2.5 -0.7 2.5 -0.8 0 -2.2 1 -3 2.1 -1.2 1.9 -1.1 2.3 1.3 3.9 2.7 1.8 2.8 1.8 5.1 -1.1 2.4 -3 3.2 -1.8 1.1 1.7 -1.1 1.7 -1 2.2 1.2 3.9 1.4 1.1 3 2 3.6 2 1.7 0 3.7 -5.1 2.4 -6.4 -2.4 -2.4 -0.6 -3.5 2.4 -1.3 1.7 1.2 1.5 1.7 -2.4 8 -2.3 3.7 -4.3 6.7 -4.5 6.7 -0.1 0 -0.5 -0.8 -0.7 -1.8z"/>
  <path d="M350.5 182.8 c-5 -7.6 -5.2 -8.3 -3 -7.4 2.4 0.9 14.8 -7.1 14.1 -9 -0.3 -0.8 -0.2 -1.4 0.2 -1.4 0.9 0 5.2 6.6 5.2 8 0 0.5 0.5 1 1.1 1 0.5 0 0.7 0.5 0.3 1.1 -0.4 0.8 -1.2 0.2 -2.1 -1.5 l-1.4 -2.7 -3 2.2 c-2.9 2 -2.9 2.2 -1.4 4.6 0.9 1.4 1.4 2.7 1.2 3 -0.3 0.2 -1.3 -0.7 -2.2 -2.1 -1.8 -2.7 -2.5 -2.6 -6.8 0.6 -1.8 1.3 -1.7 1.5 0.3 4.1 1.2 1.5 2.6 2.5 3.1 2.2 1.9 -1.2 3 0.7 1.2 2.1 -1 0.7 -2 1.3 -2.3 1.4 -0.3 0 -2.3 -2.8 -4.5 -6.2z"/>
  <path d="M150.8 170.3 c-1 -0.2 -1.8 -1.1 -1.8 -1.9 0 -0.8 -0.4 -1.3 -0.9 -0.9 -1.6 0.9 -5.1 -4.6 -5.1 -7.9 0 -4.6 4.8 -9 9.6 -9 4.7 0 10.4 5.7 10.4 10.4 0 5.5 -6.9 10.8 -12.2 9.3z m8.9 -4.9 c1.1 -2.8 -1.1 -6.7 -5.3 -9.7 -3.5 -2.4 -4.5 -2.7 -6.3 -1.8 -3.2 1.8 -2.6 5.5 1.4 9.6 3.9 3.9 9.1 4.8 10.2 1.9z"/>
  <path d="M337.2 165.7 c-3.5 -3.6 -4.1 -5 -1.7 -4 0.9 0.3 2.4 -0.2 3.5 -1.2 2 -1.9 5.4 -10.8 5.2 -13.8 -0.1 -2.5 1.7 -1.7 4.6 2.1 2.3 3 2.3 3.2 0.5 3.2 -1.4 0 -2.3 1.1 -3.1 3.7 -0.6 2 -1 3.8 -0.9 4 0.2 0.1 2 -0.3 4.1 -0.9 2.9 -0.9 3.6 -1.6 3.2 -3 -0.2 -1.1 0 -1.8 0.6 -1.6 0.5 0.2 0.9 0.8 0.9 1.3 0 0.6 0.9 1.3 2 1.7 1 0.4 1.9 1.2 1.9 1.8 0 0.6 -0.4 0.8 -1 0.5 -1.6 -1 -12.1 2.3 -14.5 4.5 -1.3 1.2 -2.1 2.8 -1.8 3.6 0.8 2.1 0 1.7 -3.5 -1.9z"/>
  <path d="M170.3 155.6 c0.9 -2.3 -8.1 -14.9 -10 -14.2 -2.1 0.9 -1.5 -1 0.9 -2.6 2 -1.4 2.9 -1.3 9.2 0.8 3.8 1.3 7.3 2.4 7.8 2.4 0.4 0 -0.7 -2 -2.4 -4.5 -1.8 -2.6 -3.8 -4.3 -4.5 -4.1 -2.2 0.9 -1.4 -1.1 1.2 -2.8 2.9 -1.9 4.1 -2.1 2.7 -0.3 -0.9 1 0.1 3 3.8 8.1 7.3 10 6.9 10.5 -4.7 6.5 -4.8 -1.6 -8.7 -2.8 -8.9 -2.6 -0.1 0.1 1.6 2.5 3.7 5.4 2.6 3.5 4.4 5 5.4 4.7 2.5 -1 1.7 0.3 -1.7 2.7 -2.7 2 -3.1 2 -2.5 0.5z"/>
  <path d="M319.9 150.7 c-4.4 -3.7 -4.4 -5.7 0.2 -12.1 2.6 -3.7 3.9 -6.4 3.6 -7.7 -0.6 -2 -0.2 -1.9 4.6 1.3 3 2.2 3.5 3.6 1.1 3.4 -0.9 0 -3.4 2.4 -5.6 5.5 -3.5 4.8 -3.9 5.9 -2.9 7.8 1.8 3.3 5 2.5 9.4 -2.1 l4 -4.3 -2.9 4.5 c-1.6 2.5 -3.3 4.8 -3.9 5.2 -1.8 1.4 -5 0.8 -7.6 -1.5z"/>
  <path d="M190 139.5 c0 -1.9 0.5 -3.5 1.1 -3.5 0.6 0 0.9 0.9 0.6 1.9 -0.3 1.2 0.1 2.2 0.9 2.5 0.8 0.3 1.4 0.1 1.4 -0.5 0 -0.6 0.5 -0.7 1.1 -0.3 0.8 0.4 0.3 1.2 -1.2 2 -3.5 2 -3.9 1.7 -3.9 -2.1z"/>
  <path d="M303.8 140.1 c0.7 -0.4 1.4 -2.6 1.5 -4.9 l0.1 -4 4 2 c3.7 1.9 3.9 2.1 1.9 2.9 -1.2 0.4 -2.4 1.7 -2.8 2.8 -0.4 1.5 -1.5 2.1 -3.3 2.1 -1.8 0 -2.3 -0.3 -1.4 -0.9z"/>
  <path d="M297.7 137.2 c-3.1 -3.2 -3.5 -7.7 -1.2 -12.2 1.8 -3.5 4.3 -5 8.2 -5 2.7 0.1 8.9 2.8 6.8 3 -0.5 0.1 0.1 0.5 1.3 1.1 2.8 1.1 2.4 3.3 -0.6 3.7 -1.6 0.3 -1.9 -0.1 -1.5 -1.7 0.4 -1.6 -0.1 -2.3 -2.1 -3.1 -3.4 -1.3 -5.1 -0.5 -7.6 3.5 -2.6 4.2 -2.6 9 0 10.8 1.1 0.8 1.7 1.7 1.3 2 -1.1 1.2 -1.8 0.8 -4.6 -2.1z"/>
  <path d="M206 135 c0 -0.8 -0.9 -1 -2.6 -0.6 -1.5 0.4 -3.2 0.2 -4.1 -0.5 -1.1 -1 -2.2 -1 -4.9 0 -2 0.7 -3.8 1 -4.1 0.7 -0.3 -0.2 -0.8 -3.4 -1 -7 -0.6 -6.4 -0.5 -6.6 1.8 -6.6 1.6 0 3.8 1.6 6.8 5.1 2.4 2.8 5.7 5.9 7.3 6.9 1.8 1.1 2.5 2 1.9 2.4 -0.6 0.4 -1.1 0.2 -1.1 -0.4z m-12 -2.5 c0.4 0.3 1.3 -0.1 1.9 -0.8 0.8 -1 0.4 -2 -1.9 -4.2 -3.2 -3.1 -3.6 -2.6 -2.3 3.6 0.3 1.9 0.8 2.8 1.1 2.1 0.2 -0.7 0.7 -1 1.2 -0.7z"/>
  <path d="M212 132.1 c1.3 -0.9 1.2 -2 -0.5 -8.8 -1.3 -4.8 -2.5 -7.7 -3.3 -7.5 -0.6 0.1 -1.2 -0.2 -1.2 -0.7 0 -1 7.7 -3.1 11.7 -3.1 1.6 0 3.4 0.5 4.1 1.2 1.6 1.6 1.5 5.1 0 6.7 -1.1 1 -0.4 2 3.1 5.2 2.4 2.1 3.9 3.9 3.3 3.9 -0.6 0 -1.7 0.3 -2.5 0.6 -0.9 0.3 -3.1 -0.9 -5.5 -3 -2.1 -2 -4.1 -3.3 -4.4 -3.1 -1.2 1.2 0.6 5.7 2.5 6.4 2.6 1 1.1 1.9 -4.4 2.6 -3.2 0.5 -4 0.4 -2.9 -0.4z m8 -14.1 c0 -2.5 -2.7 -5.1 -4.6 -4.3 -1.1 0.4 -1.3 1.4 -0.8 3.7 0.3 1.7 0.8 3.4 1.1 3.9 0.8 1.3 4.3 -1.3 4.3 -3.3z"/>
  <path d="M283.4 132.2 c-0.6 -0.4 -2.6 -4.2 -4.4 -8.5 -1.8 -4.3 -3.4 -7.6 -3.7 -7.4 -0.2 0.3 -1 3 -1.7 6.1 -1.2 5 -1.2 5.8 0.3 6.7 1.2 0.8 0.8 0.9 -1.8 0.5 -1.8 -0.3 -3.9 -0.6 -4.5 -0.6 -0.6 0 -0.1 -0.8 1 -1.8 2.5 -2 5.9 -14.1 4.4 -15.6 -1.7 -1.7 -1.1 -2.4 1.3 -1.9 3.4 0.9 4 1.7 6.7 8.7 1.3 3.7 2.9 6.4 3.5 6.2 0.5 -0.2 0.9 -0.8 0.8 -1.4 -0.1 -0.5 0.2 -2.5 0.7 -4.3 0.7 -2.2 0.6 -3.7 -0.1 -4.6 -0.9 -1 -0.6 -1.3 1.2 -1.3 1.3 0 3.1 0.5 3.9 1 1.3 0.8 1.3 1 -0.2 1 -1.2 0 -1.9 1.1 -2.4 3.5 -0.3 1.9 -1 3.5 -1.4 3.5 -0.5 0 -0.6 0.9 -0.3 2 0.4 1.6 0 2 -1.8 2.1 -1.7 0.1 -1.9 0.3 -0.6 0.6 1.8 0.5 2 1.6 0.9 4.5 -0.4 1 -1.2 1.4 -1.8 1z"/>
  <path d="M233 128.1 c0 -0.6 0.5 -1.1 1 -1.1 0.6 0 1 -3.3 1 -8 0 -6.3 -0.3 -8.1 -1.6 -8.8 -2.7 -1.5 6.8 -2.5 11.5 -1.2 4.8 1.3 6.1 3.3 6.1 9.5 0 5.8 -3.2 9.5 -8.3 9.5 -1.9 0 -4.9 0.3 -6.6 0.6 -2 0.4 -3.1 0.3 -3.1 -0.5z m12.4 -4.3 c3 -4.2 1.1 -12.4 -3 -13.4 -1.4 -0.4 -2.8 -0.4 -3.1 -0.1 -0.3 0.4 -0.2 4 0.2 8.2 0.6 6.4 0.9 7.5 2.5 7.5 1.1 0 2.6 -1 3.4 -2.2z"/>
 </g>
</svg>